<svg width="40" height="40" viewBox="0 0 40 40" fill="none" xmlns="http://www.w3.org/2000/svg">
<g opacity="0.8">
<rect width="40" height="40" rx="20" fill="#E7F2ED"/>
<path d="M10.25 17.75H12.5V23.75H11C10.8011 23.75 10.6103 23.829 10.4697 23.9697C10.329 24.1103 10.25 24.3011 10.25 24.5C10.25 24.6989 10.329 24.8897 10.4697 25.0304C10.6103 25.171 10.8011 25.25 11 25.25H29C29.1989 25.25 29.3897 25.171 29.5303 25.0304C29.671 24.8897 29.75 24.6989 29.75 24.5C29.75 24.3011 29.671 24.1103 29.5303 23.9697C29.3897 23.829 29.1989 23.75 29 23.75H27.5V17.75H29.75C29.9132 17.7499 30.0719 17.6965 30.202 17.598C30.3321 17.4995 30.4265 17.3612 30.4709 17.2042C30.5153 17.0472 30.5073 16.8799 30.4481 16.7279C30.3889 16.5758 30.2817 16.4472 30.1428 16.3616L20.3928 10.3616C20.2747 10.2889 20.1387 10.2505 20 10.2505C19.8613 10.2505 19.7253 10.2889 19.6072 10.3616L9.85719 16.3616C9.71828 16.4472 9.61108 16.5758 9.55187 16.7279C9.49266 16.8799 9.48466 17.0472 9.52908 17.2042C9.57351 17.3612 9.66793 17.4995 9.79803 17.598C9.92814 17.6965 10.0868 17.7499 10.25 17.75ZM14 17.75H17V23.75H14V17.75ZM21.5 17.75V23.75H18.5V17.75H21.5ZM26 23.75H23V17.75H26V23.75ZM20 11.8803L27.1006 16.25H12.8994L20 11.8803ZM31.25 27.5C31.25 27.6989 31.171 27.8897 31.0303 28.0304C30.8897 28.171 30.6989 28.25 30.5 28.25H9.5C9.30109 28.25 9.11032 28.171 8.96967 28.0304C8.82902 27.8897 8.75 27.6989 8.75 27.5C8.75 27.3011 8.82902 27.1103 8.96967 26.9697C9.11032 26.829 9.30109 26.75 9.5 26.75H30.5C30.6989 26.75 30.8897 26.829 31.0303 26.9697C31.171 27.1103 31.25 27.3011 31.25 27.5Z" fill="#0A814A"/>
</g>
</svg>
