<svg width="27" height="29" viewBox="0 0 27 29" fill="none" xmlns="http://www.w3.org/2000/svg">
<path d="M26.0693 7.31852C25.8192 7.44804 25.5279 7.47294 25.2594 7.38777C24.991 7.3026 24.7673 7.11431 24.6376 6.8643C23.6234 4.86081 22.0884 3.16746 20.1937 1.96219C20.0756 1.88772 19.9734 1.79072 19.8928 1.67672C19.8122 1.56273 19.7548 1.43399 19.724 1.29783C19.6932 1.16168 19.6895 1.02078 19.7131 0.883195C19.7367 0.745607 19.7872 0.614017 19.8617 0.49594C19.9361 0.377864 20.0331 0.275612 20.1471 0.195023C20.2611 0.114434 20.3899 0.0570865 20.526 0.0262545C20.6622 -0.00457743 20.8031 -0.00828999 20.9407 0.0153288C21.0782 0.0389477 21.2098 0.0894354 21.3279 0.163909C23.5361 1.57775 25.3291 3.5527 26.5235 5.8868C26.6531 6.13691 26.678 6.42821 26.5928 6.69668C26.5076 6.96515 26.3193 7.18882 26.0693 7.31852ZM1.06205 7.43805C1.25671 7.43797 1.4476 7.38441 1.61389 7.28324C1.78018 7.18205 1.91548 7.03714 2.00502 6.8643C3.01918 4.86081 4.55425 3.16746 6.44893 1.96219C6.6874 1.81178 6.85635 1.57281 6.91862 1.29783C6.98088 1.02286 6.93137 0.734407 6.78096 0.49594C6.63055 0.257474 6.39158 0.0885225 6.1166 0.0262545C5.84163 -0.0360134 5.55318 0.0135025 5.31471 0.163909C3.10657 1.57775 1.31357 3.5527 0.119086 5.8868C0.0351992 6.04872 -0.0055993 6.22951 0.000617712 6.41177C0.00683473 6.59403 0.0598578 6.77162 0.154584 6.92745C0.249311 7.08328 0.382551 7.21211 0.541484 7.30153C0.700417 7.39096 0.879691 7.43797 1.06205 7.43805ZM25.7785 21.2426C25.9667 21.5654 26.0665 21.9321 26.0678 22.3058C26.0691 22.6794 25.9718 23.0468 25.7858 23.3709C25.5998 23.695 25.3316 23.9643 25.0083 24.1516C24.685 24.339 24.318 24.4378 23.9443 24.438H18.5256C18.2817 25.639 17.6302 26.7187 16.6813 27.4942C15.7325 28.2697 14.5448 28.6934 13.3193 28.6934C12.0939 28.6934 10.9061 28.2697 9.9573 27.4942C9.00847 26.7187 8.35693 25.639 8.11307 24.438H2.69432C2.32088 24.4373 1.95423 24.3382 1.6313 24.1506C1.30837 23.9631 1.04057 23.6937 0.854866 23.3697C0.669167 23.0457 0.57213 22.6785 0.573529 22.3051C0.574928 21.9317 0.674714 21.5652 0.862836 21.2426C2.05948 19.1773 2.69432 16.2409 2.69432 12.7506C2.69432 9.93262 3.81374 7.23011 5.80631 5.23754C7.79889 3.24497 10.5014 2.12555 13.3193 2.12555C16.1372 2.12555 18.8398 3.24497 20.8323 5.23754C22.8249 7.23011 23.9443 9.93262 23.9443 12.7506C23.9443 16.2395 24.5792 19.176 25.7785 21.2426ZM16.3235 24.438H10.3151C10.5352 25.0588 10.9423 25.5962 11.4802 25.9762C12.0182 26.3562 12.6607 26.5603 13.3193 26.5603C13.978 26.5603 14.6205 26.3562 15.1584 25.9762C15.6964 25.5962 16.1034 25.0588 16.3235 24.438Z" fill="#0A814A"/>
</svg>
