<svg width="21" height="20" viewBox="0 0 21 20" fill="none" xmlns="http://www.w3.org/2000/svg">
<path d="M2.24135 13.9335L1.50092 13.8141L2.24135 13.9335ZM18.4935 13.9335L19.2339 13.8141V13.8141L18.4935 13.9335ZM17.3228 6.67542L16.5824 6.79484L17.3228 6.67542ZM3.41201 6.67542L4.15244 6.79484L3.41201 6.67542ZM0.0289744 5.04652C-0.0846916 5.44483 0.14606 5.85987 0.544372 5.97354C0.942685 6.0872 1.35773 5.85645 1.47139 5.45814L0.750183 5.25233L0.0289744 5.04652ZM3.99845 1.29381C4.29879 1.00856 4.31102 0.533845 4.02577 0.233505C3.74052 -0.0668348 3.2658 -0.0790656 2.96546 0.206187L3.48196 0.75L3.99845 1.29381ZM17.7693 0.206187C17.469 -0.0790657 16.9943 -0.0668347 16.709 0.233505C16.4238 0.533845 16.436 1.00856 16.7364 1.29381L17.2529 0.75L17.7693 0.206187ZM19.2634 5.45814C19.3771 5.85645 19.7921 6.0872 20.1904 5.97354C20.5888 5.85987 20.8195 5.44483 20.7058 5.04652L19.9846 5.25233L19.2634 5.45814ZM17.3228 6.67542L16.5824 6.79484L17.753 14.0529L18.4935 13.9335L19.2339 13.8141L18.0632 6.55599L17.3228 6.67542ZM16.519 16.252V15.502H4.21583V16.252V17.002H16.519V16.252ZM2.24135 13.9335L2.98178 14.0529L4.15244 6.79484L3.41201 6.67542L2.67158 6.55599L1.50092 13.8141L2.24135 13.9335ZM4.21583 16.252V15.502C3.44605 15.502 2.8592 14.8129 2.98178 14.0529L2.24135 13.9335L1.50092 13.8141C1.23125 15.486 2.52232 17.002 4.21583 17.002V16.252ZM18.4935 13.9335L17.753 14.0529C17.8756 14.8129 17.2887 15.502 16.519 15.502V16.252V17.002C18.2125 17.002 19.5035 15.486 19.2339 13.8141L18.4935 13.9335ZM10.3674 0.751968V1.50197C13.4573 1.50197 16.0904 3.74441 16.5824 6.79484L17.3228 6.67542L18.0632 6.55599C17.454 2.77873 14.1935 0.00196838 10.3674 0.00196838V0.751968ZM10.3674 0.751968V0.00196838C6.54132 0.00196838 3.28081 2.77873 2.67158 6.55599L3.41201 6.67542L4.15244 6.79484C4.64444 3.74441 7.27755 1.50197 10.3674 1.50197V0.751968ZM14.3674 16.252L13.6666 15.9848C13.082 17.5181 11.7875 18.502 10.3674 18.502V19.252V20.002C12.5256 20.002 14.3063 18.5176 15.0682 16.5192L14.3674 16.252ZM10.3674 19.252V18.502C8.94734 18.502 7.6528 17.5181 7.0682 15.9848L6.3674 16.252L5.66661 16.5192C6.42853 18.5176 8.20921 20.002 10.3674 20.002V19.252ZM0.750183 5.25233L1.47139 5.45814C1.93072 3.84854 2.81585 2.41701 3.99845 1.29381L3.48196 0.75L2.96546 0.206187C1.59295 1.50975 0.563599 3.17307 0.0289744 5.04652L0.750183 5.25233ZM17.2529 0.75L16.7364 1.29381C17.919 2.41701 18.8041 3.84854 19.2634 5.45814L19.9846 5.25233L20.7058 5.04652C20.1712 3.17307 19.1419 1.50975 17.7693 0.206187L17.2529 0.75Z" fill="#041915"/>
</svg>
