<svg width="64" height="64" viewBox="0 0 64 64" fill="none" xmlns="http://www.w3.org/2000/svg">
<path d="M64.0007 32C64.0007 34.689 62.3125 36.9253 60.6795 39.0875C59.6999 40.3858 58.7738 41.6126 58.2514 42.8726C57.6965 44.2107 57.4553 45.8582 57.2233 47.4512C56.8376 50.0884 56.44 52.8165 54.6278 54.6278C52.8164 56.4392 50.0891 56.8368 47.4519 57.2226C45.8588 57.4554 44.2115 57.6959 42.8733 58.2506C41.6125 58.7731 40.3865 59.6992 39.0883 60.6797C36.926 62.3118 34.6898 64 32.0008 64C29.311 64 27.0756 62.3118 24.9133 60.6797C23.6151 59.6992 22.3882 58.7731 21.1283 58.2506C19.7901 57.6958 18.1427 57.4554 16.5497 57.2226C13.9116 56.8369 11.1843 56.4393 9.37298 54.6278C7.56163 52.8164 7.16311 50.0884 6.77824 47.4512C6.54548 45.8581 6.30503 44.2107 5.75022 42.8726C5.2277 41.6126 4.30158 40.3858 3.32115 39.0875C1.68907 36.9253 0 34.689 0 32C0 29.311 1.68907 27.0747 3.32115 24.9125C4.30165 23.6142 5.2277 22.3874 5.75022 21.1274C6.30503 19.7893 6.54548 18.1419 6.77824 16.5489C7.16311 13.9117 7.56156 11.1835 9.37298 9.37216C11.1844 7.56081 13.9117 7.16318 16.5497 6.77741C18.1427 6.54465 19.7901 6.30421 21.1283 5.74939C22.3882 5.22687 23.6151 4.30076 24.9133 3.32033C27.0756 1.68825 29.3109 0 32.0008 0C34.6899 0 36.9261 1.68818 39.0883 3.32033C40.3865 4.30076 41.6125 5.22687 42.8733 5.74939C44.2115 6.30421 45.8588 6.54465 47.4519 6.77741C50.0891 7.16311 52.8164 7.56074 54.6278 9.37216C56.44 11.1835 56.8376 13.9117 57.2233 16.5489C57.4553 18.1419 57.6966 19.7893 58.2514 21.1274C58.7739 22.3874 59.7 23.6142 60.6795 24.9125C62.3125 27.0747 64.0007 29.311 64.0007 32Z" fill="#1FC16B"/>
<path d="M47.9128 27.1952L30.0306 45.0774C29.2873 45.8208 28.0821 45.8208 27.3387 45.0774L16.0878 33.8265C15.3444 33.0832 15.3444 31.8779 16.0878 31.1346L18.8266 28.3957C19.57 27.6524 20.7751 27.6524 21.5186 28.3957L28.6847 35.5619L42.4821 21.7645C43.2255 21.0212 44.4307 21.0212 45.1741 21.7645L47.9129 24.5034C48.6562 25.2467 48.6562 26.4519 47.9128 27.1952Z" fill="white"/>
</svg>
