<svg width="20" height="20" viewBox="0 0 20 20" fill="none" xmlns="http://www.w3.org/2000/svg">
<path d="M17.4829 11.7259C17.5025 11.8056 17.5062 11.8884 17.4938 11.9696C17.4814 12.0507 17.4532 12.1286 17.4107 12.1988C17.3682 12.2691 17.3122 12.3302 17.2461 12.3788C17.1799 12.4275 17.1048 12.4626 17.0251 12.4821L15.1001 12.9509L15.6048 14.8345C15.6261 14.9138 15.6315 14.9965 15.6208 15.0779C15.61 15.1593 15.5834 15.2378 15.5423 15.3089C15.5013 15.38 15.4466 15.4423 15.3814 15.4923C15.3163 15.5423 15.2419 15.5789 15.1626 15.6001C15.11 15.6153 15.0556 15.6237 15.0009 15.6251C14.8634 15.625 14.7298 15.5795 14.6207 15.4958C14.5117 15.412 14.4333 15.2946 14.3978 15.1618L13.7946 12.9118L10.6259 11.0829V14.7415L12.3181 16.4329C12.3761 16.491 12.4222 16.5599 12.4536 16.6358C12.4851 16.7117 12.5012 16.793 12.5012 16.8751C12.5012 16.9572 12.4851 17.0385 12.4536 17.1144C12.4222 17.1903 12.3761 17.2592 12.3181 17.3173C12.26 17.3754 12.1911 17.4214 12.1152 17.4528C12.0393 17.4843 11.958 17.5005 11.8759 17.5005C11.7938 17.5005 11.7124 17.4843 11.6366 17.4528C11.5607 17.4214 11.4918 17.3754 11.4337 17.3173L10.0009 15.8837L8.56807 17.3173C8.51 17.3754 8.44107 17.4214 8.3652 17.4528C8.28933 17.4843 8.20801 17.5005 8.12589 17.5005C8.04376 17.5005 7.96245 17.4843 7.88658 17.4528C7.8107 17.4214 7.74177 17.3754 7.6837 17.3173C7.62563 17.2592 7.57957 17.1903 7.54814 17.1144C7.51671 17.0385 7.50054 16.9572 7.50054 16.8751C7.50054 16.793 7.51671 16.7117 7.54814 16.6358C7.57957 16.5599 7.62563 16.491 7.6837 16.4329L9.37589 14.7415V11.0829L6.20792 12.9118L5.60479 15.1618C5.56918 15.2948 5.49069 15.4122 5.38149 15.496C5.2723 15.5798 5.13851 15.6251 5.00089 15.6251C4.94604 15.625 4.89143 15.6179 4.83839 15.604C4.75907 15.5828 4.68471 15.5462 4.61955 15.4962C4.5544 15.4462 4.49972 15.3839 4.45866 15.3128C4.4176 15.2417 4.39094 15.1632 4.38023 15.0818C4.36951 15.0004 4.37494 14.9177 4.3962 14.8384L4.90089 12.9548L2.97589 12.486C2.81489 12.4465 2.67621 12.3446 2.59035 12.2027C2.5045 12.0609 2.4785 11.8908 2.51807 11.7298C2.55765 11.5688 2.65956 11.4301 2.80138 11.3443C2.94321 11.2584 3.11333 11.2324 3.27432 11.272L5.5751 11.8368L8.75089 10.0001L5.57589 8.16729L3.2751 8.73213C3.22629 8.74422 3.17617 8.75025 3.12589 8.7501C2.97307 8.75021 2.8255 8.69432 2.71109 8.593C2.59669 8.49169 2.52336 8.35196 2.50499 8.20025C2.48661 8.04854 2.52446 7.89535 2.61137 7.76965C2.69829 7.64395 2.82824 7.55445 2.97667 7.51807L4.90167 7.04932L4.39698 5.16182C4.35409 5.00166 4.37658 4.83101 4.45951 4.68743C4.54243 4.54385 4.679 4.43909 4.83917 4.3962C4.99933 4.35331 5.16998 4.3758 5.31356 4.45872C5.45714 4.54165 5.5619 4.67822 5.60479 4.83838L6.20792 7.08838L9.37589 8.91729V5.2587L7.6837 3.56729C7.56642 3.45002 7.50054 3.29096 7.50054 3.1251C7.50054 3.04298 7.51671 2.96166 7.54814 2.88579C7.57957 2.80992 7.62563 2.74098 7.6837 2.68292C7.74177 2.62485 7.8107 2.57878 7.88658 2.54736C7.96245 2.51593 8.04376 2.49976 8.12589 2.49976C8.29174 2.49976 8.4508 2.56564 8.56807 2.68292L10.0009 4.11651L11.4337 2.68292C11.551 2.56564 11.71 2.49976 11.8759 2.49976C12.0417 2.49976 12.2008 2.56564 12.3181 2.68292C12.4353 2.80019 12.5012 2.95925 12.5012 3.1251C12.5012 3.29096 12.4353 3.45002 12.3181 3.56729L10.6259 5.2587V8.91729L13.7939 7.08838L14.397 4.83838C14.4399 4.67822 14.5446 4.54165 14.6882 4.45872C14.8318 4.3758 15.0024 4.35331 15.1626 4.3962C15.3228 4.43909 15.4593 4.54385 15.5423 4.68743C15.6252 4.83101 15.6477 5.00166 15.6048 5.16182L15.1001 7.04542L17.0251 7.51417C17.1777 7.54675 17.3125 7.63521 17.4032 7.76217C17.4939 7.88914 17.5338 8.04541 17.5151 8.2003C17.4964 8.35518 17.4204 8.49747 17.3021 8.59921C17.1839 8.70094 17.0318 8.75477 16.8759 8.7501C16.8256 8.75025 16.7755 8.74422 16.7267 8.73213L14.4259 8.16729L11.2509 10.0001L14.4259 11.8329L16.7267 11.2681C16.8064 11.2485 16.8892 11.2447 16.9703 11.2571C17.0515 11.2695 17.1294 11.2978 17.1996 11.3403C17.2699 11.3828 17.331 11.4388 17.3796 11.5049C17.4282 11.5711 17.4633 11.6462 17.4829 11.7259Z" fill="#0A814A"/>
</svg>
