<svg width="19" height="15" viewBox="0 0 19 15" fill="none" xmlns="http://www.w3.org/2000/svg">
<path d="M18.718 0.615844C18.709 0.462942 18.6443 0.318641 18.536 0.210339C18.4277 0.102037 18.2834 0.0372729 18.1305 0.0283436C14.0867 -0.206031 10.8398 1.02366 9.44452 3.32678C8.52265 4.84944 8.52421 6.69866 9.43203 8.46272C8.91531 9.07784 8.53767 9.7974 8.32499 10.5721L7.0539 9.29631C7.66484 8.02053 7.6414 6.69084 6.97578 5.58616C5.94453 3.88381 3.56406 2.97131 0.608588 3.14475C0.455686 3.15368 0.311386 3.21844 0.203084 3.32675C0.0947814 3.43505 0.0300177 3.57935 0.0210885 3.73225C-0.15313 6.68772 0.760151 9.06819 2.46249 10.0994C3.02426 10.4427 3.6698 10.6243 4.32812 10.6244C4.9671 10.6166 5.59615 10.4652 6.16874 10.1815L8.12187 12.1346V14.3744C8.12187 14.5402 8.18772 14.6992 8.30493 14.8164C8.42214 14.9336 8.58111 14.9994 8.74687 14.9994C8.91263 14.9994 9.0716 14.9336 9.18881 14.8164C9.30602 14.6992 9.37187 14.5402 9.37187 14.3744V12.0705C9.36909 11.0762 9.70745 10.1111 10.3305 9.33616C11.1343 9.75626 12.0259 9.98108 12.9328 9.99241C13.8097 9.99523 14.6702 9.75569 15.4195 9.30022C17.7227 7.90647 18.9555 4.65959 18.718 0.615844ZM3.10703 9.03069C1.90859 8.30491 1.23046 6.58694 1.24687 4.37444C3.45937 4.35569 5.17734 5.03616 5.90312 6.23459C6.28203 6.85959 6.34374 7.5885 6.09531 8.33928L4.18828 6.43225C4.07011 6.31999 3.91277 6.25833 3.74979 6.26041C3.58682 6.2625 3.4311 6.32817 3.31585 6.44342C3.2006 6.55867 3.13493 6.71438 3.13285 6.87736C3.13076 7.04034 3.19242 7.19768 3.30468 7.31584L5.21171 9.22287C4.46093 9.47131 3.73281 9.40959 3.10703 9.03069ZM14.7719 8.23225C13.725 8.86584 12.4945 8.91428 11.2445 8.3885L15.4391 4.19319C15.5513 4.07502 15.613 3.91768 15.6109 3.7547C15.6088 3.59173 15.5431 3.43601 15.4279 3.32076C15.3126 3.20551 15.1569 3.13984 14.9939 3.13776C14.831 3.13567 14.6736 3.19733 14.5555 3.30959L10.3602 7.49944C9.83203 6.24944 9.87968 5.01819 10.5164 3.97209C11.6055 2.17522 14.1883 1.17366 17.4953 1.251C17.5703 4.55725 16.5703 7.14319 14.7719 8.23225Z" fill="#0A814A"/>
</svg>
