<svg width="18" height="16" viewBox="0 0 18 16" fill="none" xmlns="http://www.w3.org/2000/svg">
<path d="M9.43984 15.3461C9.34804 15.4841 9.20519 15.5799 9.04272 15.6126C8.88024 15.6453 8.71144 15.6121 8.57344 15.5203C6.21888 13.9539 3.45297 13.1204 0.625 13.125C0.45924 13.125 0.300268 13.0592 0.183058 12.9419C0.065848 12.8247 0 12.6658 0 12.5C0 12.3342 0.065848 12.1753 0.183058 12.0581C0.300268 11.9408 0.45924 11.875 0.625 11.875C3.69932 11.8703 6.70609 12.7767 9.26562 14.4797C9.4036 14.5715 9.49946 14.7143 9.53214 14.8768C9.56481 15.0393 9.53161 15.2081 9.43984 15.3461ZM0.625 9.375C0.45924 9.375 0.300268 9.44085 0.183058 9.55806C0.065848 9.67527 0 9.83424 0 10C0 10.1658 0.065848 10.3247 0.183058 10.4419C0.300268 10.5592 0.45924 10.625 0.625 10.625C5.04283 10.6149 9.28647 12.3472 12.4352 15.4461C12.4932 15.5058 12.5627 15.5533 12.6394 15.5858C12.7161 15.6184 12.7986 15.6352 12.8819 15.6354C12.9652 15.6355 13.0477 15.6191 13.1246 15.5869C13.2015 15.5547 13.2711 15.5075 13.3294 15.448C13.3878 15.3885 13.4336 15.3179 13.4643 15.2405C13.495 15.163 13.5099 15.0802 13.5081 14.9969C13.5063 14.9136 13.4878 14.8315 13.4539 14.7554C13.4199 14.6793 13.371 14.6108 13.3102 14.5539C9.92845 11.2249 5.37029 9.36401 0.625 9.375ZM16.875 10.625C15.5975 10.6242 14.324 10.768 13.0789 11.0539C13.5081 11.3794 13.9247 11.7221 14.3289 12.082C15.1706 11.9442 16.0221 11.8749 16.875 11.875C17.0408 11.875 17.1997 11.9408 17.3169 12.0581C17.4342 12.1753 17.5 12.3342 17.5 12.5C17.5 12.6658 17.4342 12.8247 17.3169 12.9419C17.1997 13.0592 17.0408 13.125 16.875 13.125C16.4062 13.125 15.943 13.1477 15.4805 13.1922C15.9138 13.6438 16.3289 14.1161 16.7258 14.6094C16.7801 14.673 16.8212 14.747 16.8464 14.8268C16.8716 14.9066 16.8806 14.9907 16.8727 15.0741C16.8648 15.1574 16.8403 15.2383 16.8005 15.312C16.7608 15.3857 16.7066 15.4506 16.6413 15.503C16.576 15.5553 16.5008 15.594 16.4202 15.6167C16.3396 15.6395 16.2553 15.6458 16.1723 15.6353C16.0892 15.6248 16.0091 15.5978 15.9367 15.5557C15.8643 15.5137 15.8011 15.4576 15.7508 15.3906C13.9392 13.1189 11.6381 11.2857 9.01899 10.0276C6.39991 8.76955 3.53055 8.11917 0.625 8.125C0.45924 8.125 0.300268 8.05915 0.183058 7.94194C0.065848 7.82473 0 7.66576 0 7.5C0 7.33424 0.065848 7.17527 0.183058 7.05806C0.300268 6.94085 0.45924 6.875 0.625 6.875C1.88275 6.87523 3.13789 6.9895 4.375 7.21641V4.375C4.375 4.27797 4.39759 4.18228 4.44098 4.09549C4.48438 4.00871 4.54738 3.93322 4.625 3.875L9.625 0.125C9.73318 0.0438612 9.86477 0 10 0C10.1352 0 10.2668 0.0438612 10.375 0.125L15.375 3.875C15.4526 3.93322 15.5156 4.00871 15.559 4.09549C15.6024 4.18228 15.625 4.27797 15.625 4.375V6.91328C16.0398 6.88906 16.4562 6.875 16.875 6.875C17.0408 6.875 17.1997 6.94085 17.3169 7.05806C17.4342 7.17527 17.5 7.33424 17.5 7.5C17.5 7.66576 17.4342 7.82473 17.3169 7.94194C17.1997 8.05915 17.0408 8.125 16.875 8.125C14.6306 8.12071 12.4027 8.50912 10.2922 9.27266C10.7839 9.53307 11.2646 9.8138 11.7344 10.1148C13.4036 9.62295 15.1348 9.37378 16.875 9.375C17.0408 9.375 17.1997 9.44085 17.3169 9.55806C17.4342 9.67527 17.5 9.83424 17.5 10C17.5 10.1658 17.4342 10.3247 17.3169 10.4419C17.1997 10.5592 17.0408 10.625 16.875 10.625ZM8.125 5H11.875C12.0408 5 12.1997 5.06585 12.3169 5.18306C12.4342 5.30027 12.5 5.45924 12.5 5.625V7.33906C13.1187 7.20573 13.7437 7.10156 14.375 7.02656V4.6875L10 1.40625L5.625 4.6875V7.48516C6.2599 7.64141 6.8849 7.82839 7.5 8.04609V5.625C7.5 5.45924 7.56585 5.30027 7.68306 5.18306C7.80027 5.06585 7.95924 5 8.125 5ZM8.75547 8.53672C9.56705 8.18825 10.4003 7.89259 11.25 7.65156V6.25H8.75V8.53438L8.75547 8.53672Z" fill="#0A814A"/>
</svg>
