<svg width="306" height="82" viewBox="0 0 306 82" fill="none" xmlns="http://www.w3.org/2000/svg">
<g clip-path="url(#clip0_1688_299)">
<path opacity="0.99" fill-rule="evenodd" clip-rule="evenodd" d="M124.888 71.2924C124.539 71.3716 124.127 71.6724 123.81 72.0683C123.525 72.4166 123.208 73.0025 123.113 73.3825C123.018 73.7467 122.97 74.4118 123.018 74.8393C123.05 75.2826 123.24 75.9318 123.43 76.3119C123.604 76.6761 124.001 77.1352 124.286 77.3252C124.65 77.5786 125.078 77.7053 125.823 77.7369C126.726 77.7845 126.932 77.7528 127.455 77.3886L128.041 76.9769C128.041 78.212 127.962 78.7187 127.883 78.9245C127.788 79.1145 127.55 79.3679 127.328 79.4787C127.106 79.5737 126.758 79.6687 126.536 79.6687C126.314 79.6687 125.934 79.5579 125.664 79.4312C125.395 79.2887 125.126 78.9878 125.031 78.7187C124.888 78.2911 124.809 78.2436 124.159 78.2436C123.446 78.2436 123.446 78.2436 123.446 78.7978C123.446 79.1779 123.589 79.5104 123.89 79.8429C124.127 80.1279 124.523 80.4446 124.793 80.5871C125.062 80.7138 125.728 80.8246 126.298 80.8246C126.869 80.8246 127.582 80.7454 127.883 80.6504C128.184 80.5554 128.659 80.2388 128.929 79.9537C129.198 79.6687 129.499 79.1779 129.61 78.877C129.721 78.5287 129.785 77.0402 129.785 74.8076V71.2766C128.2 71.2766 128.2 71.2766 128.2 71.7991V72.3058C127.582 71.6249 127.233 71.3716 127.011 71.2766C126.79 71.1974 126.346 71.1182 126.029 71.1341C125.696 71.1341 125.173 71.2132 124.888 71.2924ZM125.712 72.5433C125.902 72.4641 126.251 72.4008 126.504 72.4008C126.758 72.385 127.138 72.5592 127.423 72.8283C127.851 73.1925 127.931 73.3825 128.01 74.2059C128.057 74.8868 128.01 75.2985 127.82 75.6785C127.677 75.9477 127.423 76.2644 127.249 76.3435C127.075 76.4385 126.663 76.5019 126.346 76.5019C125.886 76.5177 125.633 76.4069 125.3 76.0744C125.031 75.8052 124.825 75.3935 124.777 74.9976C124.714 74.6493 124.729 74.1584 124.777 73.8892C124.84 73.62 124.999 73.2559 125.141 73.05C125.268 72.8442 125.538 72.6225 125.712 72.5433ZM31.7727 0.180939C31.3448 0.244276 30.3781 0.450125 29.6334 0.640135C28.8886 0.830146 27.5733 1.226 26.7017 1.52685C25.8301 1.81186 24.7684 2.19189 24.3247 2.36607C23.8968 2.54025 22.9302 2.95192 22.1854 3.30027C21.4406 3.64863 20.0619 4.37701 19.0953 4.9312C18.1445 5.4854 16.639 6.46713 15.7675 7.11633C14.8959 7.76554 13.6123 8.81059 12.9151 9.42813C12.2178 10.0457 11.5047 10.6949 11.3304 10.869C11.1561 11.0432 10.4747 11.7874 9.80912 12.5316C9.14356 13.2758 8.08183 14.5901 7.43211 15.461C6.7824 16.3318 5.78405 17.8678 5.19772 18.8653C4.61139 19.8629 4.12014 20.7338 4.12014 20.8129C4.12014 20.8763 3.81906 21.5413 3.47043 22.3172C3.10596 23.0772 2.53547 24.4865 2.18684 25.4365C1.85406 26.4024 1.39451 27.9225 1.17266 28.8409C0.950807 29.7593 0.681409 31.0735 0.554635 31.7702C0.443708 32.4669 0.26939 33.8287 0.17431 34.7787C0.0792297 35.7446 0 37.3122 0 38.2622C0 39.2281 0.0633868 40.6532 0.158467 41.4291C0.237701 42.2208 0.380317 43.3925 0.491244 44.0417C0.586324 44.6909 0.839872 45.9735 1.04588 46.8919C1.26773 47.8103 1.71144 49.3779 2.06007 50.3754C2.39285 51.373 2.93164 52.7664 3.24858 53.4631C3.58136 54.1598 3.96168 55.0148 4.12014 55.3632C4.26277 55.7115 4.8491 56.7883 5.41958 57.7383C5.99006 58.7042 6.92501 60.0818 7.4638 60.826C8.01843 61.5702 9.09601 62.9003 9.85666 63.7553C10.6173 64.6262 11.9326 65.9563 12.7883 66.7163C13.644 67.4764 14.9751 68.5689 15.7675 69.139C16.5598 69.7248 17.9385 70.6432 18.8576 71.1974C19.7767 71.7358 20.9494 72.385 21.4723 72.6225C21.9952 72.86 22.851 73.24 23.3739 73.4775C23.8968 73.7151 25.1804 74.2059 26.2263 74.5701C27.2722 74.9343 28.7618 75.3776 29.5541 75.5518C30.3465 75.726 31.5825 75.9793 32.3273 76.106C33.0721 76.2169 34.7835 76.4069 36.1305 76.5177C38.1272 76.676 39.0621 76.676 41.1222 76.5177C42.5167 76.391 44.1648 76.2169 44.767 76.106C45.385 75.9952 46.4467 75.7893 47.144 75.631C47.8412 75.4885 49.4893 75.0135 50.7887 74.5701C52.104 74.1267 53.8313 73.4459 54.6395 73.0817C55.4318 72.7017 56.1291 72.385 56.1766 72.385C56.2241 72.385 56.7788 72.0683 57.4126 71.6883C58.0307 71.3082 58.7755 70.8966 59.029 70.754C59.2984 70.6274 60.3918 69.8515 61.4852 69.044C62.6421 68.1731 64.3852 66.653 65.7005 65.3388C66.9524 64.0878 68.537 62.2986 69.3452 61.2219C70.1217 60.1768 71.1993 58.5775 71.7381 57.6592C72.261 56.7408 73.0058 55.3632 73.3703 54.5715C73.7347 53.7956 74.1785 52.798 74.3528 52.3547C74.5271 51.9272 74.8757 50.9613 75.1134 50.2171C75.367 49.4729 75.779 47.9844 76.0325 46.8919C76.2861 45.7993 76.5713 44.4534 76.6664 43.8834C76.7456 43.3134 76.809 42.8383 76.7932 42.8225C76.7932 42.8067 76.2385 42.8542 75.5888 42.9333C74.9391 43.0125 73.9883 43.0917 73.4971 43.0917C72.8156 43.0917 72.5621 43.155 72.4987 43.3292C72.4512 43.4559 72.4195 43.725 72.4195 43.9309C72.4195 44.1209 72.2452 45.0234 72.0233 45.9418C71.8015 46.8602 71.3736 48.317 71.0725 49.1878C70.7873 50.0587 70.4069 51.088 70.2326 51.4838C70.0742 51.8797 69.6938 52.703 69.4086 53.3047C69.1075 53.9064 68.6955 54.6982 68.4736 55.0465C68.2676 55.3949 67.9507 55.9332 67.7764 56.2341C67.6179 56.5349 66.9365 57.5325 66.2709 58.4509C65.5737 59.4168 64.1792 61.0002 62.9273 62.2511C61.7388 63.4228 60.0907 64.8954 59.2667 65.5129C58.4427 66.1305 57.0799 67.033 56.2558 67.5239C55.4318 67.9989 53.9581 68.7748 53.0072 69.2181C52.0564 69.6773 50.6619 70.2632 49.9171 70.5165C49.1723 70.7857 47.9363 71.1499 47.144 71.3558C46.3516 71.5616 45.1156 71.8308 44.3708 71.9733C43.626 72.1 42.1364 72.29 41.043 72.3691C39.9496 72.4641 39.0304 72.4958 38.9829 72.4641C38.9354 72.4166 39.2523 71.9733 39.696 71.4824C40.1239 70.9757 41.0905 69.9782 41.8353 69.2498C42.5801 68.5214 43.8162 67.4447 44.6085 66.8588C45.4008 66.2571 46.6369 65.3862 47.3817 64.8954C48.1265 64.4204 49.6161 63.5495 50.7095 62.9953C51.8029 62.4252 53.4034 61.681 54.275 61.3327C55.1466 60.9843 56.7471 60.446 57.8405 60.1293C58.9339 59.8126 60.5661 59.4009 61.4852 59.2267C62.4044 59.0526 63.3076 58.8784 63.5136 58.8467C63.783 58.7834 63.8939 58.6092 64.0207 57.9758C64.0999 57.5483 64.1792 57.1366 64.1792 57.0733C64.1792 56.9941 63.3076 57.01 62.2459 57.0733C61.1683 57.1366 59.6629 57.2633 58.8705 57.3583C58.0782 57.4533 56.6203 57.6592 55.622 57.8175C54.6236 57.9758 53.451 58.1975 53.0072 58.2925C52.5794 58.3875 51.2483 58.7517 50.0756 59.1001C48.903 59.4642 47.3341 60.0026 46.5893 60.3035C45.8445 60.6043 44.4976 61.2377 43.5785 61.681C42.6593 62.1402 41.4233 62.8211 40.8053 63.2011C40.2031 63.5653 38.9829 64.3729 38.1113 64.9904C37.2398 65.6238 35.8136 66.748 34.942 67.4922C34.0704 68.2522 32.7868 69.4398 32.0896 70.1524C31.3923 70.8649 30.6951 71.4349 30.5525 71.4349C30.394 71.4349 29.8869 71.3399 29.4432 71.2132C28.9836 71.0866 27.9219 70.7699 27.0979 70.4849C26.2738 70.1999 25.4498 69.899 25.2755 69.8198C24.9744 69.6773 25.0061 69.614 25.6717 68.949C26.0678 68.5531 27.1296 67.5872 28.0487 66.7955C28.9678 66.0038 30.394 64.8479 31.218 64.2304C32.042 63.6287 33.6109 62.5836 34.7043 61.9344C35.7977 61.301 37.4775 60.3985 38.4283 59.9393C39.3791 59.4801 40.7736 58.8942 41.5184 58.6092C42.2632 58.34 43.832 57.8333 45.0047 57.485C46.1773 57.1366 48.0789 56.6933 49.204 56.4716C50.345 56.2657 52.0089 55.9807 52.928 55.854C53.8471 55.7115 56.1291 55.5057 57.999 55.3632C59.8689 55.2365 62.024 55.1257 62.8005 55.1257C63.5612 55.1257 64.2109 55.0782 64.2426 55.0148C64.2901 54.9357 63.5612 54.7615 62.6262 54.6031C61.6912 54.4606 60.0432 54.2231 58.9498 54.1123C57.8563 53.9856 55.9706 53.8431 54.7504 53.7798C53.5302 53.7323 51.4701 53.7639 50.1548 53.8589C48.8554 53.9381 47.0964 54.1281 46.2724 54.2548C45.4484 54.3815 43.8954 54.6823 42.8337 54.9198C41.7719 55.1732 40.8687 55.3315 40.837 55.284C40.7894 55.2365 40.7419 54.0965 40.7102 52.7505C40.6627 50.6288 40.6785 50.2962 40.8845 50.3438C41.0113 50.3754 41.9146 50.3121 42.8654 50.2329C43.8162 50.1379 45.2265 49.8846 46.003 49.6629C46.7636 49.4412 47.9046 49.0137 48.5385 48.7128C49.1565 48.3961 50.1707 47.7786 50.7887 47.3194C51.3909 46.8602 52.2625 46.0368 52.722 45.4668C53.1974 44.8968 53.8313 43.9309 54.1482 43.3292C54.4651 42.7275 54.893 41.7141 55.099 41.1124C55.3209 40.5107 55.5269 39.434 55.5744 38.7373L55.6695 37.4705C53.1816 37.6605 51.9772 37.8189 51.3909 37.9455C50.7887 38.0564 49.8854 38.3097 49.3625 38.4997C48.8396 38.6739 47.9521 39.0856 47.3817 39.4023C46.8112 39.7031 45.9555 40.2573 45.4801 40.6374C45.0047 41.0016 44.2916 41.6508 43.9112 42.0783C43.5309 42.5058 42.897 43.3609 42.485 43.9626C42.0889 44.5643 41.5342 45.6093 41.249 46.2585C40.9637 46.9077 40.6944 47.4778 40.6468 47.5253C40.6151 47.5728 40.5359 45.4985 40.4725 42.9333C40.425 40.3682 40.4091 38.0564 40.425 37.7872L40.4883 37.3122C42.9446 37.138 44.1965 36.9322 44.8462 36.7422C45.4959 36.568 46.5418 36.1563 47.144 35.8396C47.7937 35.4912 48.7445 34.7787 49.4417 34.1295C50.1231 33.4803 50.8996 32.5144 51.28 31.8969C51.6286 31.311 52.0723 30.4243 52.2625 29.9493C52.4368 29.4742 52.6745 28.7934 52.7537 28.445C52.8488 28.0967 52.9914 27.2733 53.0706 26.6241C53.1499 25.9749 53.1657 25.3415 53.1182 25.2148C53.0231 25.0565 52.7379 25.0248 51.7395 25.104C51.0423 25.1673 49.9013 25.3257 49.204 25.4523C48.4276 25.6107 47.3817 25.959 46.5101 26.3866C45.7178 26.7666 44.6719 27.4158 44.1806 27.8433C43.6735 28.255 42.9763 28.9992 42.6118 29.4742C42.2473 29.9493 41.7085 30.8202 41.4233 31.4219C41.1222 32.0077 40.8053 32.8153 40.7102 33.2428C40.5834 33.7812 40.4883 33.9237 40.3933 33.7495C40.314 33.6228 40.2506 32.3244 40.2506 30.8677V28.2075C41.3124 26.9249 41.8512 26.0382 42.1364 25.4365C42.4375 24.819 42.7703 23.7739 42.897 23.0614C43.0714 22.0797 43.0714 21.5571 42.9446 20.6863C42.8495 20.0846 42.5643 19.0712 42.3107 18.4695C42.0572 17.8678 41.4233 16.791 40.9004 16.0943C40.3933 15.3976 39.696 14.5742 39.3791 14.2734L38.7927 13.7192C37.3982 15.2234 36.701 16.1735 36.3365 16.791C35.9562 17.4086 35.4966 18.3586 35.3223 18.9128C35.1322 19.4512 34.9578 20.4646 34.9103 21.1613C34.8469 22.0322 34.9103 22.7764 35.0846 23.5364C35.2431 24.1381 35.6076 25.104 35.9403 25.674C36.2573 26.2441 36.8119 27.0674 37.1764 27.495L37.8261 28.2867C38.0163 32.8311 38.0321 34.1137 37.9846 34.0662C37.937 34.0187 37.6676 33.4486 37.3982 32.7994C37.113 32.1502 36.5901 31.1527 36.2097 30.5826C35.8453 30.0126 35.0529 29.0942 34.4508 28.5558C33.6901 27.8591 32.9136 27.3366 31.9311 26.8616C31.1388 26.4816 29.9661 26.0541 29.3164 25.9115C28.6667 25.769 27.399 25.5949 26.4957 25.5473L24.8793 25.4365C24.8793 26.7191 24.9903 27.6216 25.1329 28.255C25.2755 28.8725 25.6558 29.9651 25.9728 30.6618C26.2897 31.3585 26.8919 32.3561 27.288 32.8786C27.6842 33.4011 28.2864 34.082 28.635 34.3987C28.9678 34.7312 29.665 35.2537 30.188 35.5862C30.7109 35.9029 31.5825 36.3463 32.1371 36.5521C32.6759 36.7421 33.7852 37.0272 34.5934 37.1538C35.3857 37.2805 36.4791 37.3913 37.0021 37.3913H37.9529C38.143 40.764 38.1906 43.1075 38.1906 44.7543V47.7628C37.1447 45.6726 36.6059 44.7543 36.3524 44.3584C36.083 43.9626 35.4333 43.1867 34.9262 42.6325C34.4191 42.0783 33.5633 41.3024 33.0404 40.9224C32.5175 40.5265 31.535 39.9248 30.8694 39.5923C30.188 39.244 29.1104 38.8323 28.4924 38.6581C27.8585 38.4839 26.4482 38.2622 25.3547 38.1514C24.2613 38.0564 23.2471 38.0089 23.1045 38.0722C22.8985 38.1514 22.8193 38.3572 22.8193 38.7848C22.8193 39.1015 22.9936 40.0198 23.2313 40.7957C23.4531 41.5874 23.9127 42.7592 24.2455 43.4084C24.5941 44.0576 25.2438 45.0551 25.7192 45.6251C26.1788 46.1952 26.9869 46.9869 27.494 47.3827C28.017 47.7786 28.841 48.3328 29.3164 48.602C29.7918 48.8712 30.7585 49.2828 31.4557 49.5204C32.153 49.742 33.3256 50.0271 34.0704 50.1537C34.8152 50.2804 36.083 50.3754 36.8911 50.3754H38.349V55.4424C37.7944 55.3157 36.495 55.1732 35.1005 55.0307C33.183 54.8407 31.7093 54.7932 29.0787 54.8565C27.1613 54.9198 25.022 55.0307 24.3247 55.1257C23.6274 55.2207 22.0111 55.5057 20.7275 55.759C19.4281 56.0282 17.5898 56.4874 16.639 56.7883C15.4347 57.1683 14.8959 57.4216 14.8959 57.58C14.8959 57.7067 15.0068 58.0708 15.1336 58.3717C15.2604 58.6725 15.4664 58.8942 15.5773 58.8625C15.6724 58.8309 16.1636 58.7042 16.639 58.5617C17.1144 58.435 18.5882 58.1342 19.8876 57.9125C21.2029 57.6908 23.3739 57.4375 24.7209 57.3425C26.7334 57.2 27.7001 57.2 30.0771 57.4058C31.6617 57.5483 33.0879 57.7067 33.2464 57.7542C33.4366 57.8333 33.0404 58.055 31.9311 58.5142C31.0596 58.8784 29.5224 59.5909 28.5241 60.0976C27.5257 60.5885 25.8143 61.6019 24.7209 62.3302C23.6274 63.0586 22.1062 64.1987 21.3138 64.8479C20.5215 65.5129 19.8718 66.0988 19.8559 66.1621C19.8401 66.2413 20.2046 66.6055 20.68 67.0013C21.1395 67.3972 21.5357 67.7614 21.5357 67.8406C21.5515 67.9039 21.0761 67.6506 20.4898 67.2864C19.8876 66.9222 18.921 66.273 18.303 65.8296C17.7008 65.4021 16.5598 64.4679 15.7675 63.7712C14.9751 63.0745 13.8342 61.9661 13.2162 61.3169C12.5981 60.6518 11.6156 59.4801 11.0293 58.6884C10.4271 57.9125 9.57142 56.6299 9.09602 55.8382C8.63646 55.0623 7.90751 53.6689 7.4638 52.7505C7.03594 51.8322 6.43377 50.3754 6.13268 49.5045C5.83159 48.6336 5.41958 47.2877 5.22941 46.496C5.03925 45.7202 4.78571 44.5009 4.67478 43.8042C4.54801 43.1075 4.35785 41.5082 4.26277 40.2415C4.1043 38.4522 4.1043 37.4705 4.26277 35.8079C4.3737 34.6362 4.54801 33.1003 4.67478 32.4036C4.78571 31.7069 5.03925 30.5035 5.22941 29.7118C5.41958 28.9359 5.81574 27.6058 6.10098 26.7824C6.38622 25.959 6.97255 24.534 7.41626 23.6156C7.84412 22.6972 8.60476 21.2721 9.11186 20.4487C9.61895 19.6254 10.5222 18.2636 11.1402 17.4402C11.7583 16.6169 13.2637 14.9384 14.4839 13.7192C15.7833 12.4366 17.3838 11.0274 18.303 10.3782C19.1745 9.76064 20.4581 8.90559 21.1554 8.4939C21.8526 8.08221 22.8827 7.52802 23.4531 7.27468C24.0236 7.0055 24.8001 6.65714 25.1963 6.48297C25.5924 6.30879 26.3689 5.99211 26.9394 5.77043C27.5099 5.56458 28.8727 5.15288 29.9978 4.85203C31.1071 4.55118 32.2322 4.29784 32.4858 4.29784H32.9612C32.9612 0.545126 32.9136 0.0225929 32.771 0.0384271C32.6601 0.0542613 32.2164 0.117602 31.7727 0.180939ZM181.128 9.55479C180.653 9.61812 179.939 9.83982 179.543 10.0457C179.147 10.2515 178.608 10.6949 178.339 11.0432C178.085 11.3757 177.768 12.0249 177.657 12.4525C177.499 13.0542 177.499 13.45 177.626 14.1151C177.721 14.5901 178.006 15.3026 178.26 15.6985C178.561 16.1735 179.004 16.5694 179.575 16.8702C180.225 17.2186 180.684 17.3452 181.603 17.4086C182.427 17.4561 183.061 17.4086 183.663 17.2344C184.139 17.0919 184.82 16.7435 185.153 16.4585C185.486 16.1735 185.914 15.651 186.104 15.3026C186.357 14.8118 186.437 14.3842 186.421 13.4817C186.421 12.6583 186.326 12.1199 186.135 11.7399C185.977 11.4391 185.66 10.9799 185.422 10.7424C185.201 10.489 184.725 10.1407 184.376 9.96649C184.028 9.77648 183.346 9.58646 182.871 9.53896C182.38 9.47562 181.603 9.49145 181.128 9.55479ZM264.799 9.53896C264.323 9.58646 263.721 9.7448 263.452 9.87147C263.182 10.014 262.738 10.3148 262.437 10.5682C262.152 10.8215 261.756 11.3124 261.598 11.6607C261.423 12.0091 261.249 12.6108 261.201 13.0067C261.154 13.4342 261.217 14.0834 261.376 14.6376C261.566 15.3026 261.804 15.7143 262.342 16.2527C262.881 16.791 263.293 17.0285 263.975 17.2186C264.577 17.3927 265.274 17.4561 266.066 17.4086C266.922 17.3611 267.477 17.2344 268.047 16.9494C268.491 16.7277 269.061 16.2685 269.331 15.9202C269.6 15.5876 269.901 14.9226 270.012 14.4317C270.186 13.7192 270.186 13.3867 270.012 12.6108C269.885 12.0091 269.632 11.4232 269.315 11.0274C269.03 10.6632 268.459 10.2198 267.952 9.96649C267.492 9.74481 266.779 9.52314 266.383 9.49147C265.987 9.4598 265.274 9.47562 264.799 9.53896ZM95.73 10.584C95.6507 10.7424 93.4956 16.4585 90.9601 23.2989C88.4088 30.1393 84.9542 39.434 83.2745 43.9626C81.5789 48.4911 80.1685 52.323 80.121 52.4814C80.0259 52.7347 80.2953 52.7506 84.2411 52.7189L88.4563 52.6714C89.5339 49.7262 90.247 47.7786 90.7224 46.4644L91.594 44.0417L110.055 44.1209L113.225 52.7505C120.055 52.7505 121.544 52.6872 121.544 52.5922C121.544 52.513 118.47 44.1842 114.714 34.1137C110.959 24.0273 107.441 14.5742 106.902 13.0858L105.888 10.394C96.2529 10.3148 95.8726 10.3307 95.73 10.584ZM100.674 18.4061C100.769 18.2003 100.864 18.0578 100.88 18.0894C100.896 18.1211 102.465 22.428 104.351 27.6533C106.252 32.8786 107.821 37.2805 107.853 37.4389C107.916 37.6922 107.488 37.708 100.785 37.708C96.8709 37.708 93.6382 37.6764 93.6382 37.6289C93.6224 37.5814 94.3989 35.4279 95.3655 32.8469C96.3163 30.2501 97.8693 26.0224 98.8042 23.4572C99.7392 20.8921 100.579 18.612 100.674 18.4061ZM203.551 10.5207C203.503 10.6157 202.489 13.3867 201.269 16.6485C200.065 19.9104 196.594 29.2526 193.568 37.3913C190.541 45.5301 188.037 52.323 188.005 52.4814C187.942 52.7347 188.227 52.7505 192.11 52.7505H196.262C198.448 46.7969 199.177 44.8334 199.304 44.5643L199.51 44.0417H217.892C218.273 45.0868 218.97 47.0344 219.699 49.0295L221.03 52.6714L237.146 52.7664C242.423 45.1343 244.008 42.9333 244.087 42.9333C244.15 42.9333 245.719 45.1501 247.573 47.8419L250.933 52.7664C257.509 52.7505 259.411 52.7189 259.411 52.6714C259.411 52.6239 257.16 49.2987 254.387 45.2768C251.63 41.2391 249.19 37.6605 248.936 37.3122L248.508 36.6788C256.463 25.4524 258.745 22.1272 258.698 22.0322C258.65 21.9372 257.129 21.8738 254.625 21.8896C251.773 21.8896 250.536 21.953 250.362 22.0797C250.22 22.1905 248.762 24.2331 247.145 26.6241C245.513 29.0151 244.134 30.9943 244.071 31.026C244.008 31.0418 242.566 29.0309 240.87 26.5449C239.174 24.0589 237.669 21.9847 237.542 21.9372C237.415 21.8897 235.53 21.9055 233.343 21.953C231.172 22.0163 229.365 22.0955 229.349 22.1272C229.318 22.1588 231.505 25.3099 234.199 29.1259C236.877 32.9261 239.174 36.188 239.285 36.3621C239.476 36.6471 239.016 37.3913 234.357 44.2317C229.698 51.0879 229.207 51.753 229.048 51.4363C228.953 51.2463 225.499 41.9991 221.379 30.8993C217.258 19.7995 213.804 10.6157 213.709 10.5048C213.566 10.3465 212.441 10.299 208.574 10.3148C204.755 10.3148 203.599 10.3623 203.551 10.5207ZM205.088 27.78C207.037 22.4439 208.669 18.1369 208.717 18.2003C208.78 18.2636 210.143 21.9847 211.76 26.4657C213.392 30.9468 214.945 35.2854 215.23 36.0771C215.515 36.8846 215.721 37.5814 215.69 37.6289C215.658 37.6764 212.457 37.708 208.59 37.708C204.74 37.708 201.57 37.6605 201.57 37.5972C201.57 37.518 203.155 33.1161 205.088 27.78ZM131.765 21.6205C131.163 21.7313 130.26 21.953 129.785 22.1113C129.309 22.2538 128.453 22.6339 127.883 22.9189C127.312 23.2039 126.346 23.8689 125.744 24.3756C125.141 24.8823 124.333 25.6899 123.985 26.1649C123.62 26.6399 123.097 27.4158 122.828 27.8908C122.574 28.3658 122.131 29.3317 121.877 30.0284C121.624 30.7251 121.307 31.8969 121.164 32.6411C121.037 33.3853 120.879 34.4145 120.831 34.937C120.784 35.4596 120.815 36.7897 120.895 37.9139C120.99 39.0223 121.18 40.4474 121.322 41.0807C121.465 41.6983 121.782 42.7433 122.036 43.3767C122.289 43.9942 122.78 44.9918 123.145 45.5935C123.509 46.1794 124.127 47.0344 124.539 47.5094C124.935 47.9686 125.696 48.6811 126.219 49.0612C126.742 49.457 127.677 50.0112 128.279 50.3121C128.881 50.5971 130.038 50.9929 130.815 51.183C131.94 51.4521 132.685 51.5313 134.301 51.5155C135.775 51.4996 136.694 51.4205 137.549 51.1988C138.199 51.0246 139.245 50.6446 139.847 50.3279C140.449 50.0271 141.337 49.4254 141.812 49.0137C142.288 48.5862 142.906 47.8894 143.207 47.4461L143.73 46.6544C143.73 53.0197 143.666 54.1915 143.476 54.9673C143.349 55.5374 143.048 56.3449 142.811 56.7724C142.573 57.2 142.034 57.8808 141.59 58.2767C141.036 58.7992 140.465 59.1317 139.689 59.4009C138.722 59.7493 138.31 59.7968 136.519 59.7968C134.491 59.7968 134.443 59.7809 133.287 59.2426C132.558 58.8942 131.892 58.435 131.512 58.0233C131.163 57.6433 130.72 56.9625 130.498 56.5191C130.292 56.0599 130.038 55.2999 129.943 54.8565L129.785 54.0173H122.416C122.59 55.7907 122.796 56.8199 122.97 57.4216C123.161 58.0392 123.589 58.9892 123.921 59.5593C124.254 60.1293 124.967 61.016 125.522 61.5385C126.076 62.0611 126.996 62.7578 127.566 63.0744C128.137 63.407 129.135 63.8503 129.785 64.072C130.434 64.2937 131.575 64.5945 132.32 64.7212C133.144 64.8796 134.618 64.9746 136.123 64.9746C137.629 64.9746 139.166 64.8796 140.085 64.7212C140.909 64.5945 142.097 64.3095 142.7 64.1037C143.302 63.8978 144.205 63.5336 144.68 63.312C145.156 63.0903 145.996 62.5836 146.55 62.1877C147.089 61.7919 147.929 60.9843 148.404 60.3985C148.896 59.7968 149.53 58.8626 149.815 58.2925C150.116 57.7225 150.528 56.6933 150.75 55.9966C150.972 55.2999 151.225 54.1756 151.32 53.5106C151.431 52.6872 151.495 47.2244 151.495 37.2013V22.1113C148.61 21.9372 146.962 21.9372 145.996 22.0005L144.205 22.1113L144.126 27.0041C143.238 25.5474 142.478 24.6606 141.876 24.0906C141.226 23.4731 140.37 22.8555 139.72 22.5547C139.134 22.2697 138.247 21.9213 137.755 21.7946C137.248 21.6521 135.949 21.5096 134.856 21.478C133.588 21.4305 132.479 21.478 131.765 21.6205ZM134.459 27.1783C134.982 27.0516 135.727 26.9566 136.123 26.9566C136.519 26.9566 137.343 27.0516 137.946 27.1941C138.548 27.3208 139.404 27.6216 139.831 27.8592C140.243 28.0967 140.941 28.6509 141.353 29.0784C141.765 29.5217 142.319 30.2976 142.573 30.8202C142.842 31.3427 143.191 32.2294 143.349 32.7994C143.571 33.5911 143.635 34.4145 143.65 36.4413C143.65 38.1514 143.571 39.3548 143.429 39.9248C143.318 40.3999 142.985 41.3024 142.715 41.9041C142.414 42.585 141.891 43.3609 141.353 43.9309C140.782 44.5484 140.148 45.0076 139.499 45.3243C138.944 45.5776 138.025 45.8627 137.439 45.9735C136.646 46.116 136.028 46.116 135.172 46.0052C134.443 45.9102 133.572 45.641 132.922 45.3401C132.273 45.0393 131.544 44.5326 131.116 44.0892C130.72 43.6617 130.181 42.9808 129.943 42.5375C129.705 42.11 129.341 41.2549 129.151 40.6374C128.865 39.7665 128.77 39.0064 128.707 37.1538C128.659 35.3012 128.691 34.4779 128.897 33.4328C129.056 32.6886 129.42 31.5644 129.721 30.9468C130.054 30.2343 130.561 29.4901 131.052 28.9992C131.496 28.5717 132.225 28.0175 132.685 27.7958C133.128 27.5583 133.936 27.2891 134.459 27.1783ZM283.102 21.6363C282.325 21.763 281.168 22.0163 280.566 22.2063C279.964 22.3805 278.886 22.8397 278.205 23.1881C277.397 23.6156 276.604 24.2014 276.018 24.8031C275.384 25.4524 274.877 26.1649 274.465 27.0199C274.132 27.7166 273.784 28.7142 273.689 29.2367C273.593 29.7593 273.514 30.646 273.514 31.216C273.514 31.786 273.625 32.7044 273.736 33.2745C273.863 33.8445 274.116 34.652 274.322 35.0954C274.528 35.5229 275.004 36.2038 275.352 36.5996C275.717 36.9955 276.541 37.613 277.175 37.9772C277.967 38.4364 278.95 38.8006 280.17 39.1173C281.168 39.3865 283.482 39.814 285.32 40.0832C287.158 40.3682 289.076 40.6849 289.599 40.8274C290.122 40.954 290.803 41.1916 291.104 41.3499C291.405 41.5083 291.849 41.8408 292.087 42.0941C292.324 42.3316 292.594 42.7275 292.673 42.9808C292.768 43.2184 292.847 43.7884 292.847 44.2476C292.847 44.6909 292.705 45.356 292.562 45.7043C292.404 46.0527 291.96 46.6069 291.564 46.9394C291.12 47.3353 290.47 47.6678 289.757 47.8895C288.87 48.1586 288.268 48.2378 286.746 48.222C285.447 48.222 284.575 48.1428 283.973 47.9686C283.498 47.8261 282.753 47.4619 282.325 47.1769C281.77 46.8127 281.39 46.3694 281.01 45.7043C280.724 45.1818 280.439 44.3742 280.376 43.915L280.249 43.0917H272.722C272.722 44.1367 272.817 44.8968 272.944 45.4668C273.055 46.0368 273.387 47.0027 273.673 47.6044C274.069 48.4278 274.497 49.0137 275.4 49.9004C276.256 50.7396 276.953 51.2621 277.793 51.6738C278.443 51.9905 279.52 52.4022 280.17 52.5764C280.82 52.7664 282.071 53.0197 282.943 53.1464C283.815 53.2731 285.415 53.3839 286.509 53.3839C287.602 53.3839 289.139 53.3047 289.916 53.2097C290.692 53.1147 292.023 52.8614 292.847 52.6555C293.671 52.4497 294.955 51.9747 295.7 51.6105C296.698 51.1196 297.332 50.6446 298.172 49.8212C298.932 49.0612 299.439 48.3961 299.772 47.6836C300.042 47.1136 300.343 46.306 300.454 45.8627C300.549 45.4351 300.628 44.3901 300.628 43.5667C300.628 42.7275 300.517 41.6508 300.374 41.1124C300.232 40.5899 299.931 39.814 299.693 39.3865C299.455 38.9589 298.901 38.2464 298.457 37.803C298.013 37.3597 297.158 36.7422 296.555 36.4255C295.953 36.1088 295.002 35.6971 294.432 35.5229C293.861 35.3329 292.895 35.0796 292.293 34.9529C291.69 34.8104 289.504 34.4462 287.459 34.1295C284.987 33.7495 283.466 33.4486 282.943 33.2111C282.388 32.9736 282.024 32.6728 281.755 32.2294C281.422 31.7069 281.358 31.4219 281.358 30.4085C281.358 29.3476 281.422 29.1259 281.834 28.4292C282.214 27.8433 282.547 27.5425 283.26 27.1783C284.116 26.7349 284.338 26.7032 286.097 26.6557C287.602 26.6082 288.236 26.6557 289.044 26.8774C289.615 27.0358 290.343 27.3683 290.676 27.6058C291.009 27.875 291.421 28.3975 291.659 28.8884C291.881 29.3317 292.118 30.0284 292.182 30.4243L292.308 31.1368L299.82 31.216C299.82 30.2976 299.709 29.5376 299.566 28.92C299.439 28.3183 299.075 27.3208 298.742 26.7191C298.425 26.1174 297.807 25.2623 297.364 24.8348C296.936 24.3915 296.223 23.8056 295.779 23.5364C295.351 23.2514 294.479 22.8397 293.877 22.5864C293.275 22.3488 292.118 22.0163 291.342 21.8422C290.375 21.6363 289.044 21.5255 287.222 21.478C285.32 21.4305 284.1 21.478 283.102 21.6363ZM169.877 21.7313C169.481 21.8105 168.72 22.0955 168.181 22.3488C167.627 22.618 166.818 23.1564 166.375 23.5839C165.931 23.9956 165.36 24.6448 165.107 25.0407C164.869 25.4365 164.41 26.3232 164.093 27.0199L163.538 28.2867V22.1113C160.036 21.9372 158.388 21.8897 157.596 21.9213L156.169 21.953L156.09 52.7505H163.855C163.95 37.1063 163.982 36.0771 164.251 35.0954C164.41 34.4937 164.679 33.6703 164.837 33.2745C165.012 32.8786 165.408 32.1819 165.725 31.7069C166.058 31.2318 166.676 30.5668 167.104 30.2343C167.547 29.9176 168.292 29.4901 168.767 29.2842C169.496 28.9992 170.051 28.92 172.254 28.8567L174.868 28.7617V21.953C173.521 21.668 172.555 21.5888 171.858 21.5888C171.16 21.5888 170.273 21.6521 169.877 21.7313ZM178.196 21.9846C178.117 22.0322 178.07 28.9834 178.085 37.423L178.117 52.7505H185.882V22.1113C183.125 21.9213 181.413 21.8738 180.32 21.8738C179.226 21.8738 178.275 21.9213 178.196 21.9846ZM263.103 21.9846L261.788 22.0322V52.7505H269.553L269.632 22.0797C266.558 21.9213 265.385 21.8896 265.036 21.9055C264.688 21.9213 263.816 21.953 263.103 21.9846ZM74.5588 68.8223C74.2102 68.949 73.7506 69.1865 73.5287 69.3448C73.3069 69.5032 73.0058 69.8832 72.8632 70.184C72.6889 70.5165 72.5779 71.0866 72.5779 71.6408C72.5779 72.4008 72.6413 72.6225 73.0217 73.0342C73.2594 73.3034 73.7347 73.62 74.0834 73.7309C74.432 73.8576 75.2402 74.0317 75.8741 74.1267C76.4921 74.2059 77.1893 74.3643 77.4112 74.4434C77.633 74.5384 77.9183 74.7759 78.0451 74.9976C78.2194 75.2826 78.2352 75.5202 78.1401 75.8368C78.0767 76.0744 77.8391 76.391 77.633 76.5494C77.3636 76.7552 76.9675 76.8344 76.2227 76.8344C75.4462 76.8344 75.0976 76.7552 74.7965 76.5335C74.5746 76.3752 74.3211 75.9952 74.226 75.6943C74.0517 75.1718 74.02 75.156 73.1167 75.1085L72.1818 75.061C72.3878 76.1219 72.5779 76.6285 72.7364 76.8977C72.8949 77.1669 73.3386 77.5469 73.7189 77.7528C74.226 78.0536 74.7014 78.1645 75.668 78.212C76.397 78.2595 77.2844 78.212 77.7281 78.1011C78.1718 77.9903 78.7582 77.7053 79.0592 77.4836C79.3603 77.2461 79.709 76.8186 79.8199 76.5494C79.9308 76.2644 80.0259 75.6943 80.0259 75.2826C80.0259 74.8076 79.915 74.3326 79.709 74.0159C79.5188 73.6992 79.0909 73.3667 78.6472 73.1609C78.2194 72.9708 77.2844 72.7175 76.5396 72.6067C75.7948 72.48 75.1451 72.385 75.0817 72.385C75.0025 72.385 74.8123 72.2425 74.638 72.0683C74.4637 71.8941 74.3211 71.5774 74.3211 71.3558C74.3211 71.1341 74.5271 70.7541 74.7806 70.4849C75.1768 70.089 75.367 70.0098 76.0167 70.0098C76.4287 70.0098 76.9516 70.1049 77.1735 70.2157C77.3953 70.3265 77.6964 70.6749 77.8549 71.0074C78.1243 71.5774 78.1401 71.5933 78.9959 71.5933H79.8674C79.709 70.8016 79.5663 70.374 79.4554 70.1365C79.3286 69.8832 78.9959 69.519 78.7265 69.3131C78.4412 69.1073 77.9183 68.8539 77.5696 68.7589C77.221 68.6639 76.5396 68.5848 76.0642 68.5848C75.5888 68.6006 74.9074 68.6956 74.5588 68.8223ZM136.519 68.8698C136.361 69.0281 136.234 69.3131 136.25 69.5032C136.266 69.6932 136.393 69.9623 136.519 70.089C136.646 70.2157 136.995 70.3265 137.28 70.3265C137.581 70.3424 137.882 70.2315 138.025 70.0574C138.136 69.899 138.247 69.5982 138.231 69.3765C138.215 69.1548 138.088 68.8856 137.914 68.7748C137.755 68.6639 137.439 68.5848 137.217 68.5848C136.995 68.5848 136.678 68.7114 136.519 68.8698ZM192.617 68.7273C192.347 68.7906 191.904 68.9648 191.634 69.1073C191.349 69.2498 190.953 69.5981 190.763 69.8832C190.462 70.3107 190.398 70.6274 190.398 71.5299C190.398 72.4483 190.462 72.7333 190.715 73.0183C190.889 73.2084 191.238 73.4775 191.508 73.6042C191.777 73.7467 192.633 73.9526 193.409 74.0792C194.201 74.2059 195.073 74.4118 195.358 74.5384C195.696 74.6862 195.897 74.9079 195.96 75.2035C196.008 75.441 195.976 75.7893 195.881 75.9952C195.786 76.1852 195.548 76.4544 195.358 76.581C195.121 76.7394 194.629 76.8344 193.964 76.8344C193.187 76.8344 192.839 76.771 192.538 76.5335C192.316 76.3752 192.062 75.9952 191.967 75.6943C191.793 75.1718 191.761 75.156 190.889 75.1243L190.002 75.0768C190.145 75.9952 190.287 76.4385 190.398 76.6602C190.509 76.8819 190.81 77.2461 191.095 77.4994C191.365 77.7369 191.856 77.9903 192.189 78.0853C192.506 78.1645 193.314 78.2436 193.964 78.2436C194.645 78.2436 195.453 78.1486 195.865 78.0061C196.262 77.8636 196.753 77.5944 196.943 77.4044C197.149 77.2144 197.418 76.8661 197.545 76.6286C197.672 76.3752 197.767 75.8052 197.767 75.3618C197.767 74.8023 197.661 74.3537 197.45 74.0159C197.276 73.7309 196.848 73.3509 196.499 73.1767C196.151 73.0025 195.168 72.7492 194.328 72.6067C193.473 72.4641 192.648 72.29 192.506 72.2108C192.347 72.1316 192.173 71.91 192.126 71.7199C192.078 71.5141 192.126 71.1499 192.236 70.8807C192.363 70.6274 192.633 70.3265 192.854 70.1998C193.076 70.089 193.599 70.0098 194.075 70.0415C194.677 70.0732 194.978 70.184 195.295 70.4849C195.517 70.7066 195.739 71.0391 195.786 71.2449C195.85 71.5458 195.96 71.5933 196.737 71.5933C197.323 71.5933 197.608 71.5299 197.608 71.4033C197.608 71.2924 197.529 70.9441 197.45 70.6432C197.355 70.3424 197.054 69.8515 196.769 69.5665C196.468 69.2656 195.945 68.949 195.469 68.8064C195.041 68.6798 194.328 68.5848 193.885 68.6006C193.457 68.6164 192.886 68.6639 192.617 68.7273ZM225.578 68.8698C225.419 69.0281 225.293 69.2973 225.309 69.4715C225.324 69.6298 225.451 69.899 225.61 70.0415C225.768 70.1998 226.133 70.3265 226.418 70.3265C226.766 70.3265 227.004 70.2157 227.163 69.9782C227.289 69.7723 227.4 69.519 227.4 69.424C227.4 69.3131 227.258 69.0756 227.083 68.9015C226.909 68.7273 226.56 68.5848 226.307 68.5848C226.069 68.5848 225.736 68.7114 225.578 68.8698ZM114.572 73.2084C113.653 75.6627 112.892 77.7686 112.876 77.8794C112.844 78.0219 113.082 78.0853 113.748 78.0853H114.651L115.301 76.2644L119.405 76.1694L120.055 78.0061L122.02 78.0853C121.687 77.2936 120.895 75.1876 120.055 72.9075L118.533 68.7431H116.22L114.572 73.2084ZM116.648 72.4958C117.028 71.4824 117.377 70.6907 117.424 70.7382C117.472 70.7857 117.82 71.6724 118.185 72.6858C118.565 73.6992 118.866 74.5701 118.866 74.6493C118.866 74.7126 118.185 74.7601 117.361 74.7601C116.236 74.7601 115.871 74.7126 115.903 74.5701C115.935 74.4593 116.267 73.525 116.648 72.4958ZM155.155 73.4142V78.0853H156.898V68.7431H155.155V73.4142ZM244.214 73.4142V78.0853C245.735 78.0853 245.798 78.0536 245.798 77.6894V77.2936C246.527 77.9111 246.939 78.1328 247.177 78.1803C247.415 78.2436 247.985 78.2595 248.413 78.2278C248.968 78.1803 249.396 78.0378 249.76 77.7528C250.061 77.5311 250.441 77.0719 250.616 76.7236C250.774 76.391 250.949 75.6468 250.98 75.0768C251.028 74.5068 250.98 73.7467 250.885 73.3825C250.79 73.0025 250.473 72.4483 250.188 72.1158C249.903 71.7991 249.443 71.4508 249.158 71.3241C248.873 71.2132 248.366 71.1182 248.017 71.1182C247.668 71.1182 247.225 71.1974 247.019 71.2924C246.828 71.3874 246.496 71.6249 246.305 71.8149L245.941 72.1475L245.957 68.7431H244.214V73.4142ZM246.591 72.86C246.802 72.6489 247.119 72.5433 247.541 72.5433C247.89 72.5433 248.318 72.6225 248.492 72.7017C248.667 72.7967 248.92 73.1609 249.063 73.5409C249.237 73.9842 249.285 74.4909 249.221 75.0768C249.174 75.5835 249.015 76.106 248.841 76.3435C248.667 76.5652 248.286 76.8027 248.001 76.8819C247.605 76.9769 247.32 76.9611 246.987 76.8027C246.717 76.6761 246.385 76.3277 246.226 76.0268C246.084 75.726 245.957 75.1401 245.957 74.7284C245.957 74.3009 246.02 73.7942 246.115 73.5725C246.195 73.3509 246.416 73.0342 246.591 72.86ZM251.979 73.4142V78.0853H253.722V68.7431H251.979V73.4142ZM266.288 68.9015C266.225 68.9965 266.225 71.0866 266.32 73.5725L266.478 78.0853H268.142L268.221 74.0476L272.738 73.9684V72.5433H268.142V70.3265H273.213V68.7431C267.73 68.7431 266.367 68.8064 266.288 68.9015ZM106.03 70.2474V71.2766C105.095 71.2766 105.08 71.3083 105.08 71.91C105.08 72.5117 105.095 72.5433 105.555 72.5433H106.03C106.03 75.5518 106.094 76.6919 106.189 77.0244C106.268 77.3411 106.506 77.7211 106.696 77.8478C106.934 78.0061 107.441 78.0853 108.201 78.0853H109.358C109.279 76.9294 109.247 76.8977 108.645 76.8186L108.011 76.7394L107.932 72.5433H109.358V71.2766H107.932L107.853 69.2973L106.046 69.2023L106.03 70.2474ZM158.943 70.2632V71.2924C158.023 71.2924 157.992 71.3241 157.992 71.9258C157.992 72.5116 158.023 72.5592 158.467 72.5592H158.943C158.943 75.5518 159.022 76.6919 159.101 77.0244C159.196 77.3569 159.418 77.7211 159.624 77.8636C159.862 78.022 160.369 78.1011 161.129 78.1011H162.27C162.191 76.9294 162.159 76.8977 161.557 76.8344L160.923 76.7552L160.844 72.5592H162.27V71.2924H160.844V69.234H158.943V70.2632ZM213.931 70.2632V71.2924C213.011 71.2924 212.98 71.3241 212.98 71.9258C212.98 72.5116 213.011 72.5592 213.455 72.5592H213.931C213.946 75.441 214.01 76.5652 214.089 76.9136C214.168 77.2619 214.406 77.6736 214.596 77.8161C214.881 78.0378 215.246 78.1011 216.117 78.1011H217.258C217.179 76.9294 217.147 76.8977 216.545 76.8344L215.911 76.7552L215.832 72.5592H217.258V71.2924H215.832V69.234H213.931V70.2632ZM282.309 69.329C282.246 69.3923 282.198 69.8515 282.214 70.3582L282.23 71.2924C281.311 71.2924 281.279 71.3241 281.279 71.9258C281.279 72.5116 281.311 72.5592 281.755 72.5592C282.214 72.5592 282.23 72.5908 282.262 73.2242C282.262 73.5884 282.293 74.5068 282.325 75.251C282.357 75.9793 282.42 76.8186 282.468 77.1036C282.515 77.3886 282.705 77.7211 282.911 77.8636C283.149 78.022 283.656 78.1011 284.417 78.1011H285.558V76.8344L284.211 76.7552L284.132 72.5592H285.558V71.2924H284.132V69.234C282.832 69.234 282.388 69.2815 282.309 69.329ZM83.8766 71.4349C83.5914 71.6091 83.2903 71.8783 83.2111 72.0366C83.0843 72.2583 83.0526 72.2108 83.0526 71.7991C83.0368 71.2924 83.0368 71.2924 82.2444 71.2924H81.4521V78.1011H83.0368C83.0368 75.0926 83.116 73.9526 83.1952 73.6201C83.2903 73.2875 83.5122 72.9233 83.7182 72.7808C83.9083 72.6542 84.1936 72.5433 84.3521 72.5433C84.4947 72.5592 84.7641 72.7017 84.9384 72.8758C85.2395 73.1609 85.2553 73.3984 85.2553 75.6468V78.1011H86.9984V73.5092C87.7274 72.765 88.0602 72.5433 88.2186 72.5433C88.3771 72.5433 88.6465 72.6542 88.8208 72.7808C89.1219 72.9867 89.1378 73.2084 89.1853 75.5518L89.217 78.1011H90.8017C90.8017 73.1609 90.7541 72.6067 90.5323 72.1316C90.3421 71.7516 90.0727 71.4666 89.7399 71.3399C89.4547 71.2132 89.011 71.1341 88.7416 71.1341C88.488 71.1341 88.076 71.2291 87.8383 71.3558C87.6006 71.4666 87.2678 71.7199 87.1252 71.91L86.84 72.2425C86.0635 71.3558 85.8258 71.2449 85.1761 71.1816C84.5739 71.1182 84.2728 71.1816 83.8766 71.4349ZM94.0502 71.3241C93.7967 71.4349 93.4639 71.5933 93.3371 71.6883C93.1945 71.7674 92.9568 72.0208 92.8142 72.2425C92.6716 72.4483 92.5448 72.8283 92.5448 73.0659C92.5448 73.4775 92.5765 73.5092 93.3371 73.5092C94.0344 73.5092 94.1453 73.4617 94.2879 73.1133C94.383 72.8917 94.589 72.6383 94.7633 72.5592C94.9376 72.4641 95.3021 72.4008 95.5557 72.4008C95.8251 72.4008 96.1737 72.5275 96.348 72.7175C96.5223 72.8917 96.6649 73.2084 96.6649 73.43C96.6649 73.6675 96.5699 73.8417 96.3956 73.8892C96.2371 73.9367 95.524 74.0317 94.8109 74.1267C94.0819 74.2217 93.2896 74.4118 93.0202 74.5701C92.7508 74.7284 92.4339 75.0768 92.3071 75.3618C92.1803 75.6468 92.0694 76.0268 92.0694 76.201C92.0694 76.3752 92.1803 76.7552 92.3071 77.0719C92.4339 77.3727 92.7825 77.7686 93.0677 77.9428C93.4798 78.212 93.7808 78.2595 94.7158 78.2278C95.73 78.1803 95.9043 78.117 96.3322 77.7053L96.8076 77.2302C96.9026 77.9744 96.9819 78.022 97.695 78.0536L98.4873 78.1011C98.3922 73.2875 98.3288 72.7017 98.107 72.3216C97.9644 72.0525 97.584 71.7041 97.2988 71.5299C96.9291 71.3294 96.3744 71.2132 95.6349 71.1816C95.0169 71.1499 94.3196 71.2132 94.0502 71.3241ZM95.4606 75.156C96.0786 75.061 96.6016 74.9659 96.6333 74.9501C96.6491 74.9343 96.6649 75.1718 96.6649 75.4885C96.6649 75.8685 96.5382 76.1852 96.2054 76.5494C95.8251 76.9611 95.619 77.0719 95.112 77.0719C94.6999 77.0719 94.3672 76.9611 94.1453 76.7552C93.9551 76.581 93.8125 76.3277 93.8125 76.201C93.8125 76.0585 93.9235 75.821 94.0661 75.6627C94.2404 75.4568 94.7316 75.2826 95.4606 75.156ZM102.734 71.3558C102.528 71.4983 102.227 71.8308 102.053 72.1158L101.736 72.6383V71.2924H100.151V78.1011H101.894C101.894 74.6651 101.958 74.0001 102.132 73.6675C102.259 73.3984 102.592 73.0817 102.845 72.955C103.115 72.8125 103.542 72.7175 103.796 72.7175C104.271 72.7175 104.271 72.7017 104.24 71.9575C104.192 71.2291 104.192 71.1974 103.637 71.1657C103.336 71.1341 102.924 71.2291 102.734 71.3558ZM133.477 71.3558C133.271 71.4983 132.97 71.8308 132.795 72.1158L132.479 72.6383V71.2924H130.894V78.1011H132.637C132.637 74.6651 132.7 74.0001 132.875 73.6675C133.001 73.3984 133.334 73.0817 133.588 72.955C133.857 72.8125 134.285 72.7175 134.539 72.7175C135.014 72.7175 135.014 72.7017 134.982 71.9575C134.935 71.2291 134.935 71.1974 134.38 71.1657C134.079 71.1341 133.667 71.2291 133.477 71.3558ZM141.432 71.4191C141.083 71.5774 140.576 71.9575 140.323 72.2425C140.022 72.575 139.752 73.1292 139.625 73.6675C139.514 74.1426 139.451 74.8551 139.499 75.251C139.546 75.631 139.72 76.2485 139.895 76.5969C140.069 76.9452 140.338 77.3411 140.513 77.4836C140.671 77.6419 141.067 77.8636 141.4 78.0061C141.717 78.1486 142.43 78.2595 142.985 78.2595C143.714 78.2595 144.158 78.1645 144.68 77.8953C145.14 77.6578 145.52 77.2936 145.758 76.8977C145.948 76.5494 146.107 76.0744 146.107 75.8368C146.107 75.4252 146.075 75.4093 145.314 75.4093C144.554 75.4093 144.522 75.4251 144.364 75.9635C144.253 76.3435 144.047 76.5969 143.698 76.771C143.349 76.9452 142.985 76.9927 142.589 76.9294C142.193 76.8661 141.876 76.6761 141.67 76.391C141.495 76.1535 141.305 75.6785 141.258 75.3301C141.21 74.9818 141.226 74.4118 141.289 74.0634C141.353 73.715 141.575 73.2242 141.781 72.9867C142.082 72.6383 142.288 72.5433 142.826 72.5433C143.238 72.5433 143.65 72.6542 143.888 72.8442C144.11 73.0025 144.348 73.3192 144.411 73.5567C144.522 73.9367 144.601 73.9842 145.314 73.9842C146.012 73.9842 146.107 73.9367 146.107 73.6675C146.107 73.4934 146.012 73.1134 145.901 72.8283C145.79 72.5433 145.457 72.1158 145.188 71.8783C144.902 71.6408 144.411 71.3716 144.094 71.2924C143.761 71.1974 143.175 71.1341 142.779 71.1341C142.383 71.1341 141.781 71.2607 141.432 71.4191ZM172.745 71.7516L172.159 72.4008L172.095 71.2924H170.511V78.1011H172.254C172.254 74.8551 172.333 74.1267 172.491 73.7467C172.634 73.43 172.935 73.0817 173.205 72.955C173.474 72.8125 173.902 72.7175 174.155 72.7175C174.631 72.7175 174.631 72.7017 174.599 71.9575C174.552 71.2132 174.552 71.2132 173.949 71.1499C173.411 71.1182 173.268 71.1816 172.745 71.7516ZM177.721 71.4191C177.372 71.5774 176.865 71.9575 176.612 72.2425C176.311 72.575 176.041 73.1292 175.914 73.6675C175.803 74.1426 175.74 74.8551 175.788 75.251C175.835 75.631 176.009 76.2485 176.184 76.5969C176.358 76.9452 176.627 77.3411 176.802 77.4836C176.96 77.6419 177.356 77.8636 177.689 78.0061C178.006 78.1486 178.719 78.2595 179.274 78.2595C179.987 78.2595 180.462 78.1486 180.969 77.8953C181.35 77.7053 181.793 77.3569 181.936 77.1511C182.095 76.9294 182.253 76.5811 182.301 76.391C182.396 76.0585 182.348 76.0427 181.651 76.0268C180.985 76.0268 180.843 76.0902 180.542 76.5019C180.32 76.8027 179.971 77.0244 179.67 77.0877C179.321 77.1511 178.941 77.0877 178.513 76.8819C178.038 76.6602 177.832 76.4544 177.689 75.9952C177.578 75.6627 177.515 75.3301 177.562 75.251C177.61 75.156 178.64 75.0926 180.145 75.0926H182.633C182.459 73.6675 182.221 72.955 181.999 72.5908C181.714 72.1 181.381 71.8149 180.779 71.5299C180.225 71.2607 179.67 71.1341 179.147 71.1341C178.719 71.1341 178.069 71.2607 177.721 71.4191ZM178.038 72.8125C178.355 72.5116 178.656 72.4008 179.1 72.4008C179.432 72.4008 179.844 72.4641 180.019 72.5592C180.193 72.6383 180.447 72.9233 180.573 73.1925C180.7 73.4459 180.811 73.7309 180.811 73.8259C180.811 73.9209 180.161 73.9842 179.147 73.9842C177.737 73.9842 177.499 73.9367 177.562 73.7467C177.61 73.6042 177.642 73.4459 177.626 73.3667C177.61 73.2875 177.8 73.0342 178.038 72.8125ZM208.147 71.3558C207.798 71.4983 207.386 71.7358 207.227 71.8783C207.069 72.0366 206.879 72.4166 206.8 72.7492C206.704 73.0817 206.689 73.5409 206.752 73.7784C206.8 74.0159 206.99 74.3801 207.18 74.5701C207.37 74.7759 207.735 74.9976 207.988 75.0926C208.257 75.1718 208.923 75.3143 209.494 75.3935C210.064 75.4885 210.619 75.6627 210.73 75.7577C210.84 75.8685 210.936 76.1219 210.936 76.3119C210.92 76.5019 210.761 76.771 210.571 76.9136C210.365 77.0402 209.937 77.1511 209.62 77.1511C209.192 77.1511 208.907 77.0244 208.622 76.7552C208.4 76.5335 208.226 76.2802 208.226 76.201C208.226 76.106 207.83 76.0427 207.354 76.0427C206.498 76.0427 206.483 76.0427 206.578 76.4702C206.625 76.7077 206.768 77.0719 206.895 77.2619C207.021 77.4519 207.418 77.7528 207.798 77.927C208.273 78.1645 208.812 78.2436 209.652 78.2436C210.508 78.2436 211.031 78.1645 211.522 77.927C211.886 77.7528 212.314 77.4203 212.457 77.1828C212.615 76.9452 212.726 76.4702 212.726 76.1218C212.726 75.7577 212.584 75.2826 212.409 75.0451C212.251 74.7918 211.839 74.4909 211.522 74.3643C211.189 74.2376 210.444 74.0634 209.858 73.9684C209.272 73.8734 208.733 73.7626 208.67 73.7309C208.606 73.6834 208.543 73.4617 208.543 73.2242C208.543 72.9867 208.622 72.7017 208.733 72.5908C208.86 72.4642 209.256 72.4008 209.731 72.4325C210.428 72.4642 210.555 72.5275 210.73 72.9075C210.904 73.3034 210.999 73.3509 211.712 73.3509C212.409 73.3509 212.504 73.3034 212.504 73.0342C212.504 72.86 212.378 72.4958 212.235 72.2425C212.077 71.9891 211.744 71.6566 211.474 71.4983C211.189 71.3399 210.571 71.2132 209.89 71.1816C209.161 71.1341 208.559 71.1974 208.147 71.3558ZM219.635 71.2924C219.334 71.3716 218.859 71.6883 218.574 71.9891C218.225 72.3691 218.051 72.7175 218.051 73.0342C218.051 73.4934 218.067 73.5092 218.843 73.5092C219.54 73.5092 219.651 73.4617 219.794 73.1133C219.889 72.8917 220.095 72.6383 220.269 72.5592C220.444 72.4641 220.792 72.4008 221.03 72.385C221.268 72.385 221.616 72.4958 221.822 72.6225C222.055 72.7914 222.171 73.0342 222.171 73.3509C222.171 73.6675 222.081 73.8523 221.902 73.9051C221.743 73.9367 221.03 74.0476 220.317 74.1426C219.588 74.2217 218.796 74.4118 218.526 74.5701C218.257 74.7284 217.94 75.0768 217.813 75.3618C217.686 75.6468 217.575 76.0268 217.575 76.201C217.575 76.3752 217.686 76.7552 217.813 77.0719C217.94 77.3727 218.288 77.7686 218.574 77.9428C218.986 78.212 219.287 78.2595 220.222 78.2278C221.252 78.1803 221.41 78.1328 221.838 77.7053L222.298 77.2302C222.488 78.0536 222.551 78.1011 223.248 78.1011L223.993 78.0853C223.93 74.3484 223.866 73.05 223.835 72.7967C223.803 72.5275 223.565 72.1316 223.328 71.8941C223.09 71.6566 222.599 71.4032 222.25 71.3082C221.902 71.2132 221.299 71.1341 220.903 71.1499C220.507 71.1499 219.937 71.2291 219.635 71.2924ZM222.06 74.9976L222.123 75.3935C222.155 75.6152 222.092 75.9952 221.981 76.2485C221.87 76.486 221.553 76.7869 221.268 76.9136C220.982 77.0402 220.539 77.1036 220.269 77.0719C220.016 77.0244 219.683 76.8186 219.556 76.6286C219.429 76.4385 219.318 76.201 219.318 76.1218C219.318 76.0268 219.429 75.821 219.572 75.6468C219.746 75.4568 220.222 75.2826 220.951 75.1718L222.06 74.9976ZM231.441 71.3716C231.188 71.5141 230.839 71.7833 230.696 71.9733L230.427 72.3216C230.411 71.2924 230.411 71.2924 229.619 71.2924H228.827V78.1011H230.57C230.649 73.3192 230.649 73.3192 231.093 72.9392C231.346 72.7175 231.726 72.5592 231.996 72.5592C232.265 72.5592 232.614 72.7017 232.788 72.8758C233.073 73.1609 233.105 73.3984 233.105 75.6468V78.1011H234.848C234.848 73.24 234.801 72.7017 234.579 72.2425C234.42 71.9258 234.056 71.5616 233.739 71.4033C233.438 71.2608 232.899 71.1341 232.55 71.1341C232.202 71.1341 231.711 71.2449 231.441 71.3716ZM238.335 71.3082C238.033 71.3716 237.558 71.6883 237.273 72.005C236.924 72.3744 236.75 72.7175 236.75 73.0342C236.75 73.4934 236.766 73.5092 237.542 73.5092C238.239 73.5092 238.35 73.4617 238.493 73.1133C238.588 72.8917 238.794 72.6383 238.968 72.5592C239.143 72.4641 239.491 72.4008 239.729 72.4008C239.967 72.4008 240.315 72.4958 240.521 72.6383C240.754 72.7967 240.87 73.0342 240.87 73.3509C240.87 73.6675 240.78 73.847 240.601 73.8892C240.442 73.9367 239.729 74.0476 239.016 74.1267C238.287 74.2217 237.495 74.4276 237.225 74.5701C236.956 74.7284 236.639 75.0768 236.512 75.3618C236.385 75.6468 236.274 76.0268 236.274 76.201C236.274 76.3752 236.385 76.771 236.512 77.0719C236.639 77.3727 236.988 77.7686 237.273 77.9428C237.621 78.1645 238.065 78.2595 238.699 78.2595C239.19 78.2595 239.777 78.1803 239.998 78.1011C240.22 78.0061 240.537 77.7845 240.696 77.5786L240.997 77.2302C241.187 78.0695 241.25 78.1011 241.979 78.1011H242.772C242.645 74.3484 242.566 73.05 242.534 72.7967C242.502 72.5275 242.265 72.1316 242.027 71.8941C241.789 71.6724 241.298 71.4032 240.949 71.3082C240.601 71.2132 239.998 71.1341 239.602 71.1499C239.206 71.1499 238.636 71.2291 238.335 71.3082ZM240.743 75.0135L240.822 75.4093C240.854 75.631 240.791 76.011 240.68 76.2644C240.553 76.5494 240.268 76.8186 239.919 76.9452C239.618 77.0719 239.174 77.1352 238.937 77.0719C238.699 77.0244 238.382 76.8344 238.255 76.6286C238.129 76.4385 238.018 76.201 238.018 76.1218C238.018 76.0268 238.129 75.821 238.271 75.6627C238.445 75.4726 238.921 75.2985 239.634 75.1876L240.743 75.0135ZM257.113 71.3716C256.764 71.4983 256.241 71.8466 255.956 72.1158C255.623 72.4483 255.338 72.955 255.18 73.5092C255.037 74.0476 254.974 74.6809 255.021 75.1718C255.069 75.6152 255.243 76.2644 255.433 76.6444C255.639 77.0402 256.035 77.4836 256.431 77.7528C256.986 78.117 257.287 78.1803 258.365 78.2278C259.474 78.2595 259.743 78.212 260.282 77.9111C260.631 77.7053 261.075 77.2936 261.281 76.9927C261.471 76.6919 261.645 76.3435 261.629 76.2485C261.629 76.106 261.376 76.0427 260.884 76.0427C260.219 76.0427 260.076 76.0902 259.775 76.5177C259.569 76.771 259.221 77.0402 258.983 77.0877C258.745 77.1352 258.286 77.1036 257.984 77.0086C257.683 76.9294 257.319 76.6919 257.176 76.486C257.034 76.2802 256.891 75.916 256.859 75.6468L256.796 75.1718L261.788 75.0926C261.788 74.0317 261.613 73.3984 261.392 72.9233C261.138 72.385 260.773 71.9416 260.409 71.6883C259.965 71.3874 259.537 71.2607 258.777 71.1974C258.08 71.1499 257.541 71.2132 257.113 71.3716ZM257.493 72.6858C257.699 72.5275 258.111 72.4008 258.412 72.4008C258.698 72.4008 259.078 72.48 259.252 72.5592C259.427 72.6542 259.68 72.9392 259.807 73.1925C259.934 73.4617 260.045 73.7467 260.045 73.8259C260.045 73.9209 259.395 73.9842 256.717 73.9842L256.923 73.4775C257.034 73.2084 257.287 72.8442 257.493 72.6858ZM296.54 71.2924C296.349 71.3558 296.017 71.6566 295.795 71.9575L295.383 72.48V71.2924H293.798V78.1011H295.541C295.541 74.7126 295.605 74.1742 295.826 73.7151C296.001 73.3509 296.286 73.0658 296.619 72.9233C296.904 72.8125 297.3 72.7175 297.522 72.7175C297.902 72.7175 297.918 72.67 297.886 71.9733C297.839 71.2449 297.823 71.2132 297.364 71.1816C297.11 71.1657 296.73 71.2132 296.54 71.2924ZM301.167 71.3716C300.818 71.4983 300.374 71.7674 300.168 71.9733C299.962 72.1633 299.645 72.6067 299.455 72.955C299.218 73.43 299.123 73.8892 299.123 74.7918C299.107 75.8527 299.17 76.0743 299.582 76.7552C299.899 77.2619 300.295 77.6419 300.771 77.8953C301.325 78.1803 301.737 78.2595 302.593 78.2595C303.449 78.2595 303.861 78.1645 304.336 77.8953C304.685 77.7053 305.128 77.2936 305.334 76.9927C305.525 76.6919 305.699 76.3435 305.683 76.2485C305.683 76.106 305.43 76.0427 304.938 76.0427C304.273 76.0427 304.13 76.0902 303.829 76.5177C303.623 76.771 303.274 77.0402 303.037 77.0877C302.799 77.1352 302.324 77.1036 302.007 77.0086C301.61 76.8977 301.325 76.6761 301.183 76.4069C301.072 76.1535 300.945 75.7893 300.913 75.5676L300.85 75.1718L305.921 75.0926C305.731 73.3984 305.572 72.9392 305.255 72.4958C305.018 72.1475 304.558 71.7199 304.257 71.5458C303.924 71.3557 303.322 71.2132 302.751 71.1816C302.165 71.1499 301.563 71.2132 301.167 71.3716ZM301.547 72.6858C301.753 72.5275 302.165 72.4008 302.466 72.4008C302.751 72.4008 303.132 72.48 303.306 72.5592C303.48 72.6542 303.734 72.9392 303.861 73.1925C303.987 73.4617 304.098 73.7467 304.098 73.8259C304.098 73.9209 303.449 73.9842 300.771 73.9842L300.977 73.4775C301.088 73.2084 301.341 72.8442 301.547 72.6858ZM136.44 74.6968V78.1011H138.183V71.2924H136.44V74.6968ZM147.374 73.9842C147.374 75.9952 147.438 76.8027 147.612 77.1986C147.739 77.4678 148.072 77.8319 148.357 78.0061C148.753 78.2278 149.118 78.2753 149.862 78.2436C150.686 78.1961 150.908 78.1011 151.336 77.7053L151.827 77.2302C151.811 78.0853 151.843 78.1011 152.604 78.1011H153.396V71.2924H151.653C151.653 75.061 151.59 75.8527 151.447 76.1694C151.32 76.4069 151.114 76.6444 150.972 76.7236C150.829 76.7869 150.449 76.8344 150.148 76.8344C149.751 76.8344 149.53 76.7394 149.355 76.486C149.165 76.201 149.118 75.5993 149.118 73.7151V71.2924H147.374V73.9842ZM162.904 73.9842C162.904 75.9952 162.968 76.8027 163.142 77.1986C163.269 77.4678 163.601 77.8319 163.887 78.0061C164.283 78.2278 164.647 78.2753 165.392 78.2436C166.216 78.1961 166.438 78.1011 166.866 77.7053L167.357 77.2302C167.341 78.0853 167.373 78.1011 168.134 78.1011H168.926V71.2924H167.183C167.183 75.061 167.119 75.8527 166.977 76.1694C166.85 76.4069 166.644 76.6444 166.501 76.7236C166.359 76.7869 165.978 76.8344 165.677 76.8344C165.281 76.8344 165.059 76.7394 164.885 76.486C164.695 76.201 164.647 75.5993 164.647 73.7151V71.2924H162.904V73.9842ZM199.193 74.0317C199.193 76.4702 199.225 76.8027 199.51 77.2778C199.684 77.5469 200.033 77.9111 200.271 78.0536C200.588 78.2436 200.952 78.2911 201.681 78.2436C202.505 78.1961 202.743 78.1011 203.155 77.7053L203.646 77.2302C203.63 78.0853 203.662 78.1011 204.423 78.1011H205.215V71.2924H203.472C203.472 75.061 203.408 75.8527 203.266 76.1694C203.139 76.4069 202.933 76.6444 202.79 76.7236C202.648 76.7869 202.267 76.8344 201.966 76.8344C201.57 76.8344 201.348 76.7394 201.174 76.486C200.984 76.201 200.936 75.5993 200.936 73.7151V71.2924H199.193V74.0317ZM225.499 74.7126V78.117H227.242V71.3082H225.499V74.7126ZM273.99 73.9209C273.99 75.7102 274.053 76.6919 274.196 77.0402C274.322 77.3253 274.624 77.7211 274.877 77.927C275.273 78.2436 275.479 78.2911 276.398 78.2436C277.317 78.1961 277.523 78.1328 277.951 77.7211L278.443 77.2461C278.427 78.0853 278.458 78.117 279.219 78.117H280.011V71.3082H278.268C278.268 75.061 278.205 75.8685 278.062 76.1694C277.935 76.4069 277.729 76.6602 277.587 76.7236C277.444 76.7869 277.064 76.8502 276.763 76.8502C276.367 76.8502 276.145 76.7394 275.97 76.486C275.78 76.201 275.733 75.5993 275.733 73.7151V71.3082H273.99V73.9209ZM286.065 74.2376L286.112 77.1828C287.364 78.2911 287.412 78.307 288.442 78.2436C289.361 78.1961 289.567 78.117 289.995 77.7211L290.486 77.2461C290.47 78.0853 290.502 78.117 291.263 78.117H292.055V71.3082H290.28C290.233 76.201 290.233 76.2485 289.836 76.5494C289.599 76.7394 289.202 76.8502 288.854 76.8502C288.41 76.8502 288.188 76.7394 288.014 76.486C287.824 76.201 287.776 75.5993 287.776 73.7151V71.3082H286.017L286.065 74.2376ZM183.743 77.5786C183.679 78.3387 183.552 79.1145 183.473 79.2887C183.346 79.5262 183.378 79.6371 183.6 79.7954C183.774 79.9062 184.028 80.0012 184.186 80.0012C184.329 80.0012 184.614 79.7637 184.804 79.4787C185.105 79.0512 185.169 78.7187 185.185 77.5786L185.216 76.201H183.854L183.743 77.5786Z" fill="#0A814A"/>
<path d="M34.1497 0.158531C33.9753 0.237702 33.6426 0.301042 33.389 0.301042L32.9612 0.316873V4.75045C33.7535 4.62378 35.0212 4.51294 36.289 4.43377C37.9529 4.3071 39.2206 4.3071 40.8845 4.43377C42.1522 4.52877 43.6101 4.67128 44.1331 4.75045C44.656 4.82962 45.3691 4.9563 45.7178 5.05131C46.0664 5.13048 46.6369 5.27299 46.9855 5.36799C47.3341 5.44716 47.9838 5.62134 48.4117 5.74802C48.8554 5.87469 49.6319 6.14386 50.1548 6.33388C50.6778 6.52389 51.4226 6.82473 51.8187 6.9989C52.2149 7.17308 53.1023 7.58478 53.7996 7.90147C54.4968 8.23398 55.4793 8.75652 55.9864 9.0732C56.4777 9.38989 56.9372 9.65906 57.0006 9.65906C57.0798 9.6749 57.9514 10.2924 58.9498 11.0366C59.9481 11.7967 61.7071 13.3484 62.8322 14.4885C64.1792 15.8344 65.3835 17.2437 66.2868 18.5262C67.0633 19.6188 67.9348 20.933 68.2359 21.4556C68.537 21.9781 69.0283 22.9123 69.3135 23.514C69.5988 24.1157 69.9949 24.9391 70.1692 25.3349C70.3436 25.7308 70.708 26.6808 70.9616 27.4726C71.2151 28.2643 71.5162 29.2143 71.6271 29.6102C71.7222 30.006 71.8807 30.5761 71.9441 30.8769C72.0233 31.1778 72.1659 31.7795 72.2452 32.2228C72.3402 32.6503 72.4829 33.6162 72.5621 34.3604C72.6572 35.1046 72.7681 36.3872 72.7998 37.2106C72.8473 38.034 72.8156 39.6332 72.7364 40.7733C72.6572 41.9134 72.5304 43.0059 72.467 43.2118L72.3402 43.6076C75.0342 43.4493 76.0484 43.3384 76.3336 43.2751C76.7773 43.1643 76.8724 43.0534 77.015 42.4675C77.0942 42.1034 77.1735 40.4091 77.1735 38.7149C77.1735 37.0206 77.0942 35.1046 76.9992 34.4713C76.9041 33.8537 76.7773 32.967 76.6981 32.5395C76.6188 32.0961 76.4445 31.1778 76.3019 30.4811C76.1751 29.7844 75.9691 28.9293 75.8741 28.581C75.779 28.2326 75.4462 27.2034 75.1451 26.285C74.844 25.3666 74.4161 24.2265 74.1943 23.7515C73.9883 23.2765 73.608 22.4373 73.3544 21.8831C73.1009 21.3447 72.8949 20.8697 72.8949 20.8222C72.8949 20.7747 72.3878 19.9038 71.7698 18.8746C71.1359 17.8612 70.0108 16.2144 69.266 15.2169C68.5212 14.2193 67.1584 12.6359 66.2392 11.7175C65.3201 10.7833 64.2109 9.7224 63.783 9.34238C63.3393 8.96235 62.3568 8.18648 61.5645 7.60061C60.7721 7.01475 59.3935 6.09636 58.4744 5.54216C57.5552 4.98797 56.1766 4.24376 55.3842 3.87957C54.5919 3.51538 53.6411 3.07203 53.2449 2.89786C52.8488 2.72368 52.1357 2.45449 51.6603 2.29615C51.1849 2.13781 50.6461 1.96364 50.4718 1.88446C50.2975 1.82113 49.8379 1.66277 49.4417 1.5361C49.0456 1.40943 48.1265 1.15608 47.3817 0.981902C46.6369 0.807726 45.7494 0.617723 45.4008 0.554386C45.0522 0.491049 44.3391 0.364383 43.8161 0.285212C43.2932 0.190207 40.9796 0.0951976 38.666 0.0635292C36.3523 0.0476949 34.324 0.0793595 34.1497 0.158531Z" fill="#EEB72C"/>
</g>
<defs>
<clipPath id="clip0_1688_299">
<rect width="306" height="81.3879" fill="white"/>
</clipPath>
</defs>
</svg>
