<svg width="163" height="44" viewBox="0 0 163 44" fill="none" xmlns="http://www.w3.org/2000/svg">
<g clip-path="url(#clip0_1922_5719)">
<path opacity="0.99" fill-rule="evenodd" clip-rule="evenodd" d="M66.5253 38.0059C66.3396 38.0482 66.1201 38.2085 65.9513 38.4196C65.7993 38.6053 65.6305 38.9176 65.5799 39.1202C65.5292 39.3143 65.5039 39.6689 65.5292 39.8968C65.5461 40.1331 65.6474 40.4792 65.7487 40.6818C65.8415 40.876 66.0526 41.1208 66.2045 41.222C66.3987 41.3571 66.6266 41.4246 67.0233 41.4415C67.5045 41.4669 67.6142 41.45 67.8928 41.2558L68.2051 41.0364C68.2051 41.6948 68.1629 41.9649 68.1207 42.0746C68.07 42.1759 67.9434 42.311 67.8252 42.3701C67.707 42.4207 67.5213 42.4714 67.4032 42.4714C67.285 42.4714 67.0824 42.4123 66.9389 42.3447C66.7954 42.2688 66.6519 42.1084 66.6012 41.9649C66.5253 41.737 66.4831 41.7116 66.137 41.7116C65.7571 41.7116 65.7571 41.7116 65.7571 42.0071C65.7571 42.2097 65.8331 42.3869 65.9935 42.5642C66.1201 42.7161 66.3311 42.885 66.4746 42.961C66.6181 43.0285 66.9727 43.0876 67.2765 43.0876C67.5804 43.0876 67.9603 43.0454 68.1207 42.9947C68.2811 42.9441 68.5343 42.7752 68.6778 42.6233C68.8213 42.4714 68.9817 42.2097 69.0408 42.0493C69.0998 41.8636 69.1336 41.0701 69.1336 39.8799V37.9975C68.2895 37.9975 68.2895 37.9975 68.2895 38.2761V38.5462C67.9603 38.1832 67.7746 38.0482 67.6564 37.9975C67.5382 37.9553 67.3019 37.9131 67.133 37.9215C66.9558 37.9215 66.6772 37.9637 66.5253 38.0059ZM66.9642 38.6728C67.0655 38.6306 67.2512 38.5968 67.3863 38.5968C67.5213 38.5884 67.7239 38.6813 67.8759 38.8248C68.1038 39.0189 68.146 39.1202 68.1882 39.5591C68.2135 39.9221 68.1882 40.1416 68.0869 40.3442C68.0109 40.4877 67.8759 40.6565 67.783 40.6987C67.6902 40.7493 67.4707 40.7831 67.3019 40.7831C67.0571 40.7916 66.922 40.7325 66.7447 40.5552C66.6012 40.4117 66.4915 40.1922 66.4662 39.9812C66.4324 39.7955 66.4409 39.5338 66.4662 39.3903C66.5 39.2468 66.5844 39.0527 66.6603 38.9429C66.7279 38.8332 66.8714 38.715 66.9642 38.6728ZM16.9247 0.0964186C16.6967 0.130183 16.1818 0.239921 15.7851 0.341216C15.3883 0.442511 14.6877 0.653539 14.2235 0.813923C13.7592 0.965864 13.1936 1.16846 12.9573 1.26131C12.7294 1.35416 12.2144 1.57363 11.8177 1.75934C11.421 1.94504 10.6866 2.33334 10.1717 2.62879C9.6652 2.92423 8.86328 3.44759 8.39902 3.79368C7.93475 4.13977 7.25101 4.69689 6.8796 5.02609C6.50818 5.3553 6.12833 5.70139 6.03547 5.79424C5.94262 5.8871 5.57965 6.28383 5.22512 6.68057C4.87059 7.07731 4.30503 7.77793 3.95894 8.2422C3.61285 8.70647 3.08105 9.52526 2.76872 10.0571C2.45639 10.5889 2.19472 11.0531 2.19472 11.0953C2.19472 11.1291 2.03434 11.4836 1.84863 11.8973C1.65448 12.3024 1.35059 13.0537 1.16489 13.5602C0.987622 14.0751 0.74283 14.8854 0.624653 15.375C0.506475 15.8646 0.362973 16.5652 0.295443 16.9367C0.236354 17.3081 0.143499 18.034 0.0928514 18.5405C0.042204 19.0554 0 19.8911 0 20.3976C0 20.9125 0.0337649 21.6722 0.0844122 22.0858C0.126618 22.5079 0.202587 23.1325 0.261676 23.4786C0.312323 23.8247 0.447383 24.5084 0.557119 24.998C0.675296 25.4876 0.911652 26.3233 1.09736 26.8551C1.27462 27.3869 1.56163 28.1297 1.73045 28.5011C1.90772 28.8725 2.11031 29.3284 2.19472 29.5141C2.27069 29.6998 2.58302 30.2738 2.8869 30.7803C3.19078 31.2952 3.68881 32.0296 3.97581 32.4263C4.27126 32.823 4.84526 33.5321 5.25044 33.9879C5.65562 34.4522 6.35624 35.1613 6.81207 35.5664C7.26789 35.9716 7.97696 36.5541 8.39902 36.8579C8.82108 37.1703 9.55546 37.6599 10.0451 37.9553C10.5346 38.2423 11.1593 38.5884 11.4379 38.715C11.7164 38.8416 12.1722 39.0442 12.4508 39.1708C12.7294 39.2975 13.4131 39.5591 13.9702 39.7533C14.5273 39.9474 15.3208 40.1838 15.7429 40.2766C16.1649 40.3695 16.8234 40.5046 17.2201 40.5721C17.6168 40.6312 18.5285 40.7325 19.246 40.7915C20.3096 40.876 20.8076 40.876 21.905 40.7915C22.6478 40.724 23.5257 40.6312 23.8465 40.5721C24.1757 40.513 24.7412 40.4033 25.1126 40.3188C25.4841 40.2429 26.3619 39.9896 27.0541 39.7533C27.7547 39.5169 28.6748 39.154 29.1053 38.9598C29.5274 38.7572 29.8988 38.5884 29.9241 38.5884C29.9495 38.5884 30.2449 38.4196 30.5825 38.217C30.9118 38.0144 31.3085 37.7949 31.4436 37.7189C31.5871 37.6514 32.1695 37.2378 32.7519 36.8073C33.3682 36.343 34.2967 35.5327 34.9973 34.8321C35.6642 34.1652 36.5083 33.2113 36.9388 32.6373C37.3524 32.0802 37.9264 31.2276 38.2134 30.7381C38.492 30.2485 38.8887 29.5141 39.0829 29.092C39.277 28.6784 39.5134 28.1466 39.6062 27.9102C39.6991 27.6823 39.8848 27.1674 40.0114 26.7707C40.1465 26.3739 40.3659 25.5805 40.501 24.998C40.636 24.4156 40.788 23.6981 40.8386 23.3942C40.8808 23.0903 40.9146 22.8371 40.9062 22.8286C40.9062 22.8202 40.6107 22.8455 40.2646 22.8877C39.9185 22.9299 39.4121 22.9721 39.1504 22.9721C38.7874 22.9721 38.6524 23.0059 38.6186 23.0988C38.5933 23.1663 38.5764 23.3098 38.5764 23.4195C38.5764 23.5208 38.4835 24.002 38.3654 24.4916C38.2472 24.9811 38.0193 25.7577 37.8589 26.222C37.7069 26.6863 37.5043 27.2349 37.4115 27.446C37.3271 27.657 37.1245 28.096 36.9726 28.4167C36.8122 28.7375 36.5927 29.1595 36.4745 29.3453C36.3648 29.531 36.196 29.818 36.1031 29.9783C36.0187 30.1387 35.6557 30.6705 35.3012 31.1601C34.9298 31.675 34.187 32.5192 33.5201 33.186C32.887 33.8107 32.0091 34.5957 31.5702 34.9249C31.1312 35.2541 30.4053 35.7353 29.9663 35.9969C29.5274 36.2502 28.7424 36.6638 28.2359 36.9002C27.7294 37.1449 26.9866 37.4573 26.5899 37.5923C26.1931 37.7358 25.5347 37.93 25.1126 38.0397C24.6906 38.1495 24.0322 38.293 23.6354 38.3689C23.2387 38.4365 22.4452 38.5378 21.8628 38.58C21.2803 38.6306 20.7907 38.6475 20.7654 38.6306C20.7401 38.6053 20.9089 38.3689 21.1453 38.1073C21.3732 37.8371 21.8881 37.3053 22.2848 36.917C22.6816 36.5287 23.34 35.9547 23.762 35.6424C24.1841 35.3216 24.8425 34.8574 25.2393 34.5957C25.636 34.3425 26.4295 33.8782 27.0119 33.5827C27.5944 33.2789 28.4469 32.8821 28.9112 32.6964C29.3755 32.5107 30.228 32.2237 30.8105 32.0549C31.3929 31.8861 32.2624 31.6666 32.7519 31.5737C33.2415 31.4809 33.7227 31.388 33.8324 31.3711C33.9759 31.3374 34.035 31.2445 34.1025 30.9069C34.1447 30.679 34.187 30.4595 34.187 30.4257C34.187 30.3835 33.7227 30.392 33.1571 30.4257C32.5831 30.4595 31.7812 30.527 31.3591 30.5777C30.9371 30.6283 30.1605 30.7381 29.6287 30.8225C29.0969 30.9069 28.4722 31.0251 28.2359 31.0757C28.008 31.1264 27.2989 31.3205 26.6743 31.5062C26.0496 31.7004 25.2139 31.9874 24.8172 32.1477C24.4205 32.3081 23.703 32.6458 23.2134 32.8821C22.7238 33.1269 22.0654 33.4899 21.7361 33.6925C21.4154 33.8866 20.7654 34.3171 20.3011 34.6463C19.8369 34.984 19.0772 35.5833 18.6129 35.9801C18.1486 36.3852 17.4649 37.0183 17.0935 37.3982C16.7221 37.778 16.3506 38.0819 16.2747 38.0819C16.1903 38.0819 15.9201 38.0313 15.6838 37.9637C15.439 37.8962 14.8734 37.7274 14.4345 37.5754C13.9955 37.4235 13.5566 37.2631 13.4637 37.2209C13.3034 37.145 13.3202 37.1112 13.6748 36.7567C13.8858 36.5456 14.4514 36.0307 14.941 35.6086C15.4306 35.1866 16.1903 34.5704 16.6292 34.2412C17.0682 33.9204 17.9038 33.3633 18.4863 33.0172C19.0687 32.6795 19.9635 32.1984 20.47 31.9536C20.9764 31.7088 21.7193 31.3965 22.116 31.2445C22.5127 31.101 23.3484 30.8309 23.9731 30.6452C24.5977 30.4595 25.6107 30.2231 26.21 30.105C26.8178 29.9952 27.7041 29.8433 28.1937 29.7758C28.6833 29.6998 29.8988 29.5901 30.8949 29.5141C31.8909 29.4466 33.0389 29.3875 33.4526 29.3875C33.8577 29.3875 34.2038 29.3621 34.2207 29.3284C34.246 29.2862 33.8577 29.1933 33.3597 29.1089C32.8617 29.0329 31.9838 28.9063 31.4013 28.8472C30.8189 28.7797 29.8144 28.7037 29.1644 28.67C28.5145 28.6446 27.4171 28.6615 26.7165 28.7122C26.0243 28.7544 25.0873 28.8557 24.6484 28.9232C24.2094 28.9907 23.3822 29.1511 22.8166 29.2777C22.2511 29.4128 21.7699 29.4972 21.753 29.4719C21.7277 29.4466 21.7024 28.8388 21.6855 28.1213C21.6602 26.9902 21.6686 26.8129 21.7784 26.8382C21.8459 26.8551 22.327 26.8213 22.8335 26.7791C23.34 26.7285 24.0912 26.5934 24.5049 26.4752C24.91 26.3571 25.5178 26.1292 25.8555 25.9688C26.1847 25.7999 26.7249 25.4707 27.0541 25.2259C27.3749 24.9811 27.8392 24.5422 28.0839 24.2383C28.3372 23.9344 28.6748 23.4195 28.8437 23.0988C29.0125 22.778 29.2404 22.2377 29.3501 21.917C29.4683 21.5962 29.578 21.0222 29.6034 20.6508L29.654 19.9755C28.3287 20.0768 27.6872 20.1612 27.3749 20.2287C27.0541 20.2878 26.573 20.4229 26.2944 20.5242C26.0158 20.617 25.5431 20.8365 25.2393 21.0053C24.9354 21.1657 24.4795 21.4612 24.2263 21.6637C23.9731 21.8579 23.5932 22.204 23.3906 22.4319C23.188 22.6598 22.8504 23.1156 22.6309 23.4364C22.4199 23.7572 22.1244 24.3143 21.9725 24.6604C21.8206 25.0065 21.6771 25.3104 21.6517 25.3357C21.6349 25.361 21.5926 24.2552 21.5589 22.8877C21.5336 21.5202 21.5251 20.2878 21.5336 20.1443L21.5673 19.8911C22.8757 19.7982 23.5426 19.6885 23.8887 19.5872C24.2347 19.4944 24.7919 19.2749 25.1126 19.106C25.4587 18.9203 25.9652 18.5405 26.3366 18.1944C26.6996 17.8483 27.1132 17.3334 27.3158 17.0042C27.5015 16.6919 27.7379 16.2192 27.8392 15.9659C27.932 15.7127 28.0586 15.3497 28.1008 15.164C28.1515 14.9783 28.2274 14.5393 28.2697 14.1933C28.3119 13.8472 28.3203 13.5095 28.295 13.442C28.2443 13.3576 28.0924 13.3407 27.5606 13.3829C27.1892 13.4167 26.5814 13.5011 26.21 13.5686C25.7964 13.653 25.2393 13.8387 24.775 14.0666C24.3529 14.2692 23.7958 14.6153 23.5341 14.8432C23.264 15.0627 22.8926 15.4594 22.6985 15.7127C22.5043 15.9659 22.2173 16.4302 22.0654 16.751C21.905 17.0633 21.7362 17.4938 21.6855 17.7217C21.618 18.0087 21.5673 18.0847 21.5167 17.9918C21.4745 17.9243 21.4407 17.2321 21.4407 16.4555V15.0374C22.0063 14.3536 22.2933 13.8809 22.4452 13.5602C22.6056 13.231 22.7829 12.6738 22.8504 12.294C22.9432 11.7706 22.9432 11.4921 22.8757 11.0278C22.8251 10.707 22.6731 10.1668 22.5381 9.84603C22.403 9.52526 22.0654 8.95126 21.7868 8.57985C21.5167 8.20843 21.1453 7.76949 20.9764 7.60911L20.6641 7.31366C19.9213 8.11558 19.5499 8.62206 19.3557 8.95126C19.1531 9.28047 18.9083 9.78695 18.8155 10.0824C18.7142 10.3694 18.6213 10.9096 18.596 11.281C18.5622 11.7453 18.596 12.142 18.6889 12.5472C18.7733 12.868 18.9674 13.3829 19.1447 13.6868C19.3135 13.9907 19.609 14.4296 19.8031 14.6575L20.1492 15.0796C20.2505 17.5022 20.2589 18.186 20.2336 18.1606C20.2083 18.1353 20.0648 17.8314 19.9213 17.4853C19.7693 17.1392 19.4908 16.6074 19.2882 16.3036C19.094 15.9997 18.672 15.5101 18.3512 15.2231C17.946 14.8517 17.5324 14.5731 17.0091 14.3199C16.587 14.1173 15.9624 13.8894 15.6163 13.8134C15.2702 13.7374 14.5949 13.6446 14.1137 13.6193L13.2527 13.5602C13.2527 14.2439 13.3118 14.7251 13.3878 15.0627C13.4637 15.3919 13.6663 15.9744 13.8352 16.3458C14.004 16.7172 14.3248 17.249 14.5358 17.5275C14.7468 17.8061 15.0676 18.1691 15.2533 18.3379C15.4306 18.5152 15.802 18.7937 16.0805 18.971C16.3591 19.1398 16.8234 19.3762 17.1188 19.4859C17.4058 19.5872 17.9967 19.7391 18.4272 19.8067C18.8492 19.8742 19.4317 19.9333 19.7103 19.9333H20.2167C20.318 21.7313 20.3433 22.9806 20.3433 23.8585V25.4623C19.7862 24.3481 19.4992 23.8585 19.3642 23.6474C19.2207 23.4364 18.8746 23.0228 18.6045 22.7273C18.3343 22.4319 17.8785 22.0183 17.5999 21.8157C17.3214 21.6047 16.798 21.2839 16.4435 21.1066C16.0805 20.9209 15.5065 20.7014 15.1773 20.6086C14.8397 20.5157 14.0884 20.3976 13.506 20.3385C12.9235 20.2878 12.3833 20.2625 12.3073 20.2963C12.1976 20.3385 12.1554 20.4482 12.1554 20.6761C12.1554 20.8449 12.2482 21.3345 12.3748 21.7482C12.493 22.1702 12.7378 22.7949 12.9151 23.141C13.1008 23.487 13.4469 24.0188 13.7001 24.3227C13.9449 24.6266 14.3754 25.0487 14.6455 25.2597C14.9241 25.4707 15.363 25.7662 15.6163 25.9097C15.8695 26.0532 16.3844 26.2726 16.7558 26.3993C17.1272 26.5174 17.7519 26.6694 18.1486 26.7369C18.5454 26.8044 19.2207 26.8551 19.6512 26.8551H20.4278V29.5563C20.1323 29.4888 19.4401 29.4128 18.6973 29.3368C17.6759 29.2355 16.8909 29.2102 15.4896 29.244C14.4683 29.2777 13.3287 29.3368 12.9573 29.3875C12.5859 29.4381 11.7249 29.5901 11.0411 29.7251C10.3489 29.8686 9.36976 30.1134 8.86328 30.2738C8.22175 30.4764 7.93475 30.6114 7.93475 30.6959C7.93475 30.7634 7.99384 30.9575 8.06137 31.1179C8.1289 31.2783 8.23863 31.3965 8.29772 31.3796C8.34837 31.3627 8.61005 31.2952 8.86328 31.2192C9.11652 31.1517 9.90155 30.9913 10.5937 30.8731C11.2944 30.7549 12.4508 30.6199 13.1683 30.5692C14.2403 30.4933 14.7553 30.4933 16.0214 30.603C16.8656 30.679 17.6253 30.7634 17.7097 30.7887C17.811 30.8309 17.5999 30.9491 17.0091 31.1939C16.5448 31.388 15.726 31.7679 15.1942 32.038C14.6624 32.2997 13.7508 32.8399 13.1683 33.2282C12.5859 33.6165 11.7755 34.2243 11.3534 34.5704C10.9314 34.9249 10.5853 35.2372 10.5769 35.271C10.5684 35.3132 10.7626 35.5073 11.0158 35.7184C11.2606 35.9294 11.4716 36.1236 11.4716 36.1658C11.4801 36.1995 11.2268 36.0645 10.9145 35.8703C10.5937 35.6762 10.0788 35.3301 9.74961 35.0937C9.42885 34.8658 8.82108 34.3678 8.39902 33.9964C7.97696 33.625 7.36919 33.0341 7.03998 32.688C6.71077 32.3334 6.18741 31.7088 5.87509 31.2867C5.55432 30.8731 5.0985 30.1894 4.84526 29.7673C4.60047 29.3537 4.21217 28.6109 3.97581 28.1213C3.7479 27.6317 3.42714 26.8551 3.26675 26.3908C3.10637 25.9266 2.8869 25.2091 2.7856 24.787C2.68431 24.3734 2.54925 23.7234 2.49016 23.352C2.42263 22.9806 2.32134 22.128 2.27069 21.4527C2.18628 20.4989 2.18628 19.9755 2.27069 19.0892C2.32978 18.4645 2.42263 17.6457 2.49016 17.2743C2.54925 16.9029 2.68431 16.2614 2.7856 15.8393C2.8869 15.4257 3.09793 14.7166 3.24987 14.2777C3.40181 13.8387 3.71414 13.079 3.95049 12.5894C4.1784 12.0998 4.58358 11.3401 4.8537 10.9012C5.12382 10.4622 5.60497 9.73629 5.93418 9.29735C6.26339 8.85841 7.06531 7.96364 7.71528 7.31366C8.40746 6.62992 9.26002 5.87866 9.74961 5.53257C10.2139 5.20336 10.8976 4.74753 11.269 4.52806C11.6404 4.30859 12.1891 4.01315 12.493 3.87809C12.7969 3.73459 13.2105 3.54888 13.4215 3.45603C13.6326 3.36318 14.0462 3.19435 14.3501 3.07617C14.654 2.96644 15.3799 2.74696 15.9792 2.58658C16.5701 2.4262 17.1694 2.29114 17.3045 2.29114H17.5577C17.5577 0.290567 17.5324 0.0120043 17.4564 0.0204455C17.3974 0.0288868 17.161 0.0626537 16.9247 0.0964186ZM96.4832 5.09362C96.2299 5.12738 95.8501 5.24557 95.6391 5.3553C95.428 5.46504 95.141 5.70139 94.9975 5.88709C94.8625 6.06436 94.6936 6.41045 94.6345 6.63837C94.5501 6.95913 94.5501 7.17016 94.6177 7.52469C94.6683 7.77793 94.8203 8.15779 94.9553 8.36882C95.1157 8.62205 95.352 8.83309 95.6559 8.99347C96.002 9.17918 96.2468 9.24671 96.7364 9.28047C97.1754 9.3058 97.513 9.28046 97.8338 9.18761C98.087 9.11164 98.45 8.92594 98.6272 8.774C98.8045 8.62206 99.0324 8.34349 99.1337 8.15779C99.2688 7.89611 99.311 7.66819 99.3025 7.18705C99.3025 6.7481 99.2519 6.4611 99.1506 6.25851C99.0662 6.09813 98.8974 5.85333 98.7707 5.72671C98.6526 5.59165 98.3993 5.40595 98.2136 5.3131C98.0279 5.2118 97.6649 5.1105 97.4117 5.08518C97.15 5.05141 96.7364 5.05985 96.4832 5.09362ZM141.053 5.08518C140.8 5.1105 140.479 5.19491 140.335 5.26244C140.192 5.33841 139.955 5.4988 139.795 5.63386C139.643 5.76892 139.432 6.0306 139.348 6.2163C139.255 6.40201 139.162 6.72278 139.137 6.93381C139.111 7.16172 139.145 7.50782 139.23 7.80326C139.331 8.15779 139.457 8.37726 139.744 8.66426C140.031 8.95126 140.251 9.07788 140.614 9.17917C140.935 9.27203 141.306 9.3058 141.728 9.28047C142.184 9.25515 142.479 9.18762 142.783 9.03568C143.02 8.9175 143.324 8.6727 143.467 8.487C143.611 8.30973 143.771 7.9552 143.83 7.69352C143.923 7.31366 143.923 7.1364 143.83 6.72278C143.762 6.40201 143.627 6.08969 143.459 5.87866C143.307 5.68451 143.003 5.44816 142.733 5.3131C142.488 5.19492 142.108 5.07674 141.897 5.05986C141.686 5.04298 141.306 5.05141 141.053 5.08518ZM50.9934 5.6423C50.9512 5.72671 49.8032 8.774 48.4526 12.4206C47.0936 16.0672 45.2534 21.0222 44.3586 23.4364C43.4554 25.8506 42.7041 27.8934 42.6788 27.9778C42.6282 28.1128 42.7717 28.1213 44.8735 28.1044L47.1189 28.0791C47.6929 26.509 48.0728 25.4707 48.326 24.7701L48.7903 23.4786L58.6243 23.5208L60.3125 28.1213C63.9507 28.1213 64.7442 28.0875 64.7442 28.0369C64.7442 27.9947 63.1066 23.5546 61.106 18.186C59.1054 12.8089 57.2315 7.76949 56.9445 6.97601L56.4042 5.54101C51.272 5.4988 51.0694 5.50724 50.9934 5.6423ZM53.6271 9.81226C53.6777 9.70253 53.7284 9.62656 53.7368 9.64344C53.7453 9.66032 54.5809 11.9563 55.5854 14.7419C56.5984 17.5275 57.4341 19.8742 57.451 19.9586C57.4847 20.0937 57.2568 20.1021 53.6862 20.1021C51.6012 20.1021 49.8792 20.0852 49.8792 20.0599C49.8707 20.0346 50.2844 18.8866 50.7993 17.5107C51.3058 16.1263 52.133 13.8725 52.631 12.505C53.1291 11.1375 53.5764 9.922 53.6271 9.81226ZM108.428 5.60854C108.402 5.65919 107.862 7.1364 107.212 8.87529C106.57 10.6142 104.722 15.5945 103.11 19.9333C101.497 24.2721 100.164 27.8934 100.147 27.9778C100.113 28.1128 100.265 28.1213 102.333 28.1213H104.545C105.709 24.9474 106.098 23.9007 106.165 23.7572L106.275 23.4786H116.067C116.269 24.0357 116.641 25.074 117.029 26.1376L117.738 28.0791L126.323 28.1297C129.134 24.061 129.978 22.8877 130.02 22.8877C130.054 22.8877 130.89 24.0695 131.877 25.5045L133.667 28.1297C137.17 28.1213 138.183 28.1044 138.183 28.0791C138.183 28.0537 136.984 26.2811 135.507 24.137C134.038 21.9845 132.738 20.0768 132.603 19.8911L132.375 19.5534C136.613 13.5686 137.828 11.796 137.803 11.7453C137.778 11.6947 136.967 11.6609 135.634 11.6693C134.114 11.6693 133.456 11.7031 133.363 11.7706C133.287 11.8297 132.51 12.9186 131.649 14.1933C130.78 15.4679 130.045 16.523 130.012 16.5399C129.978 16.5484 129.21 15.4763 128.307 14.1511C127.403 12.8258 126.601 11.72 126.534 11.6947C126.466 11.6693 125.462 11.6778 124.297 11.7031C123.141 11.7369 122.178 11.7791 122.17 11.796C122.153 11.8128 123.318 13.4926 124.753 15.527C126.179 17.5529 127.403 19.2918 127.462 19.3846C127.564 19.5366 127.319 19.9333 124.837 23.5799C122.356 27.2349 122.094 27.5895 122.009 27.4207C121.959 27.3194 120.119 22.3897 117.924 16.4724C115.729 10.5551 113.889 5.65918 113.838 5.60009C113.762 5.51568 113.163 5.49036 111.103 5.4988C109.069 5.4988 108.453 5.52413 108.428 5.60854ZM109.246 14.8095C110.285 11.9648 111.154 9.66877 111.179 9.70253C111.213 9.7363 111.939 11.72 112.8 14.1088C113.67 16.4977 114.497 18.8106 114.649 19.2327C114.801 19.6632 114.91 20.0346 114.893 20.0599C114.877 20.0852 113.171 20.1021 111.112 20.1021C109.061 20.1021 107.372 20.0768 107.372 20.043C107.372 20.0008 108.216 17.6542 109.246 14.8095ZM70.1888 11.5258C69.868 11.5849 69.3868 11.7031 69.1336 11.7875C68.8804 11.8635 68.4246 12.0661 68.1207 12.218C67.8168 12.37 67.3019 12.7245 66.9811 12.9946C66.6603 13.2647 66.2298 13.6952 66.0441 13.9485C65.85 14.2017 65.5714 14.6153 65.4279 14.8686C65.2929 15.1218 65.0565 15.6367 64.9214 16.0081C64.7864 16.3795 64.6176 17.0042 64.5416 17.4009C64.4741 17.7977 64.3896 18.3463 64.3643 18.6249C64.339 18.9035 64.3559 19.6125 64.3981 20.2119C64.4487 20.8027 64.55 21.5625 64.626 21.9001C64.702 22.2293 64.8708 22.7864 65.0059 23.1241C65.1409 23.4533 65.4026 23.9851 65.5967 24.3058C65.7909 24.6182 66.1201 25.074 66.3396 25.3272C66.5506 25.572 66.9558 25.9519 67.2343 26.1545C67.5129 26.3655 68.0109 26.6609 68.3317 26.8213C68.6525 26.9733 69.2687 27.1843 69.6823 27.2856C70.2816 27.4291 70.6784 27.4713 71.5394 27.4629C72.3244 27.4544 72.814 27.4122 73.2698 27.294C73.6159 27.2012 74.173 26.9986 74.4938 26.8298C74.8146 26.6694 75.2873 26.3486 75.5405 26.1292C75.7937 25.9012 76.1229 25.5298 76.2833 25.2935L76.5619 24.8714C76.5619 28.2648 76.5281 28.8894 76.4268 29.303C76.3593 29.6069 76.1989 30.0374 76.0723 30.2654C75.9457 30.4933 75.6587 30.8562 75.4223 31.0673C75.1269 31.3458 74.823 31.5231 74.4094 31.6666C73.8945 31.8523 73.675 31.8776 72.7211 31.8776C71.6407 31.8776 71.6153 31.8692 70.9991 31.5822C70.6108 31.3965 70.2563 31.1517 70.0537 30.9322C69.868 30.7296 69.6316 30.3666 69.5135 30.1303C69.4037 29.8855 69.2687 29.4803 69.218 29.244L69.1336 28.7966H65.2084C65.3013 29.742 65.411 30.2907 65.5039 30.6114C65.6052 30.9406 65.8331 31.4471 66.0104 31.751C66.1876 32.0549 66.5675 32.5276 66.8629 32.8062C67.1584 33.0847 67.648 33.4561 67.9518 33.625C68.2557 33.8022 68.7875 34.0386 69.1336 34.1568C69.4797 34.2749 70.0875 34.4353 70.4842 34.5028C70.9231 34.5873 71.7082 34.6379 72.5101 34.6379C73.312 34.6379 74.1308 34.5873 74.6204 34.5028C75.0593 34.4353 75.6924 34.2834 76.0132 34.1736C76.334 34.0639 76.8151 33.8697 77.0684 33.7516C77.3216 33.6334 77.769 33.3633 78.0644 33.1522C78.3514 32.9412 78.7988 32.5107 79.052 32.1984C79.3137 31.8776 79.6514 31.3796 79.8033 31.0757C79.9637 30.7718 80.1832 30.2231 80.3014 29.8517C80.4195 29.4803 80.5546 28.881 80.6052 28.5265C80.6643 28.0875 80.6981 25.1753 80.6981 19.832V11.7875C79.1618 11.6947 78.2839 11.6947 77.769 11.7284L76.8151 11.7875L76.7729 14.3959C76.3002 13.6193 75.895 13.1465 75.5743 12.8427C75.2282 12.5135 74.7723 12.1843 74.4263 12.0239C74.1139 11.8719 73.6412 11.6862 73.3796 11.6187C73.1094 11.5427 72.4172 11.4667 71.8348 11.4499C71.1595 11.4245 70.5686 11.4499 70.1888 11.5258ZM71.6238 14.4887C71.9023 14.4212 72.2991 14.3705 72.5101 14.3705C72.7211 14.3705 73.1601 14.4212 73.4808 14.4971C73.8016 14.5647 74.2574 14.7251 74.4854 14.8517C74.7048 14.9783 75.0762 15.2737 75.2957 15.5016C75.5152 15.738 75.8106 16.1516 75.9457 16.4302C76.0892 16.7087 76.2749 17.1815 76.3593 17.4853C76.4775 17.9074 76.5112 18.3463 76.5197 19.4268C76.5197 20.3385 76.4775 20.98 76.4015 21.2839C76.3424 21.5371 76.1651 22.0183 76.0216 22.339C75.8613 22.702 75.5827 23.1156 75.2957 23.4195C74.9918 23.7487 74.6542 23.9935 74.3081 24.1623C74.0126 24.2974 73.523 24.4493 73.2107 24.5084C72.7887 24.5844 72.4595 24.5844 72.0036 24.5253C71.6153 24.4747 71.1511 24.3312 70.805 24.1708C70.4589 24.0104 70.0706 23.7403 69.8427 23.5039C69.6316 23.276 69.3446 22.913 69.218 22.6767C69.0914 22.4488 68.8973 21.993 68.796 21.6637C68.644 21.1995 68.5934 20.7943 68.5596 19.8067C68.5343 18.819 68.5512 18.3801 68.6609 17.823C68.7453 17.4262 68.9395 16.8269 69.0998 16.4977C69.2771 16.1179 69.5472 15.7211 69.8089 15.4594C70.0453 15.2315 70.4336 14.9361 70.6784 14.8179C70.9147 14.6913 71.3452 14.5478 71.6238 14.4887ZM150.802 11.5343C150.389 11.6018 149.773 11.7369 149.452 11.8382C149.131 11.931 148.557 12.1758 148.194 12.3615C147.764 12.5894 147.342 12.9018 147.029 13.2225C146.692 13.5686 146.421 13.9485 146.202 14.4043C146.025 14.7757 145.839 15.3075 145.788 15.5861C145.738 15.8646 145.695 16.3373 145.695 16.6412C145.695 16.9451 145.755 17.4347 145.814 17.7386C145.881 18.0425 146.016 18.473 146.126 18.7093C146.236 18.9372 146.489 19.3002 146.675 19.5112C146.869 19.7223 147.308 20.0515 147.645 20.2456C148.067 20.4904 148.591 20.6846 149.241 20.8534C149.773 20.9969 151.005 21.2248 151.984 21.3683C152.963 21.5202 153.985 21.6891 154.263 21.765C154.542 21.8326 154.905 21.9592 155.065 22.0436C155.226 22.128 155.462 22.3053 155.589 22.4403C155.715 22.5669 155.859 22.778 155.901 22.913C155.952 23.0397 155.994 23.3435 155.994 23.5883C155.994 23.8247 155.918 24.1792 155.842 24.3649C155.757 24.5506 155.521 24.8461 155.31 25.0234C155.074 25.2344 154.728 25.4116 154.348 25.5298C153.875 25.6733 153.554 25.7155 152.744 25.7071C152.052 25.7071 151.587 25.6649 151.267 25.572C151.013 25.4961 150.617 25.3019 150.389 25.15C150.093 24.9558 149.891 24.7195 149.688 24.3649C149.536 24.0864 149.384 23.6559 149.351 23.4111L149.283 22.9721H145.273C145.273 23.5293 145.324 23.9344 145.392 24.2383C145.451 24.5422 145.628 25.0571 145.78 25.3779C145.991 25.8168 146.219 26.1292 146.7 26.6019C147.156 27.0492 147.527 27.3278 147.975 27.5473C148.321 27.7161 148.895 27.9356 149.241 28.0284C149.587 28.1297 150.254 28.2648 150.718 28.3323C151.182 28.3998 152.035 28.4589 152.617 28.4589C153.2 28.4589 154.019 28.4167 154.432 28.3661C154.846 28.3154 155.555 28.1804 155.994 28.0706C156.433 27.9609 157.116 27.7077 157.513 27.5135C158.045 27.2518 158.383 26.9986 158.83 26.5597C159.235 26.1545 159.505 25.7999 159.683 25.4201C159.826 25.1162 159.986 24.6857 160.046 24.4493C160.096 24.2214 160.138 23.6643 160.138 23.2254C160.138 22.778 160.079 22.204 160.003 21.917C159.927 21.6384 159.767 21.2248 159.64 20.9969C159.514 20.769 159.218 20.3891 158.982 20.1528C158.746 19.9164 158.29 19.5872 157.969 19.4184C157.648 19.2496 157.142 19.0301 156.838 18.9372C156.534 18.8359 156.019 18.7009 155.698 18.6333C155.378 18.5574 154.213 18.3632 153.124 18.1944C151.807 17.9918 150.997 17.8314 150.718 17.7048C150.423 17.5782 150.228 17.4178 150.085 17.1815C149.908 16.9029 149.874 16.751 149.874 16.2107C149.874 15.6452 149.908 15.527 150.127 15.1556C150.33 14.8432 150.507 14.6829 150.887 14.4887C151.343 14.2523 151.461 14.2355 152.398 14.2101C153.2 14.1848 153.537 14.2101 153.968 14.3283C154.272 14.4127 154.66 14.59 154.837 14.7166C155.015 14.8601 155.234 15.1387 155.361 15.4004C155.479 15.6367 155.605 16.0081 155.639 16.2192L155.707 16.599L159.708 16.6412C159.708 16.1516 159.649 15.7464 159.573 15.4172C159.505 15.0965 159.311 14.5647 159.134 14.2439C158.965 13.9231 158.636 13.4673 158.4 13.2394C158.172 13.003 157.792 12.6907 157.555 12.5472C157.327 12.3953 156.863 12.1758 156.542 12.0407C156.222 11.9141 155.605 11.7369 155.192 11.644C154.677 11.5343 153.968 11.4752 152.997 11.4499C151.984 11.4245 151.334 11.4499 150.802 11.5343ZM90.4899 11.5849C90.2789 11.6271 89.8737 11.7791 89.5867 11.9141C89.2913 12.0576 88.8607 12.3446 88.6244 12.5725C88.388 12.792 88.0842 13.1381 87.9491 13.3491C87.8225 13.5602 87.5777 14.0329 87.4089 14.4043L87.1134 15.0796V11.7875C85.2479 11.6947 84.37 11.6693 83.948 11.6862L83.1882 11.7031L83.146 28.1213H87.2822C87.3329 19.7814 87.3498 19.2327 87.4933 18.7093C87.5777 18.3885 87.7212 17.9496 87.8056 17.7386C87.8984 17.5275 88.1095 17.1561 88.2783 16.9029C88.4556 16.6497 88.7848 16.2951 89.0127 16.1179C89.249 15.949 89.6458 15.7211 89.899 15.6114C90.2873 15.4594 90.5828 15.4172 91.7561 15.3835L93.1489 15.3328V11.7031C92.4314 11.5512 91.9165 11.5089 91.5451 11.5089C91.1736 11.5089 90.7009 11.5427 90.4899 11.5849ZM94.9215 11.72C94.8793 11.7453 94.854 15.451 94.8625 19.9502L94.8793 28.1213H99.0155V11.7875C97.5468 11.6862 96.6351 11.6609 96.0527 11.6609C95.4702 11.6609 94.9638 11.6862 94.9215 11.72ZM140.15 11.72L139.449 11.7453V28.1213H143.585L143.627 11.7706C141.99 11.6862 141.365 11.6693 141.179 11.6778C140.994 11.6862 140.529 11.7031 140.15 11.72ZM39.716 36.6891C39.5302 36.7566 39.2854 36.8833 39.1673 36.9677C39.0491 37.0521 38.8887 37.2547 38.8127 37.4151C38.7199 37.5923 38.6608 37.8962 38.6608 38.1917C38.6608 38.5968 38.6946 38.715 38.8972 38.9345C39.0238 39.078 39.277 39.2468 39.4627 39.3059C39.6484 39.3734 40.0789 39.4663 40.4166 39.5169C40.7458 39.5591 41.1172 39.6435 41.2354 39.6858C41.3535 39.7364 41.5055 39.863 41.573 39.9812C41.6659 40.1331 41.6743 40.2598 41.6237 40.4286C41.5899 40.5552 41.4633 40.724 41.3535 40.8084C41.21 40.9182 40.999 40.9604 40.6023 40.9604C40.1887 40.9604 40.003 40.9182 39.8426 40.8C39.7244 40.7156 39.5893 40.513 39.5387 40.3526C39.4458 40.0741 39.429 40.0656 38.9478 40.0403L38.4498 40.015C38.5595 40.5805 38.6608 40.8506 38.7452 40.9941C38.8296 41.1376 39.066 41.3402 39.2686 41.45C39.5387 41.6104 39.7919 41.6694 40.3068 41.6948C40.6951 41.7201 41.1678 41.6948 41.4042 41.6357C41.6405 41.5766 41.9529 41.4246 42.1133 41.3065C42.2736 41.1798 42.4593 40.9519 42.5184 40.8084C42.5775 40.6565 42.6282 40.3526 42.6282 40.1331C42.6282 39.8799 42.5691 39.6267 42.4594 39.4578C42.3581 39.289 42.1301 39.1118 41.8938 39.002C41.6659 38.9007 41.1678 38.7657 40.7711 38.7066C40.3744 38.639 40.0283 38.5884 39.9945 38.5884C39.9523 38.5884 39.851 38.5124 39.7582 38.4196C39.6653 38.3267 39.5893 38.1579 39.5893 38.0397C39.5893 37.9215 39.6991 37.7189 39.8341 37.5754C40.0452 37.3644 40.1465 37.3222 40.4925 37.3222C40.712 37.3222 40.9906 37.3729 41.1088 37.4319C41.2269 37.491 41.3873 37.6767 41.4717 37.854C41.6152 38.1579 41.6237 38.1663 42.0795 38.1663H42.5438C42.4594 37.7443 42.3834 37.5164 42.3243 37.3897C42.2568 37.2547 42.0795 37.0605 41.936 36.9508C41.7841 36.8411 41.5055 36.706 41.3198 36.6554C41.1341 36.6047 40.7711 36.5625 40.5179 36.5625C40.2646 36.5709 39.9017 36.6216 39.716 36.6891ZM72.7211 36.7144C72.6367 36.7989 72.5692 36.9508 72.5776 37.0521C72.5861 37.1534 72.6536 37.2969 72.7211 37.3644C72.7887 37.4319 72.9744 37.491 73.1263 37.491C73.2867 37.4995 73.4471 37.4404 73.523 37.3475C73.5821 37.2631 73.6412 37.1027 73.6328 36.9846C73.6243 36.8664 73.5568 36.7229 73.464 36.6638C73.3796 36.6047 73.2107 36.5625 73.0925 36.5625C72.9744 36.5625 72.8055 36.63 72.7211 36.7144ZM102.603 36.6385C102.46 36.6722 102.223 36.7651 102.08 36.8411C101.928 36.917 101.717 37.1027 101.615 37.2547C101.455 37.4826 101.421 37.6514 101.421 38.1326C101.421 38.6222 101.455 38.7741 101.59 38.926C101.683 39.0273 101.869 39.1708 102.012 39.2384C102.156 39.3143 102.612 39.4241 103.025 39.4916C103.447 39.5591 103.911 39.6689 104.063 39.7364C104.243 39.8152 104.35 39.9334 104.384 40.0909C104.409 40.2176 104.393 40.4033 104.342 40.513C104.291 40.6143 104.165 40.7578 104.063 40.8253C103.937 40.9097 103.675 40.9604 103.321 40.9604C102.907 40.9604 102.721 40.9266 102.561 40.8C102.443 40.7156 102.308 40.513 102.257 40.3526C102.164 40.0741 102.147 40.0656 101.683 40.0487L101.21 40.0234C101.286 40.513 101.362 40.7493 101.421 40.8675C101.48 40.9857 101.641 41.1799 101.793 41.3149C101.936 41.4415 102.198 41.5766 102.375 41.6272C102.544 41.6694 102.974 41.7116 103.321 41.7116C103.684 41.7116 104.114 41.661 104.334 41.585C104.545 41.5091 104.806 41.3656 104.908 41.2643C105.017 41.163 105.161 40.9773 105.228 40.8506C105.296 40.7156 105.346 40.4117 105.346 40.1753C105.346 39.8771 105.29 39.6379 105.178 39.4578C105.085 39.3059 104.857 39.1033 104.671 39.0105C104.485 38.9176 103.962 38.7825 103.515 38.7066C103.059 38.6306 102.62 38.5378 102.544 38.4955C102.46 38.4533 102.367 38.3352 102.341 38.2339C102.316 38.1241 102.341 37.93 102.4 37.7865C102.468 37.6514 102.612 37.491 102.73 37.4235C102.848 37.3644 103.126 37.3222 103.38 37.3391C103.7 37.356 103.861 37.4151 104.03 37.5754C104.148 37.6936 104.266 37.8709 104.291 37.9806C104.325 38.141 104.384 38.1663 104.798 38.1663C105.11 38.1663 105.262 38.1326 105.262 38.065C105.262 38.006 105.22 37.8202 105.178 37.6599C105.127 37.4995 104.967 37.2378 104.815 37.0859C104.654 36.9255 104.376 36.7566 104.122 36.6807C103.895 36.6132 103.515 36.5625 103.278 36.5709C103.05 36.5794 102.747 36.6047 102.603 36.6385ZM120.161 36.7144C120.076 36.7989 120.009 36.9424 120.017 37.0352C120.026 37.1196 120.093 37.2631 120.178 37.3391C120.262 37.4235 120.456 37.491 120.608 37.491C120.794 37.491 120.921 37.4319 121.005 37.3053C121.072 37.1956 121.132 37.0605 121.132 37.0099C121.132 36.9508 121.056 36.8242 120.963 36.7313C120.87 36.6385 120.684 36.5625 120.549 36.5625C120.422 36.5625 120.245 36.63 120.161 36.7144ZM61.03 39.0273C60.5404 40.3357 60.1353 41.4584 60.1268 41.5175C60.11 41.5935 60.2366 41.6272 60.5911 41.6272H61.0722L61.4183 40.6565L63.6046 40.6058L63.9507 41.585L64.9974 41.6272C64.8201 41.2052 64.3981 40.0825 63.9507 38.867L63.1403 36.6469H61.9079L61.03 39.0273ZM62.1358 38.6475C62.3384 38.1072 62.5241 37.6852 62.5495 37.7105C62.5748 37.7358 62.7605 38.2085 62.9546 38.7488C63.1572 39.289 63.3176 39.7533 63.3176 39.7955C63.3176 39.8293 62.9546 39.8546 62.5157 39.8546C61.9164 39.8546 61.7222 39.8293 61.7391 39.7533C61.756 39.6942 61.9332 39.1962 62.1358 38.6475ZM82.648 39.1371V41.6272H83.5765V36.6469H82.648V39.1371ZM130.088 39.1371V41.6272C130.898 41.6272 130.932 41.6104 130.932 41.4162V41.2052C131.32 41.5344 131.54 41.6526 131.666 41.6779C131.793 41.7116 132.097 41.7201 132.325 41.7032C132.62 41.6779 132.848 41.6019 133.042 41.45C133.202 41.3318 133.405 41.087 133.498 40.9013C133.582 40.724 133.675 40.3273 133.692 40.0234C133.717 39.7195 133.692 39.3143 133.641 39.1202C133.591 38.9176 133.422 38.6222 133.27 38.4449C133.118 38.2761 132.873 38.0904 132.721 38.0228C132.569 37.9637 132.299 37.9131 132.114 37.9131C131.928 37.9131 131.692 37.9553 131.582 38.0059C131.48 38.0566 131.303 38.1832 131.202 38.2845L131.008 38.4618L131.016 36.6469H130.088V39.1371ZM131.354 38.8416C131.466 38.7291 131.635 38.6728 131.86 38.6728C132.046 38.6728 132.274 38.715 132.367 38.7572C132.46 38.8079 132.595 39.002 132.671 39.2046C132.764 39.441 132.789 39.7111 132.755 40.0234C132.73 40.2935 132.645 40.5721 132.553 40.6987C132.46 40.8169 132.257 40.9435 132.105 40.9857C131.894 41.0364 131.742 41.0279 131.565 40.9435C131.421 40.876 131.244 40.6903 131.16 40.5299C131.084 40.3695 131.016 40.0572 131.016 39.8377C131.016 39.6098 131.05 39.3397 131.101 39.2215C131.143 39.1033 131.261 38.9345 131.354 38.8416ZM134.224 39.1371V41.6272H135.152V36.6469H134.224V39.1371ZM141.846 36.7313C141.813 36.782 141.813 37.8962 141.863 39.2215L141.948 41.6272H142.834L142.876 39.4747L145.282 39.4325V38.6728H142.834V37.491H145.535V36.6469C142.614 36.6469 141.889 36.6807 141.846 36.7313ZM56.4802 37.4488V37.9975C55.9822 37.9975 55.9737 38.0144 55.9737 38.3352C55.9737 38.6559 55.9822 38.6728 56.227 38.6728H56.4802C56.4802 40.2766 56.514 40.8844 56.5646 41.0617C56.6068 41.2305 56.7335 41.4331 56.8348 41.5006C56.9614 41.585 57.2315 41.6272 57.6367 41.6272H58.2529C58.2107 41.011 58.1938 40.9941 57.873 40.9519L57.5354 40.9097L57.4932 38.6728H58.2529V37.9975H57.4932L57.451 36.9424L56.4887 36.8917L56.4802 37.4488ZM84.6655 37.4573V38.0059C84.1759 38.0059 84.159 38.0228 84.159 38.3436C84.159 38.6559 84.1759 38.6812 84.4122 38.6812H84.6655C84.6655 40.2766 84.7077 40.8844 84.7499 41.0617C84.8005 41.2389 84.9187 41.4331 85.0284 41.5091C85.1551 41.5935 85.4252 41.6357 85.8304 41.6357H86.4381C86.3959 41.011 86.379 40.9941 86.0583 40.9604L85.7206 40.9182L85.6784 38.6812H86.4381V38.0059H85.6784V36.9086H84.6655V37.4573ZM113.957 37.4573V38.0059C113.467 38.0059 113.45 38.0228 113.45 38.3436C113.45 38.6559 113.467 38.6812 113.703 38.6812H113.957C113.965 40.2175 113.999 40.8169 114.041 41.0026C114.083 41.1883 114.21 41.4078 114.311 41.4837C114.463 41.6019 114.657 41.6357 115.121 41.6357H115.729C115.687 41.011 115.67 40.9941 115.349 40.9604L115.012 40.9182L114.969 38.6812H115.729V38.0059H114.969V36.9086H113.957V37.4573ZM150.38 36.9592C150.347 36.993 150.321 37.2378 150.33 37.5079L150.338 38.0059C149.849 38.0059 149.832 38.0228 149.832 38.3436C149.832 38.6559 149.849 38.6812 150.085 38.6812C150.33 38.6812 150.338 38.6981 150.355 39.0358C150.355 39.2299 150.372 39.7195 150.389 40.1163C150.406 40.5046 150.439 40.9519 150.465 41.1039C150.49 41.2558 150.591 41.4331 150.701 41.5091C150.828 41.5935 151.098 41.6357 151.503 41.6357H152.111V40.9604L151.393 40.9182L151.351 38.6812H152.111V38.0059H151.351V36.9086C150.659 36.9086 150.423 36.9339 150.38 36.9592ZM44.6794 38.0819C44.5275 38.1748 44.3671 38.3183 44.3249 38.4027C44.2573 38.5209 44.2404 38.4955 44.2404 38.2761C44.232 38.006 44.232 38.0059 43.8099 38.0059H43.3879V41.6357H44.232C44.232 40.0318 44.2742 39.4241 44.3164 39.2468C44.3671 39.0695 44.4852 38.8754 44.595 38.7994C44.6963 38.7319 44.8482 38.6728 44.9326 38.6728C45.0086 38.6812 45.1521 38.7572 45.245 38.8501C45.4053 39.002 45.4138 39.1286 45.4138 40.3273V41.6357H46.3423V39.1877C46.7306 38.791 46.9079 38.6728 46.9923 38.6728C47.0767 38.6728 47.2202 38.7319 47.3131 38.7994C47.4734 38.9092 47.4819 39.0273 47.5072 40.2766L47.5241 41.6357H48.3682C48.3682 39.002 48.3429 38.7066 48.2247 38.4533C48.1234 38.2507 47.9799 38.0988 47.8026 38.0313C47.6507 37.9637 47.4143 37.9215 47.2708 37.9215C47.1358 37.9215 46.9163 37.9722 46.7897 38.0397C46.6631 38.0988 46.4858 38.2339 46.4098 38.3352L46.2579 38.5124C45.8443 38.0397 45.7177 37.9806 45.3716 37.9469C45.0508 37.9131 44.8904 37.9469 44.6794 38.0819ZM50.0987 38.0228C49.9636 38.0819 49.7863 38.1663 49.7188 38.217C49.6428 38.2592 49.5162 38.3942 49.4402 38.5124C49.3643 38.6222 49.2967 38.8248 49.2967 38.9514C49.2967 39.1708 49.3136 39.1877 49.7188 39.1877C50.0902 39.1877 50.1493 39.1624 50.2253 38.9767C50.2759 38.8585 50.3857 38.7234 50.4785 38.6812C50.5714 38.6306 50.7655 38.5968 50.9006 38.5968C51.0441 38.5968 51.2298 38.6644 51.3226 38.7657C51.4155 38.8585 51.4915 39.0273 51.4915 39.1455C51.4915 39.2721 51.4408 39.365 51.348 39.3903C51.2635 39.4156 50.8837 39.4663 50.5038 39.5169C50.1155 39.5676 49.6935 39.6689 49.55 39.7533C49.4065 39.8377 49.2377 40.0234 49.1701 40.1753C49.1026 40.3273 49.0435 40.5299 49.0435 40.6227C49.0435 40.7156 49.1026 40.9182 49.1701 41.087C49.2377 41.2474 49.4234 41.4584 49.5753 41.5513C49.7948 41.6948 49.9552 41.7201 50.4532 41.7032C50.9934 41.6779 51.0863 41.6441 51.3142 41.4246L51.5674 41.1714C51.6181 41.5681 51.6603 41.5935 52.0401 41.6104L52.4622 41.6357C52.4115 39.0695 52.3778 38.7572 52.2596 38.5546C52.1836 38.4111 51.981 38.2254 51.8291 38.1326C51.6321 38.0256 51.3367 37.9637 50.9428 37.9469C50.6136 37.93 50.2422 37.9637 50.0987 38.0228ZM50.8499 40.0656C51.1791 40.015 51.4577 39.9643 51.4746 39.9559C51.483 39.9474 51.4915 40.074 51.4915 40.2429C51.4915 40.4455 51.4239 40.6143 51.2467 40.8084C51.0441 41.0279 50.9343 41.087 50.6642 41.087C50.4447 41.087 50.2675 41.0279 50.1493 40.9182C50.048 40.8253 49.972 40.6903 49.972 40.6227C49.972 40.5468 50.0311 40.4201 50.1071 40.3357C50.1999 40.226 50.4616 40.1331 50.8499 40.0656ZM54.7244 38.0397C54.6147 38.1157 54.4543 38.293 54.3615 38.4449L54.1926 38.7234V38.0059H53.3485V41.6357H54.2771C54.2771 39.8039 54.3108 39.4494 54.4037 39.2721C54.4712 39.1286 54.6485 38.9598 54.7835 38.8923C54.927 38.8163 55.1549 38.7657 55.29 38.7657C55.5432 38.7657 55.5432 38.7572 55.5264 38.3605C55.501 37.9722 55.501 37.9553 55.2056 37.9384C55.0452 37.9215 54.8257 37.9722 54.7244 38.0397ZM71.1004 38.0397C70.9907 38.1157 70.8303 38.293 70.7374 38.4449L70.5686 38.7234V38.0059H69.7245V41.6357H70.653C70.653 39.8039 70.6868 39.4494 70.7796 39.2721C70.8472 39.1286 71.0244 38.9598 71.1595 38.8923C71.303 38.8163 71.5309 38.7657 71.666 38.7657C71.9192 38.7657 71.9192 38.7572 71.9023 38.3605C71.877 37.9722 71.877 37.9553 71.5816 37.9384C71.4212 37.9215 71.2017 37.9722 71.1004 38.0397ZM75.3379 38.0735C75.1522 38.1579 74.8821 38.3605 74.747 38.5124C74.5866 38.6897 74.4431 38.9851 74.3756 39.2721C74.3165 39.5254 74.2828 39.9052 74.3081 40.1163C74.3334 40.3188 74.4263 40.648 74.5191 40.8338C74.612 41.0195 74.7555 41.2305 74.8483 41.3065C74.9327 41.3909 75.1438 41.5091 75.321 41.585C75.4899 41.661 75.8697 41.7201 76.1652 41.7201C76.5535 41.7201 76.7898 41.6694 77.0684 41.5259C77.3132 41.3993 77.5157 41.2052 77.6424 40.9941C77.7437 40.8084 77.8281 40.5552 77.8281 40.4286C77.8281 40.2091 77.8112 40.2007 77.406 40.2007C77.0008 40.2007 76.9839 40.2091 76.8995 40.4961C76.8404 40.6987 76.7307 40.8338 76.545 40.9266C76.3593 41.0195 76.1652 41.0448 75.9541 41.011C75.7431 40.9773 75.5743 40.876 75.4645 40.724C75.3717 40.5974 75.2704 40.3442 75.2451 40.1585C75.2197 39.9728 75.2282 39.6689 75.2619 39.4832C75.2957 39.2975 75.4139 39.0358 75.5236 38.9092C75.684 38.7235 75.7937 38.6728 76.0807 38.6728C76.3002 38.6728 76.5197 38.7319 76.6463 38.8332C76.7645 38.9176 76.8911 39.0864 76.9249 39.213C76.984 39.4156 77.0262 39.441 77.406 39.441C77.7774 39.441 77.8281 39.4156 77.8281 39.2721C77.8281 39.1793 77.7774 38.9767 77.7183 38.8248C77.6592 38.6728 77.482 38.4449 77.3385 38.3183C77.1865 38.1917 76.9249 38.0482 76.756 38.0059C76.5788 37.9553 76.2664 37.9215 76.0554 37.9215C75.8444 37.9215 75.5236 37.9891 75.3379 38.0735ZM92.0178 38.2507L91.7054 38.5968L91.6717 38.0059H90.8276V41.6357H91.7561C91.7561 39.9052 91.7983 39.5169 91.8827 39.3143C91.9587 39.1455 92.1191 38.9598 92.2626 38.8923C92.4061 38.8163 92.634 38.7657 92.769 38.7657C93.0223 38.7657 93.0223 38.7572 93.0054 38.3605C92.9801 37.9637 92.9801 37.9637 92.6593 37.93C92.3723 37.9131 92.2963 37.9469 92.0178 38.2507ZM94.6683 38.0735C94.4826 38.1579 94.2125 38.3605 94.0774 38.5124C93.917 38.6897 93.7735 38.9851 93.706 39.2721C93.6469 39.5254 93.6132 39.9052 93.6385 40.1163C93.6638 40.3188 93.7567 40.648 93.8495 40.8338C93.9424 41.0195 94.0859 41.2305 94.1787 41.3065C94.2631 41.3909 94.4742 41.5091 94.6514 41.585C94.8203 41.661 95.2001 41.7201 95.4956 41.7201C95.8754 41.7201 96.1286 41.661 96.3988 41.5259C96.6013 41.4246 96.8377 41.2389 96.9137 41.1292C96.9981 41.011 97.0825 40.8253 97.1078 40.724C97.1585 40.5468 97.1331 40.5383 96.7617 40.5299C96.4072 40.5299 96.3312 40.5636 96.1709 40.7831C96.0527 40.9435 95.867 41.0617 95.7066 41.0954C95.5209 41.1292 95.3183 41.0954 95.0904 40.9857C94.8371 40.8675 94.7274 40.7578 94.6514 40.513C94.5923 40.3357 94.5586 40.1585 94.5839 40.1163C94.6092 40.0656 95.1579 40.0318 95.9598 40.0318H97.2851C97.1922 39.2721 97.0656 38.8923 96.9474 38.6981C96.7955 38.4365 96.6182 38.2845 96.2975 38.1326C96.002 37.9891 95.7066 37.9215 95.428 37.9215C95.2001 37.9215 94.854 37.9891 94.6683 38.0735ZM94.8371 38.8163C95.006 38.6559 95.1663 38.5968 95.4027 38.5968C95.58 38.5968 95.7994 38.6306 95.8923 38.6812C95.9851 38.7234 96.1202 38.8754 96.1877 39.0189C96.2553 39.154 96.3143 39.3059 96.3143 39.3565C96.3143 39.4072 95.9683 39.441 95.428 39.441C94.6768 39.441 94.5501 39.4156 94.5839 39.3143C94.6092 39.2384 94.6261 39.154 94.6177 39.1117C94.6092 39.0695 94.7105 38.9345 94.8371 38.8163ZM110.875 38.0397C110.69 38.1157 110.47 38.2423 110.386 38.3183C110.301 38.4027 110.2 38.6053 110.158 38.7825C110.107 38.9598 110.099 39.2046 110.133 39.3312C110.158 39.4578 110.259 39.652 110.361 39.7533C110.462 39.863 110.656 39.9812 110.791 40.0318C110.935 40.074 111.289 40.15 111.593 40.1922C111.897 40.2429 112.192 40.3357 112.251 40.3864C112.31 40.4455 112.361 40.5805 112.361 40.6818C112.353 40.7831 112.268 40.9266 112.167 41.0026C112.057 41.0701 111.829 41.1292 111.66 41.1292C111.433 41.1292 111.281 41.0617 111.129 40.9182C111.011 40.8 110.918 40.6649 110.918 40.6227C110.918 40.5721 110.707 40.5383 110.453 40.5383C109.998 40.5383 109.989 40.5383 110.04 40.7662C110.065 40.8929 110.141 41.087 110.209 41.1883C110.276 41.2896 110.487 41.45 110.69 41.5428C110.943 41.6694 111.23 41.7116 111.677 41.7116C112.133 41.7116 112.412 41.6694 112.673 41.5428C112.868 41.45 113.095 41.2727 113.171 41.1461C113.256 41.0195 113.315 40.7662 113.315 40.5805C113.315 40.3864 113.239 40.1331 113.146 40.0065C113.062 39.8715 112.842 39.7111 112.673 39.6435C112.496 39.576 112.099 39.4832 111.787 39.4325C111.475 39.3819 111.188 39.3228 111.154 39.3059C111.12 39.2806 111.086 39.1624 111.086 39.0358C111.086 38.9092 111.129 38.7572 111.188 38.6981C111.255 38.6306 111.466 38.5968 111.72 38.6137C112.091 38.6306 112.159 38.6644 112.251 38.867C112.344 39.078 112.395 39.1033 112.775 39.1033C113.146 39.1033 113.197 39.078 113.197 38.9345C113.197 38.8416 113.129 38.6475 113.053 38.5124C112.969 38.3774 112.792 38.2001 112.648 38.1157C112.496 38.0313 112.167 37.9637 111.804 37.9469C111.416 37.9215 111.095 37.9553 110.875 38.0397ZM116.995 38.0059C116.835 38.0482 116.582 38.217 116.43 38.3774C116.244 38.58 116.151 38.7657 116.151 38.9345C116.151 39.1793 116.16 39.1877 116.573 39.1877C116.945 39.1877 117.004 39.1624 117.08 38.9767C117.13 38.8585 117.24 38.7234 117.333 38.6812C117.426 38.6306 117.612 38.5968 117.738 38.5884C117.865 38.5884 118.05 38.6475 118.16 38.715C118.284 38.8051 118.346 38.9345 118.346 39.1033C118.346 39.2721 118.298 39.3706 118.202 39.3988C118.118 39.4156 117.738 39.4747 117.358 39.5254C116.97 39.5676 116.548 39.6689 116.404 39.7533C116.261 39.8377 116.092 40.0234 116.025 40.1753C115.957 40.3273 115.898 40.5299 115.898 40.6227C115.898 40.7156 115.957 40.9182 116.025 41.087C116.092 41.2474 116.278 41.4584 116.43 41.5513C116.649 41.6948 116.81 41.7201 117.308 41.7032C117.856 41.6779 117.941 41.6526 118.169 41.4246L118.413 41.1714C118.515 41.6103 118.549 41.6357 118.92 41.6357L119.317 41.6272C119.283 39.6351 119.249 38.9429 119.232 38.8079C119.215 38.6644 119.089 38.4533 118.962 38.3267C118.836 38.2001 118.574 38.065 118.388 38.0144C118.202 37.9637 117.882 37.9215 117.671 37.93C117.46 37.93 117.156 37.9722 116.995 38.0059ZM118.287 39.9812L118.321 40.1922C118.337 40.3104 118.304 40.513 118.245 40.6481C118.186 40.7747 118.017 40.9351 117.865 41.0026C117.713 41.0701 117.476 41.1039 117.333 41.087C117.198 41.0617 117.021 40.9519 116.953 40.8506C116.886 40.7494 116.827 40.6227 116.827 40.5805C116.827 40.5299 116.886 40.4201 116.962 40.3273C117.054 40.226 117.308 40.1331 117.696 40.074L118.287 39.9812ZM123.284 38.0482C123.149 38.1241 122.963 38.2676 122.887 38.3689L122.744 38.5546C122.735 38.0059 122.735 38.0059 122.313 38.0059H121.891V41.6357H122.82C122.862 39.0864 122.862 39.0864 123.098 38.8838C123.233 38.7657 123.436 38.6812 123.579 38.6812C123.723 38.6812 123.909 38.7572 124.002 38.8501C124.154 39.002 124.17 39.1286 124.17 40.3273V41.6357H125.099C125.099 39.0442 125.074 38.7572 124.955 38.5124C124.871 38.3436 124.677 38.1495 124.508 38.065C124.348 37.9891 124.061 37.9215 123.875 37.9215C123.689 37.9215 123.428 37.9806 123.284 38.0482ZM126.956 38.0144C126.796 38.0482 126.542 38.217 126.39 38.3858C126.205 38.5828 126.112 38.7657 126.112 38.9345C126.112 39.1793 126.12 39.1877 126.534 39.1877C126.905 39.1877 126.964 39.1624 127.04 38.9767C127.091 38.8585 127.201 38.7234 127.294 38.6812C127.386 38.6306 127.572 38.5968 127.699 38.5968C127.825 38.5968 128.011 38.6475 128.121 38.7234C128.245 38.8079 128.307 38.9345 128.307 39.1033C128.307 39.2721 128.259 39.3678 128.163 39.3903C128.079 39.4156 127.699 39.4747 127.319 39.5169C126.931 39.5676 126.509 39.6773 126.365 39.7533C126.222 39.8377 126.053 40.0234 125.985 40.1753C125.918 40.3273 125.859 40.5299 125.859 40.6227C125.859 40.7156 125.918 40.9266 125.985 41.087C126.053 41.2474 126.238 41.4584 126.39 41.5513C126.576 41.6694 126.812 41.7201 127.15 41.7201C127.412 41.7201 127.724 41.6779 127.842 41.6357C127.96 41.585 128.129 41.4669 128.214 41.3571L128.374 41.1714C128.475 41.6188 128.509 41.6357 128.897 41.6357H129.32C129.252 39.6351 129.21 38.9429 129.193 38.8079C129.176 38.6644 129.049 38.4533 128.923 38.3267C128.796 38.2085 128.535 38.065 128.349 38.0144C128.163 37.9637 127.842 37.9215 127.631 37.93C127.42 37.93 127.116 37.9722 126.956 38.0144ZM128.239 39.9896L128.281 40.2007C128.298 40.3188 128.264 40.5214 128.205 40.6565C128.138 40.8084 127.986 40.9519 127.8 41.0195C127.64 41.087 127.403 41.1208 127.277 41.087C127.15 41.0617 126.981 40.9604 126.914 40.8506C126.846 40.7494 126.787 40.6227 126.787 40.5805C126.787 40.5299 126.846 40.4201 126.922 40.3357C127.015 40.2344 127.268 40.1416 127.648 40.0825L128.239 39.9896ZM136.959 38.0482C136.773 38.1157 136.495 38.3014 136.343 38.4449C136.165 38.6222 136.013 38.8923 135.929 39.1877C135.853 39.4747 135.819 39.8124 135.845 40.074C135.87 40.3104 135.963 40.6565 136.064 40.8591C136.174 41.0701 136.385 41.3065 136.596 41.45C136.891 41.6441 137.052 41.6779 137.626 41.7032C138.217 41.7201 138.36 41.6948 138.647 41.5344C138.833 41.4246 139.069 41.2052 139.179 41.0448C139.28 40.8844 139.373 40.6987 139.365 40.6481C139.365 40.5721 139.23 40.5383 138.968 40.5383C138.613 40.5383 138.537 40.5636 138.377 40.7915C138.267 40.9266 138.082 41.0701 137.955 41.0954C137.828 41.1208 137.583 41.1039 137.423 41.0532C137.263 41.011 137.069 40.8844 136.993 40.7747C136.917 40.6649 136.841 40.4708 136.824 40.3273L136.79 40.074L139.449 40.0318C139.449 39.4663 139.356 39.1286 139.238 38.8754C139.103 38.5884 138.909 38.352 138.715 38.217C138.478 38.0566 138.25 37.9891 137.845 37.9553C137.474 37.93 137.187 37.9637 136.959 38.0482ZM137.161 38.7488C137.271 38.6644 137.491 38.5968 137.651 38.5968C137.803 38.5968 138.006 38.639 138.098 38.6812C138.191 38.7319 138.326 38.8838 138.394 39.0189C138.461 39.1624 138.52 39.3143 138.52 39.3565C138.52 39.4072 138.174 39.441 136.748 39.441L136.858 39.1708C136.917 39.0273 137.052 38.8332 137.161 38.7488ZM157.961 38.0059C157.859 38.0397 157.682 38.2001 157.564 38.3605L157.344 38.639V38.0059H156.5V41.6357H157.429C157.429 39.8293 157.463 39.5423 157.581 39.2975C157.674 39.1033 157.826 38.9514 158.003 38.8754C158.155 38.8163 158.366 38.7657 158.484 38.7657C158.687 38.7657 158.695 38.7403 158.678 38.3689C158.653 37.9806 158.644 37.9637 158.4 37.9469C158.264 37.9384 158.062 37.9637 157.961 38.0059ZM160.425 38.0482C160.24 38.1157 160.003 38.2592 159.894 38.3689C159.784 38.4702 159.615 38.7066 159.514 38.8923C159.387 39.1455 159.337 39.3903 159.337 39.8715C159.328 40.437 159.362 40.5552 159.581 40.9182C159.75 41.1883 159.961 41.3909 160.214 41.5259C160.51 41.6779 160.729 41.7201 161.185 41.7201C161.641 41.7201 161.86 41.6694 162.114 41.5259C162.299 41.4246 162.536 41.2052 162.645 41.0448C162.747 40.8844 162.84 40.6987 162.831 40.6481C162.831 40.5721 162.696 40.5383 162.434 40.5383C162.08 40.5383 162.004 40.5636 161.844 40.7915C161.734 40.9266 161.548 41.0701 161.422 41.0954C161.295 41.1208 161.042 41.1039 160.873 41.0532C160.662 40.9941 160.51 40.876 160.434 40.7325C160.375 40.5974 160.307 40.4033 160.29 40.2851L160.257 40.074L162.958 40.0318C162.857 39.1286 162.772 38.8838 162.603 38.6475C162.477 38.4618 162.232 38.2339 162.071 38.141C161.894 38.0397 161.573 37.9637 161.27 37.9469C160.957 37.93 160.636 37.9637 160.425 38.0482ZM160.628 38.7488C160.738 38.6644 160.957 38.5968 161.118 38.5968C161.27 38.5968 161.472 38.639 161.565 38.6812C161.658 38.7319 161.793 38.8838 161.86 39.0189C161.928 39.1624 161.987 39.3143 161.987 39.3565C161.987 39.4072 161.641 39.441 160.214 39.441L160.324 39.1708C160.383 39.0273 160.518 38.8332 160.628 38.7488ZM72.6789 39.8208V41.6357H73.6075V38.0059H72.6789V39.8208ZM78.5034 39.441C78.5034 40.513 78.5371 40.9435 78.63 41.1545C78.6975 41.298 78.8748 41.4922 79.0267 41.585C79.2378 41.7032 79.4319 41.7285 79.8286 41.7116C80.2676 41.6863 80.3858 41.6357 80.6137 41.4246L80.8754 41.1714C80.8669 41.6272 80.8838 41.6357 81.289 41.6357H81.711V38.0059H80.7825C80.7825 40.015 80.7487 40.437 80.6728 40.6058C80.6052 40.7325 80.4955 40.8591 80.4195 40.9013C80.3436 40.9351 80.141 40.9604 79.9806 40.9604C79.7696 40.9604 79.6514 40.9097 79.5585 40.7747C79.4572 40.6227 79.4319 40.302 79.4319 39.2975V38.0059H78.5034V39.441ZM86.7758 39.441C86.7758 40.513 86.8095 40.9435 86.9024 41.1545C86.9699 41.298 87.1472 41.4922 87.2991 41.585C87.5101 41.7032 87.7043 41.7285 88.101 41.7116C88.54 41.6863 88.6582 41.6357 88.8861 41.4246L89.1478 41.1714C89.1393 41.6272 89.1562 41.6357 89.5614 41.6357H89.9834V38.0059H89.0549C89.0549 40.015 89.0211 40.437 88.9452 40.6058C88.8776 40.7325 88.7679 40.8591 88.6919 40.9013C88.616 40.9351 88.4134 40.9604 88.253 40.9604C88.042 40.9604 87.9238 40.9097 87.8309 40.7747C87.7296 40.6227 87.7043 40.302 87.7043 39.2975V38.0059H86.7758V39.441ZM106.106 39.4663C106.106 40.7662 106.123 40.9435 106.275 41.1967C106.368 41.3402 106.554 41.5344 106.68 41.6104C106.849 41.7117 107.043 41.737 107.431 41.7116C107.87 41.6863 107.997 41.6357 108.216 41.4246L108.478 41.1714C108.47 41.6272 108.487 41.6357 108.892 41.6357H109.314V38.0059H108.385C108.385 40.015 108.352 40.437 108.276 40.6058C108.208 40.7325 108.098 40.8591 108.022 40.9013C107.946 40.9351 107.744 40.9604 107.583 40.9604C107.372 40.9604 107.254 40.9097 107.161 40.7747C107.06 40.6227 107.035 40.302 107.035 39.2975V38.0059H106.106V39.4663ZM120.119 39.8293V41.6441H121.047V38.0144H120.119V39.8293ZM145.949 39.4072C145.949 40.361 145.982 40.8844 146.058 41.0701C146.126 41.2221 146.286 41.4331 146.421 41.5428C146.632 41.7116 146.742 41.737 147.232 41.7116C147.721 41.6863 147.831 41.6526 148.059 41.4331L148.321 41.1798C148.312 41.6272 148.329 41.6441 148.734 41.6441H149.156V38.0144H148.228C148.228 40.015 148.194 40.4455 148.118 40.6058C148.051 40.7325 147.941 40.8675 147.865 40.9013C147.789 40.9351 147.586 40.9688 147.426 40.9688C147.215 40.9688 147.097 40.9097 147.004 40.7747C146.903 40.6227 146.877 40.302 146.877 39.2975V38.0144H145.949V39.4072ZM152.381 39.576L152.406 41.1461C153.073 41.737 153.098 41.7454 153.647 41.7116C154.137 41.6863 154.246 41.6441 154.474 41.4331L154.736 41.1798C154.728 41.6272 154.744 41.6441 155.15 41.6441H155.572V38.0144H154.626C154.601 40.6227 154.601 40.6481 154.39 40.8084C154.263 40.9097 154.052 40.9688 153.867 40.9688C153.63 40.9688 153.512 40.9097 153.419 40.7747C153.318 40.6227 153.293 40.302 153.293 39.2975V38.0144H152.356L152.381 39.576ZM97.876 41.3571C97.8422 41.7623 97.7747 42.1759 97.7325 42.2688C97.6649 42.3954 97.6818 42.4545 97.8 42.5389C97.8929 42.598 98.0279 42.6486 98.1123 42.6486C98.1883 42.6486 98.3402 42.522 98.4415 42.3701C98.6019 42.1422 98.6357 41.9649 98.6441 41.3571L98.661 40.6227H97.9351L97.876 41.3571Z" fill="white"/>
<path d="M18.1908 0.084494C18.098 0.1267 17.9207 0.160467 17.7857 0.160467L17.5577 0.168906V2.53245C17.9798 2.46492 18.6551 2.40583 19.3304 2.36362C20.2167 2.29609 20.892 2.29609 21.7784 2.36362C22.4536 2.41427 23.2302 2.49024 23.5088 2.53245C23.7874 2.57465 24.1672 2.64219 24.3529 2.69283C24.5386 2.73504 24.8425 2.81101 25.0282 2.86166C25.2139 2.90386 25.56 2.99672 25.7879 3.06425C26.0243 3.13178 26.4379 3.27528 26.7165 3.37657C26.995 3.47787 27.3918 3.63824 27.6028 3.7311C27.8138 3.82395 28.2865 4.04343 28.6579 4.21225C29.0294 4.38952 29.5527 4.66808 29.8228 4.83691C30.0845 5.00573 30.3293 5.14923 30.3631 5.14923C30.4053 5.15767 30.8695 5.48687 31.4013 5.88361C31.9331 6.28879 32.8701 7.11603 33.4694 7.7238C34.1869 8.4413 34.8285 9.19257 35.3096 9.87631C35.7233 10.4588 36.1875 11.1594 36.3479 11.4379C36.5083 11.7165 36.77 12.2145 36.9219 12.5353C37.0738 12.8561 37.2849 13.295 37.3777 13.506C37.4706 13.7171 37.6647 14.2235 37.7998 14.6456C37.9349 15.0677 38.0952 15.5741 38.1543 15.7852C38.205 15.9962 38.2894 16.3001 38.3231 16.4605C38.3654 16.6208 38.4413 16.9416 38.4835 17.178C38.5342 17.4059 38.6101 17.9208 38.6524 18.3175C38.703 18.7143 38.7621 19.398 38.779 19.837C38.8043 20.2759 38.7874 21.1285 38.7452 21.7362C38.703 22.344 38.6355 22.9264 38.6017 23.0362L38.5342 23.2472C39.9692 23.1628 40.5094 23.1037 40.6614 23.0699C40.8977 23.0109 40.9484 22.9518 41.0243 22.6394C41.0665 22.4453 41.1087 21.5421 41.1087 20.6389C41.1087 19.7357 41.0665 18.7143 41.0159 18.3766C40.9653 18.0474 40.8977 17.5747 40.8555 17.3468C40.8133 17.1104 40.7205 16.6208 40.6445 16.2494C40.577 15.878 40.4672 15.4222 40.4166 15.2365C40.3659 15.0508 40.1887 14.5021 40.0283 14.0125C39.8679 13.5229 39.64 12.9152 39.5218 12.6619C39.4121 12.4087 39.2095 11.9613 39.0744 11.6658C38.9394 11.3788 38.8296 11.1256 38.8296 11.1003C38.8296 11.075 38.5595 10.6107 38.2303 10.062C37.8926 9.52178 37.2933 8.64389 36.8966 8.11209C36.4998 7.5803 35.7739 6.73618 35.2843 6.24659C34.7947 5.74855 34.2038 5.18299 33.9759 4.9804C33.7396 4.77781 33.2162 4.36419 32.7941 4.05187C32.3721 3.73954 31.6377 3.24995 31.1481 2.95451C30.6585 2.65907 29.9241 2.26233 29.5021 2.06818C29.08 1.87403 28.5735 1.63768 28.3625 1.54483C28.1515 1.45198 27.7716 1.30847 27.5184 1.22406C27.2651 1.13965 26.9781 1.0468 26.8853 1.00459C26.7924 0.970824 26.5476 0.886406 26.3366 0.818876C26.1256 0.751346 25.636 0.616287 25.2393 0.523433C24.8425 0.43058 24.3698 0.329289 24.1841 0.295525C23.9984 0.26176 23.6185 0.194234 23.34 0.152028C23.0614 0.101381 21.829 0.0507312 20.5966 0.0338487C19.3642 0.0254075 18.2837 0.0422879 18.1908 0.084494Z" fill="#EEB72C"/>
</g>
<defs>
<clipPath id="clip0_1922_5719">
<rect width="163" height="43.3879" fill="white"/>
</clipPath>
</defs>
</svg>
