<svg width="32" height="32" viewBox="0 0 32 32" fill="none" xmlns="http://www.w3.org/2000/svg">
<circle cx="16" cy="16" r="16" fill="#F7F7F7"/>
<path d="M25.9996 16.2399C25.9996 15.5377 25.938 14.8711 25.8324 14.2222H15.8906V18.2311H21.583C21.3278 19.5466 20.58 20.6577 19.4714 21.4133V24.0799H22.8675C24.8559 22.2222 25.9996 19.4844 25.9996 16.2399Z" fill="#4285F4"/>
<path d="M15.891 26.6668C18.7416 26.6668 21.1258 25.7068 22.8679 24.0801L19.4718 21.4134C18.5216 22.0534 17.3163 22.4445 15.891 22.4445C13.1372 22.4445 10.8057 20.569 9.96989 18.0356H6.46826V20.7823C8.20148 24.2668 11.7647 26.6668 15.891 26.6668Z" fill="#34A853"/>
<path d="M9.96959 18.0356C9.74964 17.3956 9.63526 16.7111 9.63526 16C9.63526 15.2889 9.75844 14.6044 9.96959 13.9644V11.2178H6.46796C5.74652 12.6578 5.33301 14.2756 5.33301 16C5.33301 17.7244 5.74652 19.3422 6.46796 20.7822L9.96959 18.0356Z" fill="#FBBC05"/>
<path d="M15.891 9.55572C17.4483 9.55572 18.8383 10.0979 19.9381 11.1557L22.947 8.11572C21.1258 6.39127 18.7416 5.3335 15.891 5.3335C11.7647 5.3335 8.20148 7.7335 6.46826 11.2179L9.96989 13.9646C10.8057 11.4313 13.1372 9.55572 15.891 9.55572Z" fill="#EA4335"/>
</svg>
