<svg width="20" height="20" viewBox="0 0 20 20" fill="none" xmlns="http://www.w3.org/2000/svg">
<path d="M18.7365 12.4672C18.6536 11.3637 18.1835 10.3249 17.4091 9.53429C16.6348 8.74367 15.6061 8.25201 14.5045 8.1461C14.4339 7.9966 14.3557 7.85083 14.2701 7.70938C14.7656 6.6191 14.8246 5.3804 14.4349 4.24799C14.0451 3.11558 13.2363 2.17552 12.1748 1.6211L12.1639 1.61485C12.1352 1.6001 12.1054 1.58756 12.0748 1.57735C11.9257 1.52796 11.7634 1.53654 11.6203 1.60139C11.4772 1.66623 11.3638 1.78259 11.3026 1.9273C11.2415 2.072 11.237 2.23443 11.2902 2.38225C11.3434 2.53008 11.4503 2.65245 11.5897 2.72501H11.5951C11.6873 2.77891 13.1248 3.57266 13.1248 5.31251C13.1251 5.64504 13.0724 5.9755 12.9686 6.29141C12.1096 5.65498 11.0689 5.31142 9.99981 5.31142C8.93077 5.31142 7.89002 5.65498 7.03106 6.29141C6.92723 5.9755 6.87448 5.64504 6.87481 5.31251C6.87481 3.56641 8.32247 2.77266 8.40997 2.72657C8.55461 2.64912 8.66299 2.51791 8.71173 2.36125C8.76047 2.20459 8.74566 2.03505 8.67049 1.88922C8.59531 1.74339 8.46581 1.63296 8.30994 1.58178C8.15406 1.53059 7.9843 1.54275 7.83731 1.61563L7.8256 1.62188C6.76311 2.17681 5.95358 3.11768 5.56343 4.25109C5.17328 5.38449 5.23215 6.6243 5.72794 7.71563C5.642 7.85626 5.56231 8.00157 5.49356 8.15079C4.39227 8.25737 3.36398 8.74939 2.59001 9.54008C1.81605 10.3308 1.34612 11.3693 1.26309 12.4727C1.25083 12.5991 1.24717 12.7262 1.25216 12.8531C1.26566 13.0127 1.33991 13.161 1.45958 13.2674C1.57925 13.3739 1.73521 13.4303 1.89527 13.4251C2.05533 13.4199 2.20729 13.3534 2.31978 13.2394C2.43227 13.1254 2.49672 12.9726 2.49981 12.8125C2.49981 12.7063 2.50528 12.6008 2.51466 12.5C2.57169 12.0117 2.83184 11.0094 3.97091 10.3523C4.29255 10.1659 4.64499 10.0387 5.01153 9.97657C5.00372 10.0883 4.99903 10.2016 4.99903 10.3156C5.00002 11.2969 5.28934 12.2563 5.83104 13.0745C6.37274 13.8928 7.14293 14.5338 8.04591 14.918C7.79123 15.2626 7.46806 15.551 7.09669 15.7648C5.60684 16.6242 4.21544 15.793 4.09747 15.7195L4.08809 15.7133C3.94908 15.6255 3.78107 15.596 3.62047 15.6312C3.45987 15.6665 3.31962 15.7636 3.23011 15.9015C3.1406 16.0394 3.10904 16.207 3.14227 16.368C3.1755 16.5291 3.27083 16.6705 3.40763 16.7617L3.42638 16.7734C3.94707 17.104 4.52791 17.3284 5.13557 17.4339C5.74323 17.5394 6.36574 17.5238 6.96736 17.3881C7.56899 17.2523 8.13787 16.9991 8.64137 16.6429C9.14487 16.2867 9.57307 15.8346 9.90138 15.3125C9.93419 15.3125 9.96622 15.3125 9.99903 15.3125C10.0318 15.3125 10.0647 15.3125 10.0983 15.3125C10.427 15.8343 10.8554 16.286 11.3591 16.6419C11.8627 16.9978 12.4316 17.2508 13.0331 17.3864C13.6347 17.522 14.2571 17.5377 14.8647 17.4323C15.4723 17.327 16.0532 17.1028 16.574 16.7727L16.592 16.7609C16.7288 16.6697 16.8241 16.5283 16.8574 16.3673C16.8906 16.2062 16.859 16.0386 16.7695 15.9007C16.68 15.7628 16.5398 15.6657 16.3792 15.6305C16.2186 15.5952 16.0505 15.6247 15.9115 15.7125L15.9022 15.7188C15.7842 15.7922 14.3928 16.6242 12.9029 15.7641C12.531 15.5493 12.2076 15.2599 11.9529 14.9141C12.8558 14.53 13.6259 13.8891 14.1676 13.071C14.7093 12.2529 14.9987 11.2937 14.9998 10.3125C14.9998 10.1984 14.9943 10.0859 14.9873 9.97422C15.3541 10.036 15.7068 10.163 16.0287 10.3492C17.1592 11.0016 17.424 11.9945 17.4842 12.4836C17.4943 12.5922 17.4998 12.7016 17.4998 12.8125C17.4975 12.8946 17.5113 12.9763 17.5405 13.0531C17.5697 13.1298 17.6138 13.2 17.6702 13.2597C17.7265 13.3194 17.7941 13.3674 17.869 13.401C17.944 13.4346 18.0248 13.4531 18.1068 13.4555C18.1889 13.4578 18.2707 13.444 18.3474 13.4148C18.4241 13.3855 18.4943 13.3415 18.5541 13.2851C18.6138 13.2288 18.6618 13.1612 18.6954 13.0863C18.729 13.0113 18.7475 12.9305 18.7498 12.8484C18.754 12.7212 18.7496 12.5938 18.7365 12.4672ZM8.57247 13.7797C7.88588 13.4962 7.29875 13.0155 6.88533 12.3983C6.47191 11.7812 6.25075 11.0553 6.24981 10.3125C6.24981 10.2133 6.25528 10.1148 6.26309 10.0172L6.34122 10.0367C7.12697 10.2476 7.7995 10.7566 8.21587 11.4556C8.63223 12.1545 8.7596 12.9883 8.57091 13.7797H8.57247ZM9.99981 10.4773L9.99122 10.4625H10.0084L9.99981 10.4773ZM9.99981 8.43751C9.55761 8.43769 9.12043 8.34382 8.71729 8.16212C8.31415 7.98041 7.95426 7.71503 7.66153 7.3836C8.32468 6.85208 9.14917 6.56243 9.99903 6.56243C10.8489 6.56243 11.6734 6.85208 12.3365 7.3836C12.0441 7.71495 11.6845 7.9803 11.2816 8.162C10.8787 8.34371 10.4418 8.43762 9.99981 8.43751ZM11.4287 13.7789C11.333 13.3804 11.3169 12.967 11.3811 12.5622C11.4454 12.1575 11.5889 11.7694 11.8033 11.4201C12.0177 11.0709 12.2989 10.7673 12.6308 10.5269C12.9626 10.2864 13.3386 10.1137 13.7373 10.0188C13.7451 10.1156 13.7498 10.2133 13.7498 10.3125C13.7489 11.0551 13.5278 11.7808 13.1145 12.3978C12.7013 13.0148 12.1143 13.4954 11.4279 13.7789H11.4287Z" fill="#0A814A"/>
</svg>
