<svg width="24" height="30" viewBox="0 0 24 30" fill="none" xmlns="http://www.w3.org/2000/svg">
<path d="M11.5789 0C8.50909 0.00348254 5.56596 1.22452 3.39524 3.39524C1.22452 5.56596 0.00348254 8.50909 0 11.5789C0 21.4868 10.5263 28.9697 10.975 29.2829C11.152 29.4069 11.3628 29.4734 11.5789 29.4734C11.795 29.4734 12.0059 29.4069 12.1829 29.2829C12.6316 28.9697 23.1579 21.4868 23.1579 11.5789C23.1544 8.50909 21.9334 5.56596 19.7627 3.39524C17.5919 1.22452 14.6488 0.00348254 11.5789 0ZM11.5789 7.36842C12.4117 7.36842 13.2258 7.61536 13.9182 8.07802C14.6106 8.54068 15.1503 9.19828 15.469 9.96765C15.7877 10.737 15.871 11.5836 15.7086 12.4004C15.5461 13.2171 15.1451 13.9674 14.5562 14.5562C13.9674 15.1451 13.2171 15.5461 12.4004 15.7086C11.5836 15.871 10.737 15.7877 9.96765 15.469C9.19827 15.1503 8.54068 14.6106 8.07802 13.9182C7.61536 13.2258 7.36842 12.4117 7.36842 11.5789C7.36842 10.4622 7.81203 9.39128 8.60166 8.60166C9.39128 7.81203 10.4622 7.36842 11.5789 7.36842Z" fill="#0A814A"/>
</svg>
