<svg width="19" height="19" viewBox="0 0 19 19" fill="none" xmlns="http://www.w3.org/2000/svg">
<path d="M10 7.8125C10 7.37985 9.87171 6.95692 9.63134 6.59719C9.39097 6.23746 9.04933 5.95708 8.64962 5.79151C8.24991 5.62595 7.81007 5.58263 7.38574 5.66703C6.96141 5.75144 6.57163 5.95978 6.2657 6.2657C5.95978 6.57163 5.75144 6.96141 5.66703 7.38574C5.58263 7.81007 5.62595 8.24991 5.79151 8.64962C5.95708 9.04933 6.23746 9.39097 6.59719 9.63134C6.95692 9.87171 7.37985 10 7.8125 10C8.39266 10 8.94906 9.76953 9.3593 9.3593C9.76953 8.94906 10 8.39266 10 7.8125ZM7.8125 8.75C7.62708 8.75 7.44582 8.69502 7.29165 8.592C7.13748 8.48899 7.01732 8.34257 6.94636 8.17127C6.87541 7.99996 6.85684 7.81146 6.89301 7.6296C6.92919 7.44775 7.01848 7.2807 7.14959 7.14959C7.2807 7.01848 7.44775 6.92919 7.6296 6.89301C7.81146 6.85684 7.99996 6.87541 8.17127 6.94636C8.34257 7.01732 8.48899 7.13748 8.592 7.29165C8.69502 7.44582 8.75 7.62708 8.75 7.8125C8.75 8.06114 8.65123 8.2996 8.47541 8.47541C8.2996 8.65123 8.06114 8.75 7.8125 8.75ZM13.125 8.125C13.3722 8.125 13.6139 8.19831 13.8195 8.33566C14.025 8.47301 14.1852 8.66824 14.2799 8.89665C14.3745 9.12505 14.3992 9.37639 14.351 9.61886C14.3028 9.86134 14.1837 10.0841 14.0089 10.2589C13.8341 10.4337 13.6113 10.5528 13.3689 10.601C13.1264 10.6492 12.8751 10.6245 12.6466 10.5299C12.4182 10.4352 12.223 10.275 12.0857 10.0695C11.9483 9.8639 11.875 9.62223 11.875 9.375C11.875 9.04348 12.0067 8.72554 12.2411 8.49112C12.4755 8.2567 12.7935 8.125 13.125 8.125ZM10.625 13.125C10.625 13.3722 10.5517 13.6139 10.4143 13.8195C10.277 14.025 10.0818 14.1852 9.85335 14.2799C9.62495 14.3745 9.37361 14.3992 9.13114 14.351C8.88866 14.3028 8.66593 14.1837 8.49112 14.0089C8.3163 13.8341 8.19725 13.6113 8.14902 13.3689C8.10079 13.1264 8.12554 12.8751 8.22015 12.6466C8.31476 12.4182 8.47498 12.223 8.68054 12.0857C8.8861 11.9483 9.12777 11.875 9.375 11.875C9.70652 11.875 10.0245 12.0067 10.2589 12.2411C10.4933 12.4755 10.625 12.7935 10.625 13.125ZM18.125 8.75H16.8484C16.7198 7.19687 16.1081 5.72299 15.0992 4.53516L16.0672 3.56719C16.1845 3.44991 16.2503 3.29085 16.2503 3.125C16.2503 2.95915 16.1845 2.80009 16.0672 2.68281C15.9499 2.56554 15.7909 2.49965 15.625 2.49965C15.4591 2.49965 15.3001 2.56554 15.1828 2.68281L14.2188 3.65078C13.0299 2.64115 11.5545 2.02942 10 1.90156V0.625C10 0.45924 9.93415 0.300268 9.81694 0.183058C9.69973 0.065848 9.54076 0 9.375 0C9.20924 0 9.05027 0.065848 8.93306 0.183058C8.81585 0.300268 8.75 0.45924 8.75 0.625V1.90156C7.19687 2.03022 5.72299 2.6419 4.53516 3.65078L3.56719 2.68281C3.44991 2.56554 3.29085 2.49965 3.125 2.49965C2.95915 2.49965 2.80009 2.56554 2.68281 2.68281C2.56554 2.80009 2.49965 2.95915 2.49965 3.125C2.49965 3.29085 2.56554 3.44991 2.68281 3.56719L3.65078 4.53516C2.64115 5.72405 2.02942 7.19941 1.90156 8.75391H0.625C0.45924 8.75391 0.300268 8.81975 0.183058 8.93696C0.065848 9.05417 0 9.21315 0 9.37891C0 9.54467 0.065848 9.70364 0.183058 9.82085C0.300268 9.93806 0.45924 10.0039 0.625 10.0039H1.90156C2.03022 11.557 2.6419 13.0309 3.65078 14.2188L2.68281 15.1828C2.56554 15.3001 2.49965 15.4591 2.49965 15.625C2.49965 15.7909 2.56554 15.9499 2.68281 16.0672C2.80009 16.1845 2.95915 16.2503 3.125 16.2503C3.29085 16.2503 3.44991 16.1845 3.56719 16.0672L4.53516 15.0992C5.72405 16.1088 7.19941 16.7206 8.75391 16.8484V18.125C8.75391 18.2908 8.81975 18.4497 8.93696 18.5669C9.05417 18.6842 9.21315 18.75 9.37891 18.75C9.54467 18.75 9.70364 18.6842 9.82085 18.5669C9.93806 18.4497 10.0039 18.2908 10.0039 18.125V16.8484C11.557 16.7198 13.0309 16.1081 14.2188 15.0992L15.1867 16.0672C15.304 16.1845 15.4631 16.2503 15.6289 16.2503C15.7948 16.2503 15.9538 16.1845 16.0711 16.0672C16.1884 15.9499 16.2543 15.7909 16.2543 15.625C16.2543 15.4591 16.1884 15.3001 16.0711 15.1828L15.0992 14.2188C16.1088 13.0299 16.7206 11.5545 16.8484 10H18.125C18.2908 10 18.4497 9.93415 18.5669 9.81694C18.6842 9.69973 18.75 9.54076 18.75 9.375C18.75 9.20924 18.6842 9.05027 18.5669 8.93306C18.4497 8.81585 18.2908 8.75 18.125 8.75ZM9.375 15.625C8.13887 15.625 6.93049 15.2584 5.90269 14.5717C4.87488 13.8849 4.0738 12.9088 3.60075 11.7668C3.12771 10.6247 3.00393 9.36807 3.24509 8.15569C3.48625 6.9433 4.0815 5.82966 4.95558 4.95558C5.82966 4.0815 6.9433 3.48625 8.15569 3.24509C9.36807 3.00393 10.6247 3.12771 11.7668 3.60075C12.9088 4.0738 13.8849 4.87488 14.5717 5.90269C15.2584 6.93049 15.625 8.13887 15.625 9.375C15.6231 11.032 14.9641 12.6207 13.7924 13.7924C12.6207 14.9641 11.032 15.6231 9.375 15.625Z" fill="#0A814A"/>
</svg>
