<svg width="20" height="20" viewBox="0 0 20 20" fill="none" xmlns="http://www.w3.org/2000/svg">
<path d="M10.5492 3.40663V5.60443C10.5492 5.75015 10.4914 5.88991 10.3883 5.99295C10.2853 6.09599 10.1455 6.15388 9.99979 6.15388C9.85407 6.15388 9.71431 6.09599 9.61127 5.99295C9.50823 5.88991 9.45034 5.75015 9.45034 5.60443V3.40663C9.45034 3.2609 9.50823 3.12115 9.61127 3.01811C9.71431 2.91507 9.85407 2.85718 9.99979 2.85718C10.1455 2.85718 10.2853 2.91507 10.3883 3.01811C10.4914 3.12115 10.5492 3.2609 10.5492 3.40663ZM16.5932 9.45058H14.3954C14.2497 9.45058 14.1099 9.50847 14.0069 9.61152C13.9038 9.71456 13.8459 9.85431 13.8459 10C13.8459 10.1458 13.9038 10.2855 14.0069 10.3886C14.1099 10.4916 14.2497 10.5495 14.3954 10.5495H16.5932C16.7389 10.5495 16.8787 10.4916 16.9817 10.3886C17.0848 10.2855 17.1426 10.1458 17.1426 10C17.1426 9.85431 17.0848 9.71456 16.9817 9.61152C16.8787 9.50847 16.7389 9.45058 16.5932 9.45058ZM13.4964 12.7198C13.3925 12.6211 13.2542 12.5669 13.1109 12.5687C12.9676 12.5706 12.8307 12.6283 12.7294 12.7296C12.6281 12.831 12.5703 12.9678 12.5685 13.1111C12.5667 13.2544 12.6209 13.3927 12.7196 13.4966L14.2731 15.0509C14.3762 15.154 14.5161 15.2119 14.6619 15.2119C14.8077 15.2119 14.9475 15.154 15.0506 15.0509C15.1537 14.9478 15.2116 14.8079 15.2116 14.6621C15.2116 14.5163 15.1537 14.3765 15.0506 14.2734L13.4964 12.7198ZM9.99979 13.8462C9.85407 13.8462 9.71431 13.9041 9.61127 14.0071C9.50823 14.1102 9.45034 14.2499 9.45034 14.3956V16.5934C9.45034 16.7392 9.50823 16.8789 9.61127 16.982C9.71431 17.085 9.85407 17.1429 9.99979 17.1429C10.1455 17.1429 10.2853 17.085 10.3883 16.982C10.4914 16.8789 10.5492 16.7392 10.5492 16.5934V14.3956C10.5492 14.2499 10.4914 14.1102 10.3883 14.0071C10.2853 13.9041 10.1455 13.8462 9.99979 13.8462ZM6.50322 12.7198L4.94897 14.2734C4.84587 14.3765 4.78795 14.5163 4.78795 14.6621C4.78795 14.8079 4.84587 14.9478 4.94897 15.0509C5.05207 15.154 5.1919 15.2119 5.3377 15.2119C5.48351 15.2119 5.62334 15.154 5.72644 15.0509L7.28001 13.4966C7.3787 13.3927 7.43291 13.2544 7.43108 13.1111C7.42924 12.9678 7.37151 12.831 7.27019 12.7296C7.16887 12.6283 7.03198 12.5706 6.8887 12.5687C6.74543 12.5669 6.6071 12.6211 6.50322 12.7198ZM6.15364 10C6.15364 9.85431 6.09575 9.71456 5.99271 9.61152C5.88966 9.50847 5.74991 9.45058 5.60419 9.45058H3.40638C3.26066 9.45058 3.12091 9.50847 3.01786 9.61152C2.91482 9.71456 2.85693 9.85431 2.85693 10C2.85693 10.1458 2.91482 10.2855 3.01786 10.3886C3.12091 10.4916 3.26066 10.5495 3.40638 10.5495H5.60419C5.74991 10.5495 5.88966 10.4916 5.99271 10.3886C6.09575 10.2855 6.15364 10.1458 6.15364 10ZM5.72644 4.94921C5.62334 4.84611 5.48351 4.78819 5.3377 4.78819C5.1919 4.78819 5.05207 4.84611 4.94897 4.94921C4.84587 5.05231 4.78795 5.19214 4.78795 5.33795C4.78795 5.48375 4.84587 5.62358 4.94897 5.72668L6.50322 7.28025C6.6071 7.37895 6.74543 7.43316 6.8887 7.43132C7.03198 7.42949 7.16887 7.37175 7.27019 7.27044C7.37151 7.16912 7.42924 7.03222 7.43108 6.88895C7.43291 6.74567 7.3787 6.60735 7.28001 6.50347L5.72644 4.94921Z" fill="#4F3824"/>
</svg>
