<svg width="17" height="17" viewBox="0 0 17 17" fill="none" xmlns="http://www.w3.org/2000/svg">
<path d="M16.6925 4.8708L12.005 0.183304C11.947 0.125194 11.878 0.0790944 11.8021 0.0476417C11.7263 0.016189 11.6449 0 11.5628 0C11.4807 0 11.3993 0.016189 11.3235 0.0476417C11.2476 0.0790944 11.1787 0.125194 11.1206 0.183304L1.02453 10.2794C0.368535 10.9354 0 11.8251 0 12.7528C0 13.6806 0.368535 14.5703 1.02453 15.2263C1.68053 15.8823 2.57025 16.2508 3.49797 16.2508C4.42569 16.2508 5.31541 15.8823 5.97141 15.2263L14.7128 6.48487L16.448 5.90674C16.5491 5.8731 16.64 5.81415 16.7119 5.7355C16.7838 5.65685 16.8345 5.56111 16.859 5.45737C16.8835 5.35364 16.881 5.24536 16.8519 5.14283C16.8228 5.0403 16.7679 4.94693 16.6925 4.87159V4.8708ZM5.08703 14.3419C4.66298 14.7506 4.09546 14.9765 3.50656 14.9711C2.91765 14.9656 2.3544 14.7293 1.93796 14.3128C1.52152 13.8964 1.28516 13.3332 1.27973 12.7442C1.2743 12.1553 1.50022 11.5878 1.90891 11.1638L4.15891 8.91377C4.82063 8.68721 5.85813 8.60127 7.21125 9.3044C8.03938 9.73721 8.78781 9.9294 9.4425 9.98643L5.08703 14.3419ZM14.1777 5.34502C14.0855 5.37561 14.0018 5.42724 13.9331 5.4958L10.8417 8.58721C10.18 8.81377 9.1425 8.89971 7.78937 8.19659C6.96125 7.76377 6.21281 7.57159 5.55812 7.51455L11.5628 1.50909L15.0933 5.03955L14.1777 5.34502Z" fill="#0A814A"/>
</svg>
