<svg width="20" height="20" viewBox="0 0 20 20" fill="none" xmlns="http://www.w3.org/2000/svg">
<path d="M15.4766 4.88987C15.0245 3.81037 14.2634 2.88857 13.289 2.24027C12.3146 1.59197 11.1704 1.24609 10 1.24609C8.82967 1.24609 7.68542 1.59197 6.71103 2.24027C5.73664 2.88857 4.97558 3.81037 4.52346 4.88987C3.54706 5.33615 2.71944 6.05357 2.13911 6.95676C1.55878 7.85994 1.25017 8.91084 1.25002 9.9844C1.24221 12.9688 3.75002 15.5469 6.72971 15.625C7.64621 15.6472 8.55427 15.4452 9.37502 15.0367V18.125C9.37502 18.2908 9.44087 18.4498 9.55808 18.567C9.67529 18.6842 9.83426 18.75 10 18.75C10.1658 18.75 10.3248 18.6842 10.442 18.567C10.5592 18.4498 10.625 18.2908 10.625 18.125V15.0367C11.402 15.4226 12.2575 15.6239 13.125 15.625H13.2672C16.25 15.5469 18.7586 12.9688 18.75 9.9844C18.7499 8.91084 18.4413 7.85994 17.8609 6.95676C17.2806 6.05357 16.453 5.33615 15.4766 4.88987ZM13.2383 14.375C12.3063 14.3993 11.3908 14.1256 10.625 13.5938V10.3907L14.0297 8.68909C14.1032 8.65236 14.1687 8.60152 14.2225 8.53948C14.2763 8.47743 14.3174 8.4054 14.3433 8.32748C14.3693 8.24957 14.3797 8.1673 14.3738 8.08538C14.368 8.00346 14.3461 7.92348 14.3094 7.85003C14.2727 7.77657 14.2218 7.71106 14.1598 7.65725C14.0977 7.60344 14.0257 7.56238 13.9478 7.53641C13.8699 7.51044 13.7876 7.50006 13.7057 7.50589C13.6238 7.51171 13.5438 7.53361 13.4703 7.57034L10.625 8.98909V6.87503C10.625 6.70927 10.5592 6.55029 10.442 6.43308C10.3248 6.31587 10.1658 6.25003 10 6.25003C9.83426 6.25003 9.67529 6.31587 9.55808 6.43308C9.44087 6.55029 9.37502 6.70927 9.37502 6.87503V10.8641L6.52971 9.44065C6.38135 9.36647 6.2096 9.35427 6.05225 9.40672C5.89489 9.45917 5.76482 9.57198 5.69064 9.72034C5.61647 9.86869 5.60426 10.0404 5.65671 10.1978C5.70916 10.3552 5.82198 10.4852 5.97033 10.5594L9.37502 12.261V13.5891C8.60943 14.1213 7.69383 14.3951 6.76174 14.3703C4.44533 14.3149 2.49377 12.3063 2.50002 9.98753C2.49943 9.11548 2.76053 8.26332 3.24954 7.54129C3.73856 6.81925 4.43298 6.26058 5.24299 5.93753C5.32424 5.9049 5.39774 5.85556 5.4587 5.79271C5.51967 5.72986 5.56675 5.65489 5.59689 5.57268C5.92657 4.66986 6.52579 3.8902 7.31339 3.33934C8.10099 2.78847 9.03889 2.49302 10 2.49302C10.9611 2.49302 11.899 2.78847 12.6866 3.33934C13.4742 3.8902 14.0735 4.66986 14.4031 5.57268C14.4333 5.65489 14.4804 5.72986 14.5413 5.79271C14.6023 5.85556 14.6758 5.9049 14.757 5.93753C15.5669 6.26075 16.2612 6.81948 16.7502 7.54147C17.2392 8.26346 17.5004 9.11553 17.5 9.98753C17.5063 12.3063 15.5547 14.3149 13.2383 14.375Z" fill="#0A814A"/>
</svg>
